<svg width="339.29755859375px" height="121.87089233398437px" xmlns="http://www.w3.org/2000/svg" viewBox="80.351220703125 14.064553833007814 339.29755859375 121.87089233398437" style="background: rgba(0, 0, 0, 0);" preserveAspectRatio="xMidYMid"><defs><linearGradient id="editing-shiny-gradient" x1="0.04322727117869957" x2="0.9567727288213004" y1="0.2966316784620999" y2="0.7033683215379001" gradientUnits="objectBoundingBox"><stop offset="0.0" stop-color="#ffb200"></stop><stop offset="0.5" stop-color="#e10057"></stop><stop offset="1.0" stop-color="#5a1a80"></stop></linearGradient><linearGradient id="editing-shiny-gradient2" x1="0" x2="0" y1="0" y2="1"><stop offset="0.2" stop-color="#fff" stop-opacity="0.8"></stop><stop offset="0.8" stop-color="#fff" stop-opacity="0"></stop></linearGradient><filter id="editing-shiny2" x="-100%" y="-100%" width="300%" height="300%"><feMorphology operator="erode" radius="2"></feMorphology></filter><filter id="editing-shiny" x="-100%" y="-100%" width="300%" height="300%"><feFlood flood-color="#fff" result="flood"></feFlood><feConvolveMatrix in="SourceGraphic" result="conv" order="8,8" divisor="1" kernelMatrix="0 0 0 0 0 0 0 0 0 0 0 1 1 0 0 0 0 0 0 1 1 0 0 0 0 0 1 0 0 1 0 0 0 0 1 0 0 1 0 0 0 1 0 0 0 0 1 0 0 1 1 0 0 1 1 0 0 0 0 1 1 0 0 0 "></feConvolveMatrix><feOffset dx="0" dy="4" in="conv" result="offset"></feOffset><feComposite operator="in" in="flood" in2="offset" result="comp"></feComposite><feGaussianBlur in="offset" stdDeviation="3" result="shadow"></feGaussianBlur><feColorMatrix in="shadow" type="matrix" values="0.7 0 0 0 0  0 0.7 0 0 0  0 0 0.7 0 0  0 0 0 0.3 0" result="dark-shadow"></feColorMatrix><feOffset dx="0" dy="4" in="dark-shadow" result="offset-shadow"></feOffset><feOffset dx="0" dy="2" in="conv" result="offset-2"></feOffset><feComposite operator="out" in="offset" in2="offset-2" result="edge-diff"></feComposite><feGaussianBlur in="edge-diff" stdDeviation="1" result="edge-blur"></feGaussianBlur><feColorMatrix in="edge-blur" result="edge-shadow" type="matrix" values="0 0 0 0 0  0 0 0 0 0  0 0 0 0 0  0 0 0 0.5 0"></feColorMatrix><feComposite operator="in" in="edge-shadow" in2="offset" result="edge-shadow-in"></feComposite><feOffset dx="0" dy="1" in="edge-shadow-in" result="edge-shadow-final"></feOffset><feMerge result="out"><feMergeNode in="offset-shadow"></feMergeNode><feMergeNode in="comp"></feMergeNode><feMergeNode in="edge-shadow-final"></feMergeNode><feMergeNode in="SourceGraphic"></feMergeNode></feMerge></filter></defs><g filter="url(#editing-shiny)"><g transform="translate(132.01937288045883, 97.43000030517578)"><path d="M27.84-9.86L27.84-9.86L27.84-9.86Q29.06-8.32 29.06-5.34L29.06-5.34L29.06-5.34Q29.06-2.37 26.78-0.54L26.78-0.54L26.78-0.54Q24.51 1.28 20.54 1.28L20.54 1.28L20.54 1.28Q18.24 1.28 14.66 0.77L14.66 0.77L14.66 0.77Q7.62-0.32 5.60-0.32L5.60-0.32L5.60-0.32Q3.58-0.32 2.75-0.22L2.75-0.22L2.75-0.22Q1.92-0.13 0.58 0L0.58 0L8.32-42.24L22.34-42.24L15.94-7.04L15.94-7.04Q16.77-6.91 17.54-6.91L17.54-6.91L19.14-6.91L19.14-6.91Q24.51-6.91 27.84-9.86ZM61.44 1.28L61.44 1.28L61.44 1.28Q53.25 1.28 52.48-10.37L52.48-10.37L41.47-10.37L41.47-10.37Q40.19-7.42 39.30-4.86L39.30-4.86L37.63 0L28.67 0L48.83-42.24L62.59-42.24L65.28-11.14L65.28-11.14Q65.92-4.42 68.48-2.43L68.48-2.43L68.48-2.43Q66.62 1.28 61.44 1.28ZM46.98-23.17L43.46-15.04L52.29-15.04L51.52-31.49L51.52-33.22L46.98-23.17ZM73.79-39.68L73.79-39.68L73.79-39.68Q74.69-41.47 76.64-42.46L76.64-42.46L76.64-42.46Q78.59-43.46 81.28-43.46L81.28-43.46L81.28-43.46Q85.50-43.46 88.03-40.42L88.03-40.42L88.03-40.42Q90.56-37.38 90.56-30.72L90.56-30.72L90.56-7.87L105.22-42.18L112.77-42.18L114.50-9.79L114.30-7.94L129.54-42.18L138.30-42.18L117.82 0L104.19 0L102.91-19.46L94.46 0L79.04 0L77.12-30.72L77.12-30.72Q76.93-34.18 76-36.45L76-36.45L76-36.45Q75.07-38.72 73.79-39.68ZM142.14 0L135.10 0L142.78-42.24L156.54-42.24L166.53-13.18L171.84-42.24L178.94-42.18L171.14 0L156.48 0L147.26-27.97L142.14 0ZM205.50-29.57L205.50-29.57L205.50-29.57Q206.46-31.49 206.46-33.28L206.46-33.28L206.46-33.28Q206.46-35.07 206.27-36.06L206.27-36.06L206.27-36.06Q206.08-37.06 205.63-37.82L205.63-37.82L205.63-37.82Q204.67-39.49 202.75-39.49L202.75-39.49L202.75-39.49Q200.38-39.49 198.46-37.76L198.46-37.76L198.46-37.76Q196.42-35.97 196.42-33.15L196.42-33.15L196.42-33.15Q196.42-31.36 197.66-29.98L197.66-29.98L197.66-29.98Q198.91-28.61 200.83-27.33L200.83-27.33L200.83-27.33Q202.75-26.05 204.93-24.77L204.93-24.77L204.93-24.77Q207.10-23.49 209.02-21.95L209.02-21.95L209.02-21.95Q213.44-18.43 213.44-13.70L213.44-13.70L213.44-13.70Q213.44-10.50 211.74-7.78L211.74-7.78L211.74-7.78Q210.05-5.06 207.23-3.07L207.23-3.07L207.23-3.07Q201.09 1.28 192.96 1.28L192.96 1.28L192.96 1.28Q186.37 1.28 182.98-0.86L182.98-0.86L182.98-0.86Q179.58-3.01 179.58-6.27L179.58-6.27L179.58-6.27Q179.58-12.10 184.13-13.57L184.13-13.57L184.13-13.57Q185.41-14.02 187.36-14.02L187.36-14.02L187.36-14.02Q189.31-14.02 191.55-13.18L191.55-13.18L191.55-13.18Q190.53-10.56 190.53-8.19L190.53-8.19L190.53-8.19Q190.53-3.07 194.18-3.07L194.18-3.07L194.18-3.07Q196.54-3.07 198.50-4.80L198.50-4.80L198.50-4.80Q200.45-6.53 200.45-8.48L200.45-8.48L200.45-8.48Q200.45-10.43 199.20-11.84L199.20-11.84L199.20-11.84Q197.95-13.25 196.10-14.37L196.10-14.37L196.10-14.37Q194.24-15.49 192.10-16.58L192.10-16.58L192.10-16.58Q189.95-17.66 188.10-19.20L188.10-19.20L188.10-19.20Q183.74-22.72 183.74-28.35L183.74-28.35L183.74-28.35Q183.74-32 185.54-34.85L185.54-34.85L185.54-34.85Q187.33-37.70 190.21-39.62L190.21-39.62L190.21-39.62Q195.97-43.52 203.04-43.52L203.04-43.52L203.04-43.52Q210.11-43.52 213.54-41.41L213.54-41.41L213.54-41.41Q216.96-39.30 216.96-35.71L216.96-35.71L216.96-35.71Q216.96-32.58 214.53-30.59L214.53-30.59L214.53-30.59Q212.42-28.93 209.86-28.93L209.86-28.93L209.86-28.93Q207.30-28.93 205.50-29.57ZM216.58-3.78L216.58-3.78L216.58-3.78Q216.58-6.21 218.40-7.52L218.40-7.52L218.40-7.52Q220.22-8.83 222.91-8.83L222.91-8.83L222.91-8.83Q225.60-8.83 227.30-7.52L227.30-7.52L227.30-7.52Q228.99-6.21 228.99-3.78L228.99-3.78L228.99-3.78Q228.99-1.34 227.10 0L227.10 0L227.10 0Q225.22 1.34 222.53 1.34L222.53 1.34L222.53 1.34Q219.84 1.34 218.21 0L218.21 0L218.21 0Q216.58-1.34 216.58-3.78ZM220.03-15.81L220.03-15.81L220.03-15.81Q220.03-16.26 220.16-16.90L220.16-16.90L225.15-42.62L225.15-42.62Q227.52-43.52 230.34-43.52L230.34-43.52L230.34-43.52Q233.15-43.52 234.62-41.73L234.62-41.73L234.62-41.73Q236.10-39.94 236.10-37.28L236.10-37.28L236.10-37.28Q236.10-34.62 235.07-31.65L235.07-31.65L235.07-31.65Q234.05-28.67 232.80-25.66L232.80-25.66L232.80-25.66Q231.55-22.66 230.50-19.55L230.50-19.55L230.50-19.55Q229.44-16.45 229.38-13.18L229.38-13.18L229.38-13.18Q227.90-11.52 225.34-11.52L225.34-11.52L225.34-11.52Q222.78-11.52 221.41-12.70L221.41-12.70L221.41-12.70Q220.03-13.89 220.03-15.81Z" fill="url(#editing-shiny-gradient)"></path></g></g><g filter="url(#editing-shiny2)"><g transform="translate(132.04281038045883, 97.43000030517578)"><path d="M27.84-9.86L27.84-9.86L27.84-9.86Q29.06-8.32 29.06-5.34L29.06-5.34L29.06-5.34Q29.06-2.37 26.78-0.54L26.78-0.54L26.78-0.54Q24.51 1.28 20.54 1.28L20.54 1.28L20.54 1.28Q18.24 1.28 14.66 0.77L14.66 0.77L14.66 0.77Q7.62-0.32 5.60-0.32L5.60-0.32L5.60-0.32Q3.58-0.32 2.75-0.22L2.75-0.22L2.75-0.22Q1.92-0.13 0.58 0L0.58 0L8.32-42.24L22.34-42.24L15.94-7.04L15.94-7.04Q16.77-6.91 17.54-6.91L17.54-6.91L19.14-6.91L19.14-6.91Q24.51-6.91 27.84-9.86ZM61.44 1.28L61.44 1.28L61.44 1.28Q53.25 1.28 52.48-10.37L52.48-10.37L41.47-10.37L41.47-10.37Q40.19-7.42 39.30-4.86L39.30-4.86L37.63 0L28.67 0L48.83-42.24L62.59-42.24L65.28-11.14L65.28-11.14Q65.92-4.42 68.48-2.43L68.48-2.43L68.48-2.43Q66.62 1.28 61.44 1.28ZM46.98-23.17L43.46-15.04L52.29-15.04L51.52-31.49L51.52-33.22L46.98-23.17ZM73.79-39.68L73.79-39.68L73.79-39.68Q74.69-41.47 76.64-42.46L76.64-42.46L76.64-42.46Q78.59-43.46 81.28-43.46L81.28-43.46L81.28-43.46Q85.50-43.46 88.03-40.42L88.03-40.42L88.03-40.42Q90.56-37.38 90.56-30.72L90.56-30.72L90.56-7.87L105.22-42.18L112.77-42.18L114.50-9.79L114.30-7.94L129.54-42.18L138.30-42.18L117.82 0L104.19 0L102.91-19.46L94.46 0L79.04 0L77.12-30.72L77.12-30.72Q76.93-34.18 76-36.45L76-36.45L76-36.45Q75.07-38.72 73.79-39.68ZM142.14 0L135.10 0L142.78-42.24L156.54-42.24L166.53-13.18L171.84-42.24L178.94-42.18L171.14 0L156.48 0L147.26-27.97L142.14 0ZM205.50-29.57L205.50-29.57L205.50-29.57Q206.46-31.49 206.46-33.28L206.46-33.28L206.46-33.28Q206.46-35.07 206.27-36.06L206.27-36.06L206.27-36.06Q206.08-37.06 205.63-37.82L205.63-37.82L205.63-37.82Q204.67-39.49 202.75-39.49L202.75-39.49L202.75-39.49Q200.38-39.49 198.46-37.76L198.46-37.76L198.46-37.76Q196.42-35.97 196.42-33.15L196.42-33.15L196.42-33.15Q196.42-31.36 197.66-29.98L197.66-29.98L197.66-29.98Q198.91-28.61 200.83-27.33L200.83-27.33L200.83-27.33Q202.75-26.05 204.93-24.77L204.93-24.77L204.93-24.77Q207.10-23.49 209.02-21.95L209.02-21.95L209.02-21.95Q213.44-18.43 213.44-13.70L213.44-13.70L213.44-13.70Q213.44-10.50 211.74-7.78L211.74-7.78L211.74-7.78Q210.05-5.06 207.23-3.07L207.23-3.07L207.23-3.07Q201.09 1.28 192.96 1.28L192.96 1.28L192.96 1.28Q186.37 1.28 182.98-0.86L182.98-0.86L182.98-0.86Q179.58-3.01 179.58-6.27L179.58-6.27L179.58-6.27Q179.58-12.10 184.13-13.57L184.13-13.57L184.13-13.57Q185.41-14.02 187.36-14.02L187.36-14.02L187.36-14.02Q189.31-14.02 191.55-13.18L191.55-13.18L191.55-13.18Q190.53-10.56 190.53-8.19L190.53-8.19L190.53-8.19Q190.53-3.07 194.18-3.07L194.18-3.07L194.18-3.07Q196.54-3.07 198.50-4.80L198.50-4.80L198.50-4.80Q200.45-6.53 200.45-8.48L200.45-8.48L200.45-8.48Q200.45-10.43 199.20-11.84L199.20-11.84L199.20-11.84Q197.95-13.25 196.10-14.37L196.10-14.37L196.10-14.37Q194.24-15.49 192.10-16.58L192.10-16.58L192.10-16.58Q189.95-17.66 188.10-19.20L188.10-19.20L188.10-19.20Q183.74-22.72 183.74-28.35L183.74-28.35L183.74-28.35Q183.74-32 185.54-34.85L185.54-34.85L185.54-34.85Q187.33-37.70 190.21-39.62L190.21-39.62L190.21-39.62Q195.97-43.52 203.04-43.52L203.04-43.52L203.04-43.52Q210.11-43.52 213.54-41.41L213.54-41.41L213.54-41.41Q216.96-39.30 216.96-35.71L216.96-35.71L216.96-35.71Q216.96-32.58 214.53-30.59L214.53-30.59L214.53-30.59Q212.42-28.93 209.86-28.93L209.86-28.93L209.86-28.93Q207.30-28.93 205.50-29.57ZM216.58-3.78L216.58-3.78L216.58-3.78Q216.58-6.21 218.40-7.52L218.40-7.52L218.40-7.52Q220.22-8.83 222.91-8.83L222.91-8.83L222.91-8.83Q225.60-8.83 227.30-7.52L227.30-7.52L227.30-7.52Q228.99-6.21 228.99-3.78L228.99-3.78L228.99-3.78Q228.99-1.34 227.10 0L227.10 0L227.10 0Q225.22 1.34 222.53 1.34L222.53 1.34L222.53 1.34Q219.84 1.34 218.21 0L218.21 0L218.21 0Q216.58-1.34 216.58-3.78ZM220.03-15.81L220.03-15.81L220.03-15.81Q220.03-16.26 220.16-16.90L220.16-16.90L225.15-42.62L225.15-42.62Q227.52-43.52 230.34-43.52L230.34-43.52L230.34-43.52Q233.15-43.52 234.62-41.73L234.62-41.73L234.62-41.73Q236.10-39.94 236.10-37.28L236.10-37.28L236.10-37.28Q236.10-34.62 235.07-31.65L235.07-31.65L235.07-31.65Q234.05-28.67 232.80-25.66L232.80-25.66L232.80-25.66Q231.55-22.66 230.50-19.55L230.50-19.55L230.50-19.55Q229.44-16.45 229.38-13.18L229.38-13.18L229.38-13.18Q227.90-11.52 225.34-11.52L225.34-11.52L225.34-11.52Q222.78-11.52 221.41-12.70L221.41-12.70L221.41-12.70Q220.03-13.89 220.03-15.81Z" fill="url(#editing-shiny-gradient2)"></path></g></g><style>text {
  font-size: 64px;
  font-family: Arial Black;
  dominant-baseline: central;
  text-anchor: middle;
}</style></svg>