<svg width="1064.2513671875px" height="241.88909301757812px" xmlns="http://www.w3.org/2000/svg" viewBox="-282.12568359374995 -45.94454650878906 1064.2513671875 241.88909301757812" style="background: rgb(255, 255, 255);" preserveAspectRatio="xMidYMid"><defs><linearGradient id="editing-shiny-gradient" x1="0" x2="1" y1="0.5" y2="0.5" gradientUnits="objectBoundingBox"><stop offset="0.0" stop-color="#607e37"></stop><stop offset="0.5" stop-color="#b6c89f"></stop><stop offset="1.0" stop-color="#262d1e"></stop></linearGradient><linearGradient id="editing-shiny-gradient2" x1="0" x2="0" y1="0" y2="1"><stop offset="0.2" stop-color="#fff" stop-opacity="0.8"></stop><stop offset="0.8" stop-color="#fff" stop-opacity="0"></stop></linearGradient><filter id="editing-shiny2" x="-100%" y="-100%" width="300%" height="300%"><feMorphology operator="erode" radius="2"></feMorphology></filter><filter id="editing-shiny" x="-100%" y="-100%" width="300%" height="300%"><feFlood flood-color="#fff" result="flood"></feFlood><feConvolveMatrix in="SourceGraphic" result="conv" order="8,8" divisor="1" kernelMatrix="0 0 0 0 0 0 0 0 0 0 0 1 1 0 0 0 0 0 0 1 1 0 0 0 0 0 1 0 0 1 0 0 0 0 1 0 0 1 0 0 0 1 0 0 0 0 1 0 0 1 1 0 0 1 1 0 0 0 0 1 1 0 0 0 "></feConvolveMatrix><feOffset dx="0" dy="4" in="conv" result="offset"></feOffset><feComposite operator="in" in="flood" in2="offset" result="comp"></feComposite><feGaussianBlur in="offset" stdDeviation="3" result="shadow"></feGaussianBlur><feColorMatrix in="shadow" type="matrix" values="0.7 0 0 0 0  0 0.7 0 0 0  0 0 0.7 0 0  0 0 0 0.3 0" result="dark-shadow"></feColorMatrix><feOffset dx="0" dy="4" in="dark-shadow" result="offset-shadow"></feOffset><feOffset dx="0" dy="2" in="conv" result="offset-2"></feOffset><feComposite operator="out" in="offset" in2="offset-2" result="edge-diff"></feComposite><feGaussianBlur in="edge-diff" stdDeviation="1" result="edge-blur"></feGaussianBlur><feColorMatrix in="edge-blur" result="edge-shadow" type="matrix" values="0 0 0 0 0  0 0 0 0 0  0 0 0 0 0  0 0 0 0.5 0"></feColorMatrix><feComposite operator="in" in="edge-shadow" in2="offset" result="edge-shadow-in"></feComposite><feOffset dx="0" dy="1" in="edge-shadow-in" result="edge-shadow-final"></feOffset><feMerge result="out"><feMergeNode in="offset-shadow"></feMergeNode><feMergeNode in="comp"></feMergeNode><feMergeNode in="edge-shadow-final"></feMergeNode><feMergeNode in="SourceGraphic"></feMergeNode></feMerge></filter></defs><g filter="url(#editing-shiny)"><g transform="translate(-134.7350025177002, 102.6500015258789)"><path d="M18.24-19.39L18.24-19.39L18.24-17.41L43.20-17.41L43.20-19.39L43.20-19.39Q43.20-21.12 42.91-22.59L42.91-22.59L42.91-22.59Q42.62-24.06 42.18-25.34L42.18-25.34L37.76-35.78L37.76-35.78Q37.06-37.44 36.29-38.56L36.29-38.56L36.29-38.56Q35.52-39.68 33.73-39.68L33.73-39.68L27.46-39.68L27.46-39.68Q25.54-39.68 24.77-38.56L24.77-38.56L24.77-38.56Q24-37.44 23.36-35.84L23.36-35.84L19.26-25.34L19.26-25.34Q18.82-24.06 18.53-22.59L18.53-22.59L18.53-22.59Q18.24-21.12 18.24-19.39ZM25.47-22.91L28.48-32.64L28.48-32.64Q28.74-33.22 29.02-33.47L29.02-33.47L29.02-33.47Q29.31-33.73 29.70-33.73L29.70-33.73L31.30-33.73L31.30-33.73Q31.68-33.73 31.97-33.47L31.97-33.47L31.97-33.47Q32.26-33.22 32.51-32.64L32.51-32.64L35.52-22.91L25.47-22.91ZM43.84-5.76L43.20-5.76L43.20-16.77L18.24-16.77L18.24-5.76L17.60-5.76L17.60-19.39L17.60-19.39Q17.60-21.18 17.89-22.69L17.89-22.69L17.89-22.69Q18.18-24.19 18.69-25.60L18.69-25.60L22.78-36.10L22.78-36.10Q23.49-37.89 24.38-39.10L24.38-39.10L24.38-39.10Q25.28-40.32 27.46-40.32L27.46-40.32L33.73-40.32L33.73-40.32Q35.84-40.32 36.70-39.10L36.70-39.10L36.70-39.10Q37.57-37.89 38.34-36.03L38.34-36.03L42.75-25.60L42.75-25.60Q43.26-24.19 43.55-22.69L43.55-22.69L43.55-22.69Q43.84-21.18 43.84-19.39L43.84-19.39L43.84-5.76ZM24.83-2.30L24.83-2.30L24.83-11.26L36.16-11.26L36.16-2.30L36.16-2.30Q36.16-1.09 36.77-0.54L36.77-0.54L36.77-0.54Q37.38 0 38.66 0L38.66 0L48.32 0L48.32 0Q49.54 0 50.08-0.54L50.08-0.54L50.08-0.54Q50.62-1.09 50.62-2.30L50.62-2.30L50.62-19.20L50.62-19.20Q50.62-21.12 50.02-23.62L50.02-23.62L50.02-23.62Q49.41-26.11 48.13-29.44L48.13-29.44L42.56-43.97L42.56-43.97Q42.18-45.06 41.38-45.57L41.38-45.57L41.38-45.57Q40.58-46.08 39.36-46.08L39.36-46.08L22.14-46.08L22.14-46.08Q20.86-46.08 20.06-45.57L20.06-45.57L20.06-45.57Q19.26-45.06 18.88-43.97L18.88-43.97L13.31-29.44L13.31-29.44Q12.03-26.11 11.42-23.62L11.42-23.62L11.42-23.62Q10.82-21.12 10.82-19.20L10.82-19.20L10.82-2.30L10.82-2.30Q10.82-1.09 11.36-0.54L11.36-0.54L11.36-0.54Q11.90 0 13.12 0L13.12 0L22.53 0L22.53 0Q23.74 0 24.29-0.54L24.29-0.54L24.29-0.54Q24.83-1.09 24.83-2.30ZM24.58 0.06L16.26 6.98L16.26 6.98Q16 7.23 15.46 7.42L15.46 7.42L15.46 7.42Q14.91 7.62 14.27 7.62L14.27 7.62L4.86 7.62L4.86 7.62Q3.33 7.62 2.62 6.91L2.62 6.91L2.62 6.91Q1.92 6.21 1.92 4.67L1.92 4.67L1.92-12.22L1.92-12.22Q1.92-14.21 2.53-16.74L2.53-16.74L2.53-16.74Q3.14-19.26 4.48-22.72L4.48-22.72L9.98-37.18L9.98-37.18Q10.18-37.76 10.46-38.18L10.46-38.18L10.46-38.18Q10.75-38.59 11.07-38.91L11.07-38.91L11.14-38.98L19.33-45.82L19.33-45.82Q19.84-46.27 20.54-46.50L20.54-46.50L20.54-46.50Q21.25-46.72 22.14-46.72L22.14-46.72L39.36-46.72L39.36-46.72Q40.83-46.72 41.76-46.11L41.76-46.11L41.76-46.11Q42.69-45.50 43.14-44.22L43.14-44.22L48.70-29.70L48.70-29.70Q50.05-26.24 50.66-23.71L50.66-23.71L50.66-23.71Q51.26-21.18 51.26-19.20L51.26-19.20L51.26-2.30L51.26-2.30Q51.26-1.47 51.04-0.90L51.04-0.90L51.04-0.90Q50.82-0.32 50.37 0.06L50.37 0.06L42.05 6.98L42.05 6.98Q41.79 7.23 41.25 7.42L41.25 7.42L41.25 7.42Q40.70 7.62 40.06 7.62L40.06 7.62L30.40 7.62L30.40 7.62Q28.80 7.62 28.03 6.88L28.03 6.88L28.03 6.88Q27.26 6.14 27.26 4.67L27.26 4.67L27.26-3.65L25.47-3.65L25.47-2.30L25.47-2.30Q25.47-1.47 25.25-0.90L25.25-0.90L25.25-0.90Q25.02-0.32 24.58 0.06L24.58 0.06ZM76.10 8.58L76.10 8.58L76.10 8.58Q69.89 8.58 65.89 7.26L65.89 7.26L65.89 7.26Q61.89 5.95 59.65 3.78L59.65 3.78L59.65 3.78Q57.41 1.60 56.54-1.22L56.54-1.22L56.54-1.22Q55.68-4.03 55.68-7.04L55.68-7.04L55.68-36.80L55.68-36.80Q55.68-37.63 55.90-38.21L55.90-38.21L55.90-38.21Q56.13-38.78 56.58-39.17L56.58-39.17L64.83-46.14L64.83-46.14Q65.15-46.40 65.70-46.56L65.70-46.56L65.70-46.56Q66.24-46.72 66.88-46.72L66.88-46.72L76.93-46.72L76.93-46.72Q78.46-46.72 79.17-46.02L79.17-46.02L79.17-46.02Q79.87-45.31 79.87-43.78L79.87-43.78L79.87-14.59L79.87-14.59Q79.87-14.02 80.06-13.54L80.06-13.54L80.06-13.54Q80.26-13.06 80.90-12.80L80.90-12.80L80.90-36.80L80.90-36.80Q80.90-37.63 81.09-38.21L81.09-38.21L81.09-38.21Q81.28-38.78 81.66-39.10L81.66-39.10L81.73-39.17L90.05-46.14L90.05-46.14Q90.37-46.40 90.88-46.56L90.88-46.56L90.88-46.56Q91.39-46.72 92.10-46.72L92.10-46.72L101.82-46.72L101.82-46.72Q103.36-46.72 104.06-46.02L104.06-46.02L104.06-46.02Q104.77-45.31 104.77-43.78L104.77-43.78L104.77-12.10L104.77-12.10Q104.77-9.15 103.94-6.66L103.94-6.66L103.94-6.66Q103.10-4.16 100.93-2.37L100.93-2.37L92.61 4.54L92.61 4.54Q90.37 6.46 86.40 7.52L86.40 7.52L86.40 7.52Q82.43 8.58 76.10 8.58ZM104.13-12.10L104.13-12.10L104.13-43.78L104.13-43.78Q104.13-44.99 103.58-45.54L103.58-45.54L103.58-45.54Q103.04-46.08 101.82-46.08L101.82-46.08L92.10-46.08L92.10-46.08Q90.88-46.08 90.34-45.54L90.34-45.54L90.34-45.54Q89.79-44.99 89.79-43.78L89.79-43.78L89.79-14.59L89.79-14.59Q89.79-13.31 88.83-12.45L88.83-12.45L88.83-12.45Q87.87-11.58 84.48-11.58L84.48-11.58L84.48-11.58Q81.15-11.58 80.19-12.45L80.19-12.45L80.19-12.45Q79.23-13.31 79.23-14.59L79.23-14.59L79.23-43.78L79.23-43.78Q79.23-44.99 78.69-45.54L78.69-45.54L78.69-45.54Q78.14-46.08 76.93-46.08L76.93-46.08L66.88-46.08L66.88-46.08Q65.66-46.08 65.12-45.54L65.12-45.54L65.12-45.54Q64.58-44.99 64.58-43.78L64.58-43.78L64.58-12.10L64.58-12.10Q64.58-9.15 65.44-6.75L65.44-6.75L65.44-6.75Q66.30-4.35 68.51-2.66L68.51-2.66L68.51-2.66Q70.72-0.96 74.56 0L74.56 0L74.56 0Q78.40 0.96 84.35 0.96L84.35 0.96L84.35 0.96Q90.30 0.96 94.14 0L94.14 0L94.14 0Q97.98-0.96 100.19-2.66L100.19-2.66L100.19-2.66Q102.40-4.35 103.26-6.75L103.26-6.75L103.26-6.75Q104.13-9.15 104.13-12.10ZM71.62-13.63L71.62-40.32L72.26-40.32L72.26-13.63L72.26-13.63Q72.26-10.05 74.78-7.84L74.78-7.84L74.78-7.84Q77.31-5.63 84.42-5.63L84.42-5.63L84.42-5.63Q91.52-5.63 94.08-7.84L94.08-7.84L94.08-7.84Q96.64-10.05 96.64-13.63L96.64-13.63L96.64-40.32L97.28-40.32L97.28-13.63L97.28-13.63Q97.28-9.79 94.59-7.39L94.59-7.39L94.59-7.39Q91.90-4.99 84.42-4.99L84.42-4.99L84.42-4.99Q76.93-4.99 74.27-7.39L74.27-7.39L74.27-7.39Q71.62-9.79 71.62-13.63L71.62-13.63ZM132.16 7.62L111.94 7.62L111.94 7.62Q110.40 7.62 109.70 6.91L109.70 6.91L109.70 6.91Q108.99 6.21 108.99 4.67L108.99 4.67L108.99-2.82L108.99-2.82Q108.99-3.65 109.22-4.22L109.22-4.22L109.22-4.22Q109.44-4.80 109.89-5.18L109.89-5.18L116.29-10.56L116.29-10.56Q112.90-11.58 110.94-14.05L110.94-14.05L110.94-14.05Q108.99-16.51 108.99-21.12L108.99-21.12L108.99-27.84L108.99-27.84Q108.99-30.72 109.95-32.96L109.95-32.96L109.95-32.96Q110.91-35.20 112.70-36.74L112.70-36.74L121.02-43.71L121.02-43.71Q122.75-45.12 125.31-45.92L125.31-45.92L125.31-45.92Q127.87-46.72 131.14-46.72L131.14-46.72L149.06-46.72L149.06-46.72Q150.59-46.72 151.30-46.02L151.30-46.02L151.30-46.02Q152-45.31 152-43.78L152-43.78L152-36.16L152-36.16Q152-35.33 151.78-34.75L151.78-34.75L151.78-34.75Q151.55-34.18 151.10-33.79L151.10-33.79L145.34-28.99L145.34-28.99Q149.38-28.10 151.84-25.63L151.84-25.63L151.84-25.63Q154.30-23.17 154.30-17.98L154.30-17.98L154.30-11.26L154.30-11.26Q154.30-8.38 153.34-6.14L153.34-6.14L153.34-6.14Q152.38-3.90 150.53-2.37L150.53-2.37L142.27 4.54L142.27 4.54Q140.48 6.02 137.92 6.82L137.92 6.82L137.92 6.82Q135.36 7.62 132.16 7.62L132.16 7.62ZM120.19 0L140.42 0L140.42 0Q146.56 0 150.11-2.91L150.11-2.91L150.11-2.91Q153.66-5.82 153.66-11.26L153.66-11.26L153.66-17.98L153.66-17.98Q153.66-23.36 150.91-25.66L150.91-25.66L150.91-25.66Q148.16-27.97 143.68-28.61L143.68-28.61L134.14-29.89L134.14-29.89Q133.31-29.95 132.86-30.53L132.86-30.53L132.86-30.53Q132.42-31.10 132.42-31.94L132.42-31.94L132.42-31.94Q132.42-32.77 132.86-33.31L132.86-33.31L132.86-33.31Q133.31-33.86 134.14-33.86L134.14-33.86L149.06-33.86L149.06-33.86Q150.27-33.86 150.82-34.40L150.82-34.40L150.82-34.40Q151.36-34.94 151.36-36.16L151.36-36.16L151.36-43.78L151.36-43.78Q151.36-44.99 150.82-45.54L150.82-45.54L150.82-45.54Q150.27-46.08 149.06-46.08L149.06-46.08L131.14-46.08L131.14-46.08Q124.93-46.08 121.41-43.17L121.41-43.17L121.41-43.17Q117.89-40.26 117.89-34.82L117.89-34.82L117.89-28.10L117.89-28.10Q117.89-22.72 120.61-20.42L120.61-20.42L120.61-20.42Q123.33-18.11 127.81-17.47L127.81-17.47L137.41-16.13L137.41-16.13Q138.24-16.06 138.66-15.55L138.66-15.55L138.66-15.55Q139.07-15.04 139.07-13.95L139.07-13.95L139.07-13.95Q139.07-13.18 138.66-12.64L138.66-12.64L138.66-12.64Q138.24-12.10 137.41-12.10L137.41-12.10L120.19-12.10L120.19-12.10Q118.98-12.10 118.43-11.55L118.43-11.55L118.43-11.55Q117.89-11.01 117.89-9.79L117.89-9.79L117.89-2.30L117.89-2.30Q117.89-1.09 118.43-0.54L118.43-0.54L118.43-0.54Q118.98 0 120.19 0L120.19 0ZM131.39-40.32L145.60-40.32L145.60-39.68L131.39-39.68L131.39-39.68Q128.70-39.68 127.10-38.21L127.10-38.21L127.10-38.21Q125.50-36.74 125.50-34.50L125.50-34.50L125.50-29.25L125.50-29.25Q125.50-27.01 126.40-26.11L126.40-26.11L126.40-26.11Q127.30-25.22 128.77-24.96L128.77-24.96L142.27-22.21L142.27-22.21Q144.19-21.82 145.44-20.54L145.44-20.54L145.44-20.54Q146.69-19.26 146.69-15.94L146.69-15.94L146.69-12.22L146.69-12.22Q146.69-9.41 144.77-7.58L144.77-7.58L144.77-7.58Q142.85-5.76 139.58-5.76L139.58-5.76L123.65-5.76L123.65-6.40L139.58-6.40L139.58-6.40Q142.53-6.40 144.29-8.03L144.29-8.03L144.29-8.03Q146.05-9.66 146.05-12.22L146.05-12.22L146.05-15.94L146.05-15.94Q146.05-18.94 144.99-20.06L144.99-20.06L144.99-20.06Q143.94-21.18 142.14-21.57L142.14-21.57L128.64-24.32L128.64-24.32Q126.98-24.64 125.92-25.63L125.92-25.63L125.92-25.63Q124.86-26.62 124.86-29.25L124.86-29.25L124.86-34.50L124.86-34.50Q124.86-37.06 126.66-38.69L126.66-38.69L126.66-38.69Q128.45-40.32 131.39-40.32L131.39-40.32ZM180.54 7.62L180.54 7.62L170.18 7.62L170.18 7.62Q168.64 7.62 167.94 6.91L167.94 6.91L167.94 6.91Q167.23 6.21 167.23 4.67L167.23 4.67L167.23-26.11L158.46-26.11L158.46-26.11Q156.93-26.11 156.22-26.82L156.22-26.82L156.22-26.82Q155.52-27.52 155.52-29.06L155.52-29.06L155.52-36.80L155.52-36.80Q155.52-37.63 155.74-38.21L155.74-38.21L155.74-38.21Q155.97-38.78 156.42-39.17L156.42-39.17L164.67-46.14L164.67-46.14Q164.99-46.40 165.54-46.56L165.54-46.56L165.54-46.56Q166.08-46.72 166.72-46.72L166.72-46.72L200.51-46.72L200.51-46.72Q202.05-46.72 202.75-46.02L202.75-46.02L202.75-46.02Q203.46-45.31 203.46-43.78L203.46-43.78L203.46-36.03L203.46-36.03Q203.46-35.20 203.23-34.62L203.23-34.62L203.23-34.62Q203.01-34.05 202.56-33.66L202.56-33.66L194.24-26.75L194.24-26.75Q193.98-26.50 193.44-26.30L193.44-26.30L193.44-26.30Q192.90-26.11 192.26-26.11L192.26-26.11L191.74-26.11L191.74-2.30L191.74-2.30Q191.74-1.47 191.52-0.90L191.52-0.90L191.52-0.90Q191.30-0.32 190.85 0.06L190.85 0.06L182.53 6.98L182.53 6.98Q182.27 7.23 181.73 7.42L181.73 7.42L181.73 7.42Q181.18 7.62 180.54 7.62ZM178.43 0L188.80 0L188.80 0Q190.02 0 190.56-0.54L190.56-0.54L190.56-0.54Q191.10-1.09 191.10-2.30L191.10-2.30L191.10-33.73L200.51-33.73L200.51-33.73Q201.73-33.73 202.27-34.27L202.27-34.27L202.27-34.27Q202.82-34.82 202.82-36.03L202.82-36.03L202.82-43.78L202.82-43.78Q202.82-44.99 202.27-45.54L202.27-45.54L202.27-45.54Q201.73-46.08 200.51-46.08L200.51-46.08L166.72-46.08L166.72-46.08Q165.50-46.08 164.96-45.54L164.96-45.54L164.96-45.54Q164.42-44.99 164.42-43.78L164.42-43.78L164.42-36.03L164.42-36.03Q164.42-34.82 164.96-34.27L164.96-34.27L164.96-34.27Q165.50-33.73 166.72-33.73L166.72-33.73L176.13-33.73L176.13-2.30L176.13-2.30Q176.13-1.09 176.67-0.54L176.67-0.54L176.67-0.54Q177.22 0 178.43 0L178.43 0ZM183.94-5.76L183.30-5.76L183.30-39.68L170.18-39.68L170.18-40.32L197.06-40.32L197.06-39.68L183.94-39.68L183.94-5.76ZM235.71 7.62L235.71 7.62L208.45 7.62L208.45 7.62Q206.91 7.62 206.21 6.91L206.21 6.91L206.21 6.91Q205.50 6.21 205.50 4.67L205.50 4.67L205.50-2.94L205.50-2.94Q205.50-3.78 205.73-4.35L205.73-4.35L205.73-4.35Q205.95-4.93 206.40-5.31L206.40-5.31L214.14-11.84L214.14-26.11L208.45-26.11L208.45-26.11Q206.91-26.11 206.21-26.82L206.21-26.82L206.21-26.82Q205.50-27.52 205.50-29.06L205.50-29.06L205.50-36.80L205.50-36.80Q205.50-37.63 205.73-38.21L205.73-38.21L205.73-38.21Q205.95-38.78 206.40-39.17L206.40-39.17L214.66-46.14L214.66-46.14Q214.98-46.40 215.52-46.56L215.52-46.56L215.52-46.56Q216.06-46.72 216.70-46.72L216.70-46.72L243.97-46.72L243.97-46.72Q245.50-46.72 246.21-46.02L246.21-46.02L246.21-46.02Q246.91-45.31 246.91-43.78L246.91-43.78L246.91-36.03L246.91-36.03Q246.91-35.20 246.69-34.62L246.69-34.62L246.69-34.62Q246.46-34.05 246.02-33.66L246.02-33.66L238.40-27.26L238.40-12.86L243.97-12.86L243.97-12.86Q245.50-12.86 246.21-12.16L246.21-12.16L246.21-12.16Q246.91-11.46 246.91-9.92L246.91-9.92L246.91-2.30L246.91-2.30Q246.91-1.47 246.69-0.90L246.69-0.90L246.69-0.90Q246.46-0.32 246.02 0.06L246.02 0.06L237.70 6.98L237.70 6.98Q237.44 7.23 236.90 7.42L236.90 7.42L236.90 7.42Q236.35 7.62 235.71 7.62ZM216.70 0L216.70 0L243.97 0L243.97 0Q245.18 0 245.73-0.54L245.73-0.54L245.73-0.54Q246.27-1.09 246.27-2.30L246.27-2.30L246.27-9.92L246.27-9.92Q246.27-11.14 245.73-11.68L245.73-11.68L245.73-11.68Q245.18-12.22 243.97-12.22L243.97-12.22L237.76-12.22L237.76-33.73L243.97-33.73L243.97-33.73Q245.18-33.73 245.73-34.27L245.73-34.27L245.73-34.27Q246.27-34.82 246.27-36.03L246.27-36.03L246.27-43.78L246.27-43.78Q246.27-44.99 245.73-45.54L245.73-45.54L245.73-45.54Q245.18-46.08 243.97-46.08L243.97-46.08L216.70-46.08L216.70-46.08Q215.49-46.08 214.94-45.54L214.94-45.54L214.94-45.54Q214.40-44.99 214.40-43.78L214.40-43.78L214.40-36.03L214.40-36.03Q214.40-34.82 214.94-34.27L214.94-34.27L214.94-34.27Q215.49-33.73 216.70-33.73L216.70-33.73L223.04-33.73L223.04-12.22L216.70-12.22L216.70-12.22Q215.49-12.22 214.94-11.68L214.94-11.68L214.94-11.68Q214.40-11.14 214.40-9.92L214.40-9.92L214.40-2.30L214.40-2.30Q214.40-1.09 214.94-0.54L214.94-0.54L214.94-0.54Q215.49 0 216.70 0ZM240.51-6.40L240.51-5.76L220.16-5.76L220.16-6.40L230.08-6.40L230.08-39.68L220.16-39.68L220.16-40.32L240.51-40.32L240.51-39.68L230.72-39.68L230.72-6.40L240.51-6.40ZM268.99-39.81L268.99-39.81L292.54-13.31L292.54-40.32L293.18-40.32L293.18-5.76L292.54-5.76L292.54-12.35L268.35-39.49L268.35-39.49Q268.29-39.55 268.19-39.62L268.19-39.62L268.19-39.62Q268.10-39.68 268.03-39.68L268.03-39.68L268.03-39.68Q267.97-39.68 267.94-39.62L267.94-39.62L267.94-39.62Q267.90-39.55 267.90-39.49L267.90-39.49L267.90-5.76L267.26-5.76L267.26-39.62L267.26-39.62Q267.26-40 267.52-40.19L267.52-40.19L267.52-40.19Q267.78-40.38 268.03-40.38L268.03-40.38L268.03-40.38Q268.29-40.38 268.48-40.26L268.48-40.26L268.48-40.26Q268.67-40.13 268.99-39.81ZM262.85 0L272.45 0L272.45 0Q273.66 0 274.21-0.54L274.21-0.54L274.21-0.54Q274.75-1.09 274.75-2.30L274.75-2.30L274.75-23.42L285.70-10.18L285.70-2.30L285.70-2.30Q285.70-1.09 286.24-0.54L286.24-0.54L286.24-0.54Q286.78 0 288 0L288 0L297.60 0L297.60 0Q298.82 0 299.36-0.54L299.36-0.54L299.36-0.54Q299.90-1.09 299.90-2.30L299.90-2.30L299.90-43.78L299.90-43.78Q299.90-44.99 299.36-45.54L299.36-45.54L299.36-45.54Q298.82-46.08 297.60-46.08L297.60-46.08L288-46.08L288-46.08Q286.78-46.08 286.24-45.54L286.24-45.54L286.24-45.54Q285.70-44.99 285.70-43.78L285.70-43.78L285.70-30.14L273.28-44.35L273.28-44.35Q272.45-45.31 271.58-45.70L271.58-45.70L271.58-45.70Q270.72-46.08 269.50-46.08L269.50-46.08L262.85-46.08L262.85-46.08Q261.63-46.08 261.09-45.54L261.09-45.54L261.09-45.54Q260.54-44.99 260.54-43.78L260.54-43.78L260.54-2.30L260.54-2.30Q260.54-1.09 261.09-0.54L261.09-0.54L261.09-0.54Q261.63 0 262.85 0L262.85 0ZM274.50 0.06L274.50 0.06L266.18 6.98L266.18 6.98Q265.92 7.23 265.38 7.42L265.38 7.42L265.38 7.42Q264.83 7.62 264.19 7.62L264.19 7.62L254.59 7.62L254.59 7.62Q253.06 7.62 252.35 6.91L252.35 6.91L252.35 6.91Q251.65 6.21 251.65 4.67L251.65 4.67L251.65-36.80L251.65-36.80Q251.65-37.63 251.87-38.21L251.87-38.21L251.87-38.21Q252.10-38.78 252.54-39.17L252.54-39.17L260.80-46.14L260.80-46.14Q261.12-46.40 261.66-46.56L261.66-46.56L261.66-46.56Q262.21-46.72 262.85-46.72L262.85-46.72L269.50-46.72L269.50-46.72Q270.91-46.72 271.87-46.27L271.87-46.27L271.87-46.27Q272.83-45.82 273.79-44.80L273.79-44.80L278.21-39.68L285.95-46.14L285.95-46.14Q286.27-46.40 286.82-46.56L286.82-46.56L286.82-46.56Q287.36-46.72 288-46.72L288-46.72L297.60-46.72L297.60-46.72Q299.14-46.72 299.84-46.02L299.84-46.02L299.84-46.02Q300.54-45.31 300.54-43.78L300.54-43.78L300.54-2.30L300.54-2.30Q300.54-1.47 300.32-0.90L300.32-0.90L300.32-0.90Q300.10-0.32 299.65 0.06L299.65 0.06L291.33 6.98L291.33 6.98Q291.07 7.23 290.53 7.42L290.53 7.42L290.53 7.42Q289.98 7.62 289.34 7.62L289.34 7.62L279.74 7.62L279.74 7.62Q278.21 7.62 277.50 6.91L277.50 6.91L277.50 6.91Q276.80 6.21 276.80 4.67L276.80 4.67L276.80-2.94L275.39-4.67L275.39-2.30L275.39-2.30Q275.39-1.47 275.17-0.90L275.17-0.90L275.17-0.90Q274.94-0.32 274.50 0.06ZM362.56 7.62L362.56 7.62L329.98 7.62L329.98 7.62Q328.45 7.62 327.74 6.91L327.74 6.91L327.74 6.91Q327.04 6.21 327.04 4.67L327.04 4.67L327.04-36.80L327.04-36.80Q327.04-37.63 327.26-38.21L327.26-38.21L327.26-38.21Q327.49-38.78 327.94-39.17L327.94-39.17L336.19-46.14L336.19-46.14Q336.51-46.40 337.06-46.56L337.06-46.56L337.06-46.56Q337.60-46.72 338.24-46.72L338.24-46.72L348.16-46.72L348.16-46.72Q349.70-46.72 350.40-46.02L350.40-46.02L350.40-46.02Q351.10-45.31 351.10-43.78L351.10-43.78L351.10-17.73L351.23-17.86L359.49-24.83L359.49-24.83Q359.81-25.09 360.35-25.25L360.35-25.25L360.35-25.25Q360.90-25.41 361.54-25.41L361.54-25.41L370.82-25.41L370.82-25.41Q372.35-25.41 373.06-24.70L373.06-24.70L373.06-24.70Q373.76-24 373.76-22.46L373.76-22.46L373.76-2.30L373.76-2.30Q373.76-1.47 373.54-0.90L373.54-0.90L373.54-0.90Q373.31-0.32 372.86 0.06L372.86 0.06L364.54 6.98L364.54 6.98Q364.29 7.23 363.74 7.42L363.74 7.42L363.74 7.42Q363.20 7.62 362.56 7.62ZM338.24 0L370.82 0L370.82 0Q372.03 0 372.58-0.54L372.58-0.54L372.58-0.54Q373.12-1.09 373.12-2.30L373.12-2.30L373.12-22.46L373.12-22.46Q373.12-23.68 372.58-24.22L372.58-24.22L372.58-24.22Q372.03-24.77 370.82-24.77L370.82-24.77L361.54-24.77L361.54-24.77Q360.32-24.77 359.78-24.22L359.78-24.22L359.78-24.22Q359.23-23.68 359.23-22.46L359.23-22.46L359.23-12.10L350.46-12.10L350.46-43.78L350.46-43.78Q350.46-44.99 349.92-45.54L349.92-45.54L349.92-45.54Q349.38-46.08 348.16-46.08L348.16-46.08L338.24-46.08L338.24-46.08Q337.02-46.08 336.48-45.54L336.48-45.54L336.48-45.54Q335.94-44.99 335.94-43.78L335.94-43.78L335.94-2.30L335.94-2.30Q335.94-1.09 336.48-0.54L336.48-0.54L336.48-0.54Q337.02 0 338.24 0L338.24 0ZM366.46-5.76L342.91-5.76L342.91-40.32L343.55-40.32L343.55-6.40L365.82-6.40L365.82-19.01L366.46-19.01L366.46-5.76ZM393.28-19.39L393.28-19.39L393.28-17.41L418.24-17.41L418.24-19.39L418.24-19.39Q418.24-21.12 417.95-22.59L417.95-22.59L417.95-22.59Q417.66-24.06 417.22-25.34L417.22-25.34L412.80-35.78L412.80-35.78Q412.10-37.44 411.33-38.56L411.33-38.56L411.33-38.56Q410.56-39.68 408.77-39.68L408.77-39.68L402.50-39.68L402.50-39.68Q400.58-39.68 399.81-38.56L399.81-38.56L399.81-38.56Q399.04-37.44 398.40-35.84L398.40-35.84L394.30-25.34L394.30-25.34Q393.86-24.06 393.57-22.59L393.57-22.59L393.57-22.59Q393.28-21.12 393.28-19.39ZM400.51-22.91L403.52-32.64L403.52-32.64Q403.78-33.22 404.06-33.47L404.06-33.47L404.06-33.47Q404.35-33.73 404.74-33.73L404.74-33.73L406.34-33.73L406.34-33.73Q406.72-33.73 407.01-33.47L407.01-33.47L407.01-33.47Q407.30-33.22 407.55-32.64L407.55-32.64L410.56-22.91L400.51-22.91ZM418.88-5.76L418.24-5.76L418.24-16.77L393.28-16.77L393.28-5.76L392.64-5.76L392.64-19.39L392.64-19.39Q392.64-21.18 392.93-22.69L392.93-22.69L392.93-22.69Q393.22-24.19 393.73-25.60L393.73-25.60L397.82-36.10L397.82-36.10Q398.53-37.89 399.42-39.10L399.42-39.10L399.42-39.10Q400.32-40.32 402.50-40.32L402.50-40.32L408.77-40.32L408.77-40.32Q410.88-40.32 411.74-39.10L411.74-39.10L411.74-39.10Q412.61-37.89 413.38-36.03L413.38-36.03L417.79-25.60L417.79-25.60Q418.30-24.19 418.59-22.69L418.59-22.69L418.59-22.69Q418.88-21.18 418.88-19.39L418.88-19.39L418.88-5.76ZM399.87-2.30L399.87-2.30L399.87-11.26L411.20-11.26L411.20-2.30L411.20-2.30Q411.20-1.09 411.81-0.54L411.81-0.54L411.81-0.54Q412.42 0 413.70 0L413.70 0L423.36 0L423.36 0Q424.58 0 425.12-0.54L425.12-0.54L425.12-0.54Q425.66-1.09 425.66-2.30L425.66-2.30L425.66-19.20L425.66-19.20Q425.66-21.12 425.06-23.62L425.06-23.62L425.06-23.62Q424.45-26.11 423.17-29.44L423.17-29.44L417.60-43.97L417.60-43.97Q417.22-45.06 416.42-45.57L416.42-45.57L416.42-45.57Q415.62-46.08 414.40-46.08L414.40-46.08L397.18-46.08L397.18-46.08Q395.90-46.08 395.10-45.57L395.10-45.57L395.10-45.57Q394.30-45.06 393.92-43.97L393.92-43.97L388.35-29.44L388.35-29.44Q387.07-26.11 386.46-23.62L386.46-23.62L386.46-23.62Q385.86-21.12 385.86-19.20L385.86-19.20L385.86-2.30L385.86-2.30Q385.86-1.09 386.40-0.54L386.40-0.54L386.40-0.54Q386.94 0 388.16 0L388.16 0L397.57 0L397.57 0Q398.78 0 399.33-0.54L399.33-0.54L399.33-0.54Q399.87-1.09 399.87-2.30ZM399.62 0.06L391.30 6.98L391.30 6.98Q391.04 7.23 390.50 7.42L390.50 7.42L390.50 7.42Q389.95 7.62 389.31 7.62L389.31 7.62L379.90 7.62L379.90 7.62Q378.37 7.62 377.66 6.91L377.66 6.91L377.66 6.91Q376.96 6.21 376.96 4.67L376.96 4.67L376.96-12.22L376.96-12.22Q376.96-14.21 377.57-16.74L377.57-16.74L377.57-16.74Q378.18-19.26 379.52-22.72L379.52-22.72L385.02-37.18L385.02-37.18Q385.22-37.76 385.50-38.18L385.50-38.18L385.50-38.18Q385.79-38.59 386.11-38.91L386.11-38.91L386.18-38.98L394.37-45.82L394.37-45.82Q394.88-46.27 395.58-46.50L395.58-46.50L395.58-46.50Q396.29-46.72 397.18-46.72L397.18-46.72L414.40-46.72L414.40-46.72Q415.87-46.72 416.80-46.11L416.80-46.11L416.80-46.11Q417.73-45.50 418.18-44.22L418.18-44.22L423.74-29.70L423.74-29.70Q425.09-26.24 425.70-23.71L425.70-23.71L425.70-23.71Q426.30-21.18 426.30-19.20L426.30-19.20L426.30-2.30L426.30-2.30Q426.30-1.47 426.08-0.90L426.08-0.90L426.08-0.90Q425.86-0.32 425.41 0.06L425.41 0.06L417.09 6.98L417.09 6.98Q416.83 7.23 416.29 7.42L416.29 7.42L416.29 7.42Q415.74 7.62 415.10 7.62L415.10 7.62L405.44 7.62L405.44 7.62Q403.84 7.62 403.07 6.88L403.07 6.88L403.07 6.88Q402.30 6.14 402.30 4.67L402.30 4.67L402.30-3.65L400.51-3.65L400.51-2.30L400.51-2.30Q400.51-1.47 400.29-0.90L400.29-0.90L400.29-0.90Q400.06-0.32 399.62 0.06L399.62 0.06ZM461.38-22.08L462.98-22.08L462.98-22.08Q464-22.08 464.61-21.47L464.61-21.47L464.61-21.47Q465.22-20.86 466.11-19.07L466.11-19.07L472-7.30L472-7.30Q472.32-6.66 472.80-6.53L472.80-6.53L472.80-6.53Q473.28-6.40 473.73-6.40L473.73-6.40L474.05-6.40L474.05-6.40Q474.56-6.40 475.01-6.82L475.01-6.82L475.01-6.82Q475.46-7.23 475.52-7.74L475.52-7.74L477.12-15.04L477.12-15.04Q477.38-16.26 477.41-18.18L477.41-18.18L477.41-18.18Q477.44-20.10 477.44-21.50L477.44-21.50L477.44-40.32L478.08-40.32L478.08-21.44L478.08-21.44Q478.08-20.03 478.05-18.11L478.05-18.11L478.05-18.11Q478.02-16.19 477.76-14.98L477.76-14.98L476.16-7.74L476.16-7.74Q475.90-6.72 475.36-6.24L475.36-6.24L475.36-6.24Q474.82-5.76 474.05-5.76L474.05-5.76L473.60-5.76L473.60-5.76Q473.02-5.76 472.42-5.98L472.42-5.98L472.42-5.98Q471.81-6.21 471.49-6.85L471.49-6.85L465.60-18.75L465.60-18.75Q464.77-20.42 464.26-20.93L464.26-20.93L464.26-20.93Q463.74-21.44 462.98-21.44L462.98-21.44L461.38-21.44L461.38-21.44Q460.61-21.44 460.10-20.93L460.10-20.93L460.10-20.93Q459.58-20.42 458.75-18.75L458.75-18.75L452.86-6.85L452.86-6.85Q452.54-6.21 451.94-5.98L451.94-5.98L451.94-5.98Q451.33-5.76 450.75-5.76L450.75-5.76L450.30-5.76L450.30-5.76Q449.54-5.76 448.99-6.24L448.99-6.24L448.99-6.24Q448.45-6.72 448.19-7.74L448.19-7.74L446.59-14.98L446.59-14.98Q446.34-16.19 446.30-18.11L446.30-18.11L446.30-18.11Q446.27-20.03 446.27-21.44L446.27-21.44L446.27-40.32L446.91-40.32L446.91-21.50L446.91-21.50Q446.91-20.10 446.94-18.18L446.94-18.18L446.94-18.18Q446.98-16.26 447.23-15.04L447.23-15.04L448.83-7.74L448.83-7.74Q448.90-7.23 449.34-6.82L449.34-6.82L449.34-6.82Q449.79-6.40 450.30-6.40L450.30-6.40L450.62-6.40L450.62-6.40Q451.07-6.40 451.55-6.53L451.55-6.53L451.55-6.53Q452.03-6.66 452.35-7.30L452.35-7.30L458.24-19.07L458.24-19.07Q459.14-20.86 459.74-21.47L459.74-21.47L459.74-21.47Q460.35-22.08 461.38-22.08L461.38-22.08ZM482.56-46.08L473.02-46.08L473.02-46.08Q471.81-46.08 471.26-45.54L471.26-45.54L471.26-45.54Q470.72-44.99 470.72-43.78L470.72-43.78L470.72-20.22L467.01-28.29L467.01-28.29Q466.50-29.38 465.66-29.82L465.66-29.82L465.66-29.82Q464.83-30.27 463.62-30.27L463.62-30.27L460.93-30.27L460.93-30.27Q459.71-30.27 458.88-29.82L458.88-29.82L458.88-29.82Q458.05-29.38 457.54-28.29L457.54-28.29L453.82-20.22L453.82-43.78L453.82-43.78Q453.82-44.99 453.28-45.54L453.28-45.54L453.28-45.54Q452.74-46.08 451.52-46.08L451.52-46.08L441.66-46.08L441.66-46.08Q440.45-46.08 439.90-45.54L439.90-45.54L439.90-45.54Q439.36-44.99 439.36-43.78L439.36-43.78L439.36-19.07L439.36-19.07Q439.36-17.02 439.52-15.26L439.52-15.26L439.52-15.26Q439.68-13.50 440.51-11.14L440.51-11.14L443.71-2.30L443.71-2.30Q444.03-1.28 444.77-0.64L444.77-0.64L444.77-0.64Q445.50 0 446.53 0L446.53 0L454.98 0L454.98 0Q456 0 456.70-0.48L456.70-0.48L456.70-0.48Q457.41-0.96 457.66-1.92L457.66-1.92L460.67-12.35L460.67-12.35Q460.86-12.99 461.15-13.22L461.15-13.22L461.15-13.22Q461.44-13.44 461.82-13.44L461.82-13.44L462.40-13.44L462.40-13.44Q462.78-13.44 463.07-13.22L463.07-13.22L463.07-13.22Q463.36-12.99 463.55-12.35L463.55-12.35L466.50-1.92L466.50-1.92Q466.75-0.90 467.58-0.45L467.58-0.45L467.58-0.45Q468.42 0 469.44 0L469.44 0L477.95 0L477.95 0Q478.98 0 479.58-0.67L479.58-0.67L479.58-0.67Q480.19-1.34 480.51-2.30L480.51-2.30L483.71-11.01L483.71-11.01Q484.54-13.38 484.70-15.14L484.70-15.14L484.70-15.14Q484.86-16.90 484.86-18.94L484.86-18.94L484.86-43.78L484.86-43.78Q484.86-44.99 484.32-45.54L484.32-45.54L484.32-45.54Q483.78-46.08 482.56-46.08L482.56-46.08ZM456.32 0.70L448.96 6.85L448.96 6.85Q448.51 7.17 447.94 7.39L447.94 7.39L447.94 7.39Q447.36 7.62 446.72 7.62L446.72 7.62L438.27 7.62L438.27 7.62Q437.06 7.62 436.16 6.85L436.16 6.85L436.16 6.85Q435.26 6.08 434.88 4.86L434.88 4.86L431.68-3.97L431.68-3.97Q430.78-6.34 430.62-8.16L430.62-8.16L430.62-8.16Q430.46-9.98 430.46-12.10L430.46-12.10L430.46-36.80L430.46-36.80Q430.46-37.63 430.69-38.21L430.69-38.21L430.69-38.21Q430.91-38.78 431.36-39.17L431.36-39.17L439.62-46.14L439.62-46.14Q439.94-46.40 440.48-46.56L440.48-46.56L440.48-46.56Q441.02-46.72 441.66-46.72L441.66-46.72L451.52-46.72L451.52-46.72Q453.06-46.72 453.76-46.02L453.76-46.02L453.76-46.02Q454.46-45.31 454.46-43.78L454.46-43.78L454.46-27.07L458.05-30.08L458.05-30.08Q458.56-30.53 459.30-30.72L459.30-30.72L459.30-30.72Q460.03-30.91 460.93-30.91L460.93-30.91L461.82-30.91L461.82-36.80L461.82-36.80Q461.82-37.63 462.02-38.21L462.02-38.21L462.02-38.21Q462.21-38.78 462.59-39.10L462.59-39.10L462.66-39.17L470.98-46.14L470.98-46.14Q471.30-46.40 471.81-46.56L471.81-46.56L471.81-46.56Q472.32-46.72 473.02-46.72L473.02-46.72L482.56-46.72L482.56-46.72Q484.10-46.72 484.80-46.02L484.80-46.02L484.80-46.02Q485.50-45.31 485.50-43.78L485.50-43.78L485.50-18.94L485.50-18.94Q485.50-16.83 485.34-15.01L485.34-15.01L485.34-15.01Q485.18-13.18 484.29-10.82L484.29-10.82L481.09-2.11L481.09-2.11Q480.90-1.47 480.58-0.96L480.58-0.96L480.58-0.96Q480.26-0.45 479.81 0L479.81 0L471.55 6.85L471.55 6.85Q471.17 7.23 470.72 7.42L470.72 7.42L470.72 7.42Q470.27 7.62 469.70 7.62L469.70 7.62L461.18 7.62L461.18 7.62Q459.90 7.62 458.94 7.04L458.94 7.04L458.94 7.04Q457.98 6.46 457.60 5.25L457.60 5.25L456.32 0.70ZM507.97-39.81L507.97-39.81L531.52-13.31L531.52-40.32L532.16-40.32L532.16-5.76L531.52-5.76L531.52-12.35L507.33-39.49L507.33-39.49Q507.26-39.55 507.17-39.62L507.17-39.62L507.17-39.62Q507.07-39.68 507.01-39.68L507.01-39.68L507.01-39.68Q506.94-39.68 506.91-39.62L506.91-39.62L506.91-39.62Q506.88-39.55 506.88-39.49L506.88-39.49L506.88-5.76L506.24-5.76L506.24-39.62L506.24-39.62Q506.24-40 506.50-40.19L506.50-40.19L506.50-40.19Q506.75-40.38 507.01-40.38L507.01-40.38L507.01-40.38Q507.26-40.38 507.46-40.26L507.46-40.26L507.46-40.26Q507.65-40.13 507.97-39.81ZM501.82 0L511.42 0L511.42 0Q512.64 0 513.18-0.54L513.18-0.54L513.18-0.54Q513.73-1.09 513.73-2.30L513.73-2.30L513.73-23.42L524.67-10.18L524.67-2.30L524.67-2.30Q524.67-1.09 525.22-0.54L525.22-0.54L525.22-0.54Q525.76 0 526.98 0L526.98 0L536.58 0L536.58 0Q537.79 0 538.34-0.54L538.34-0.54L538.34-0.54Q538.88-1.09 538.88-2.30L538.88-2.30L538.88-43.78L538.88-43.78Q538.88-44.99 538.34-45.54L538.34-45.54L538.34-45.54Q537.79-46.08 536.58-46.08L536.58-46.08L526.98-46.08L526.98-46.08Q525.76-46.08 525.22-45.54L525.22-45.54L525.22-45.54Q524.67-44.99 524.67-43.78L524.67-43.78L524.67-30.14L512.26-44.35L512.26-44.35Q511.42-45.31 510.56-45.70L510.56-45.70L510.56-45.70Q509.70-46.08 508.48-46.08L508.48-46.08L501.82-46.08L501.82-46.08Q500.61-46.08 500.06-45.54L500.06-45.54L500.06-45.54Q499.52-44.99 499.52-43.78L499.52-43.78L499.52-2.30L499.52-2.30Q499.52-1.09 500.06-0.54L500.06-0.54L500.06-0.54Q500.61 0 501.82 0L501.82 0ZM513.47 0.06L513.47 0.06L505.15 6.98L505.15 6.98Q504.90 7.23 504.35 7.42L504.35 7.42L504.35 7.42Q503.81 7.62 503.17 7.62L503.17 7.62L493.57 7.62L493.57 7.62Q492.03 7.62 491.33 6.91L491.33 6.91L491.33 6.91Q490.62 6.21 490.62 4.67L490.62 4.67L490.62-36.80L490.62-36.80Q490.62-37.63 490.85-38.21L490.85-38.21L490.85-38.21Q491.07-38.78 491.52-39.17L491.52-39.17L499.78-46.14L499.78-46.14Q500.10-46.40 500.64-46.56L500.64-46.56L500.64-46.56Q501.18-46.72 501.82-46.72L501.82-46.72L508.48-46.72L508.48-46.72Q509.89-46.72 510.85-46.27L510.85-46.27L510.85-46.27Q511.81-45.82 512.77-44.80L512.77-44.80L517.18-39.68L524.93-46.14L524.93-46.14Q525.25-46.40 525.79-46.56L525.79-46.56L525.79-46.56Q526.34-46.72 526.98-46.72L526.98-46.72L536.58-46.72L536.58-46.72Q538.11-46.72 538.82-46.02L538.82-46.02L538.82-46.02Q539.52-45.31 539.52-43.78L539.52-43.78L539.52-2.30L539.52-2.30Q539.52-1.47 539.30-0.90L539.30-0.90L539.30-0.90Q539.07-0.32 538.62 0.06L538.62 0.06L530.30 6.98L530.30 6.98Q530.05 7.23 529.50 7.42L529.50 7.42L529.50 7.42Q528.96 7.62 528.32 7.62L528.32 7.62L518.72 7.62L518.72 7.62Q517.18 7.62 516.48 6.91L516.48 6.91L516.48 6.91Q515.78 6.21 515.78 4.67L515.78 4.67L515.78-2.94L514.37-4.67L514.37-2.30L514.37-2.30Q514.37-1.47 514.14-0.90L514.14-0.90L514.14-0.90Q513.92-0.32 513.47 0.06ZM601.86 7.62L601.86 7.62L581.70 7.62L581.70 7.62Q573.31 7.62 569.31 3.26L569.31 3.26L569.31 3.26Q565.31-1.09 565.31-8L565.31-8L565.31-26.05L565.31-26.05Q565.31-29.57 566.34-32.13L566.34-32.13L566.34-32.13Q567.36-34.69 569.34-36.42L569.34-36.42L577.60-43.39L577.60-43.39Q579.58-45.06 582.69-45.89L582.69-45.89L582.69-45.89Q585.79-46.72 589.95-46.72L589.95-46.72L605.95-46.72L605.95-46.72Q607.49-46.72 608.19-46.02L608.19-46.02L608.19-46.02Q608.90-45.31 608.90-43.78L608.90-43.78L608.90-36.03L608.90-36.03Q608.90-35.20 608.67-34.62L608.67-34.62L608.67-34.62Q608.45-34.05 608-33.66L608-33.66L599.68-26.75L599.68-26.75Q599.42-26.50 598.88-26.30L598.88-26.30L598.88-26.30Q598.34-26.11 597.70-26.11L597.70-26.11L589.38-26.11L589.38-16.90L589.38-16.90Q589.44-17.02 589.60-17.18L589.60-17.18L589.60-17.18Q589.76-17.34 589.89-17.47L589.89-17.47L598.14-24.45L598.14-24.45Q598.46-24.70 599.01-24.86L599.01-24.86L599.01-24.86Q599.55-25.02 600.19-25.02L600.19-25.02L610.11-25.02L610.11-25.02Q611.65-25.02 612.35-24.32L612.35-24.32L612.35-24.32Q613.06-23.62 613.06-22.08L613.06-22.08L613.06-2.30L613.06-2.30Q613.06-1.47 612.83-0.90L612.83-0.90L612.83-0.90Q612.61-0.32 612.16 0.06L612.16 0.06L603.84 6.98L603.84 6.98Q603.58 7.23 603.04 7.42L603.04 7.42L603.04 7.42Q602.50 7.62 601.86 7.62ZM589.95 0L610.11 0L610.11 0Q611.33 0 611.87-0.54L611.87-0.54L611.87-0.54Q612.42-1.09 612.42-2.30L612.42-2.30L612.42-22.08L612.42-22.08Q612.42-23.30 611.87-23.84L611.87-23.84L611.87-23.84Q611.33-24.38 610.11-24.38L610.11-24.38L600.19-24.38L600.19-24.38Q598.98-24.38 598.43-23.84L598.43-23.84L598.43-23.84Q597.89-23.30 597.89-22.08L597.89-22.08L597.89-12.10L591.68-12.10L591.68-12.10Q590.21-12.10 589.47-12.86L589.47-12.86L589.47-12.86Q588.74-13.63 588.74-15.23L588.74-15.23L588.74-30.53L588.74-30.53Q588.74-32.13 589.70-32.93L589.70-32.93L589.70-32.93Q590.66-33.73 592.64-33.73L592.64-33.73L605.95-33.73L605.95-33.73Q607.17-33.73 607.71-34.27L607.71-34.27L607.71-34.27Q608.26-34.82 608.26-36.03L608.26-36.03L608.26-43.78L608.26-43.78Q608.26-44.99 607.71-45.54L607.71-45.54L607.71-45.54Q607.17-46.08 605.95-46.08L605.95-46.08L589.95-46.08L589.95-46.08Q581.95-46.08 578.08-42.88L578.08-42.88L578.08-42.88Q574.21-39.68 574.21-33.02L574.21-33.02L574.21-13.06L574.21-13.06Q574.21-6.40 578.08-3.20L578.08-3.20L578.08-3.20Q581.95 0 589.95 0L589.95 0ZM605.44-5.76L592.70-5.76L592.70-5.76Q589.18-5.76 586.94-6.21L586.94-6.21L586.94-6.21Q584.70-6.66 583.42-7.65L583.42-7.65L583.42-7.65Q582.14-8.64 581.66-10.21L581.66-10.21L581.66-10.21Q581.18-11.78 581.18-14.02L581.18-14.02L581.18-31.94L581.18-31.94Q581.18-36.48 583.23-38.40L583.23-38.40L583.23-38.40Q585.28-40.32 591.42-40.32L591.42-40.32L602.50-40.32L602.50-39.68L591.42-39.68L591.42-39.68Q585.79-39.68 583.81-37.92L583.81-37.92L583.81-37.92Q581.82-36.16 581.82-31.94L581.82-31.94L581.82-14.02L581.82-14.02Q581.82-9.86 584.03-8.13L584.03-8.13L584.03-8.13Q586.24-6.40 592.70-6.40L592.70-6.40L604.80-6.40L604.80-18.62L605.44-18.62L605.44-5.76ZM637.82 8.58L637.82 8.58L637.82 8.58Q631.62 8.58 627.62 7.26L627.62 7.26L627.62 7.26Q623.62 5.95 621.38 3.78L621.38 3.78L621.38 3.78Q619.14 1.60 618.27-1.22L618.27-1.22L618.27-1.22Q617.41-4.03 617.41-7.04L617.41-7.04L617.41-36.80L617.41-36.80Q617.41-37.63 617.63-38.21L617.63-38.21L617.63-38.21Q617.86-38.78 618.30-39.17L618.30-39.17L626.56-46.14L626.56-46.14Q626.88-46.40 627.42-46.56L627.42-46.56L627.42-46.56Q627.97-46.72 628.61-46.72L628.61-46.72L638.66-46.72L638.66-46.72Q640.19-46.72 640.90-46.02L640.90-46.02L640.90-46.02Q641.60-45.31 641.60-43.78L641.60-43.78L641.60-14.59L641.60-14.59Q641.60-14.02 641.79-13.54L641.79-13.54L641.79-13.54Q641.98-13.06 642.62-12.80L642.62-12.80L642.62-36.80L642.62-36.80Q642.62-37.63 642.82-38.21L642.82-38.21L642.82-38.21Q643.01-38.78 643.39-39.10L643.39-39.10L643.46-39.17L651.78-46.14L651.78-46.14Q652.10-46.40 652.61-46.56L652.61-46.56L652.61-46.56Q653.12-46.72 653.82-46.72L653.82-46.72L663.55-46.72L663.55-46.72Q665.09-46.72 665.79-46.02L665.79-46.02L665.79-46.02Q666.50-45.31 666.50-43.78L666.50-43.78L666.50-12.10L666.50-12.10Q666.50-9.15 665.66-6.66L665.66-6.66L665.66-6.66Q664.83-4.16 662.66-2.37L662.66-2.37L654.34 4.54L654.34 4.54Q652.10 6.46 648.13 7.52L648.13 7.52L648.13 7.52Q644.16 8.58 637.82 8.58ZM665.86-12.10L665.86-12.10L665.86-43.78L665.86-43.78Q665.86-44.99 665.31-45.54L665.31-45.54L665.31-45.54Q664.77-46.08 663.55-46.08L663.55-46.08L653.82-46.08L653.82-46.08Q652.61-46.08 652.06-45.54L652.06-45.54L652.06-45.54Q651.52-44.99 651.52-43.78L651.52-43.78L651.52-14.59L651.52-14.59Q651.52-13.31 650.56-12.45L650.56-12.45L650.56-12.45Q649.60-11.58 646.21-11.58L646.21-11.58L646.21-11.58Q642.88-11.58 641.92-12.45L641.92-12.45L641.92-12.45Q640.96-13.31 640.96-14.59L640.96-14.59L640.96-43.78L640.96-43.78Q640.96-44.99 640.42-45.54L640.42-45.54L640.42-45.54Q639.87-46.08 638.66-46.08L638.66-46.08L628.61-46.08L628.61-46.08Q627.39-46.08 626.85-45.54L626.85-45.54L626.85-45.54Q626.30-44.99 626.30-43.78L626.30-43.78L626.30-12.10L626.30-12.10Q626.30-9.15 627.17-6.75L627.17-6.75L627.17-6.75Q628.03-4.35 630.24-2.66L630.24-2.66L630.24-2.66Q632.45-0.96 636.29 0L636.29 0L636.29 0Q640.13 0.96 646.08 0.96L646.08 0.96L646.08 0.96Q652.03 0.96 655.87 0L655.87 0L655.87 0Q659.71-0.96 661.92-2.66L661.92-2.66L661.92-2.66Q664.13-4.35 664.99-6.75L664.99-6.75L664.99-6.75Q665.86-9.15 665.86-12.10ZM633.34-13.63L633.34-40.32L633.98-40.32L633.98-13.63L633.98-13.63Q633.98-10.05 636.51-7.84L636.51-7.84L636.51-7.84Q639.04-5.63 646.14-5.63L646.14-5.63L646.14-5.63Q653.25-5.63 655.81-7.84L655.81-7.84L655.81-7.84Q658.37-10.05 658.37-13.63L658.37-13.63L658.37-40.32L659.01-40.32L659.01-13.63L659.01-13.63Q659.01-9.79 656.32-7.39L656.32-7.39L656.32-7.39Q653.63-4.99 646.14-4.99L646.14-4.99L646.14-4.99Q638.66-4.99 636-7.39L636-7.39L636-7.39Q633.34-9.79 633.34-13.63L633.34-13.63ZM695.87 7.62L695.87 7.62L685.50 7.62L685.50 7.62Q683.90 7.62 683.23 6.91L683.23 6.91L683.23 6.91Q682.56 6.21 682.56 4.67L682.56 4.67L682.56-3.33L672.90-16.26L672.90-16.26Q671.36-18.30 670.85-19.84L670.85-19.84L670.85-19.84Q670.34-21.38 670.34-24.51L670.34-24.51L670.34-36.80L670.34-36.80Q670.34-37.63 670.56-38.21L670.56-38.21L670.56-38.21Q670.78-38.78 671.23-39.17L671.23-39.17L679.49-46.14L679.49-46.14Q679.81-46.40 680.35-46.56L680.35-46.56L680.35-46.56Q680.90-46.72 681.54-46.72L681.54-46.72L691.39-46.72L691.39-46.72Q692.93-46.72 693.63-46.02L693.63-46.02L693.63-46.02Q694.34-45.31 694.34-43.78L694.34-43.78L694.34-33.28L694.34-33.28Q694.34-32.70 694.40-32.13L694.40-32.13L694.40-32.13Q694.46-31.55 694.78-30.91L694.78-30.91L695.55-29.82L695.55-36.80L695.55-36.80Q695.55-37.63 695.78-38.21L695.78-38.21L695.78-38.21Q696-38.78 696.45-39.17L696.45-39.17L704.70-46.14L704.70-46.14Q705.02-46.40 705.57-46.56L705.57-46.56L705.57-46.56Q706.11-46.72 706.75-46.72L706.75-46.72L716.29-46.72L716.29-46.72Q717.82-46.72 718.53-46.02L718.53-46.02L718.53-46.02Q719.23-45.31 719.23-43.78L719.23-43.78L719.23-31.49L719.23-31.49Q719.23-28.35 718.72-26.82L718.72-26.82L718.72-26.82Q718.21-25.28 716.67-23.23L716.67-23.23L707.07-10.24L707.07-2.30L707.07-2.30Q707.07-1.47 706.85-0.90L706.85-0.90L706.85-0.90Q706.62-0.32 706.18 0.06L706.18 0.06L697.86 6.98L697.86 6.98Q697.60 7.23 697.06 7.42L697.06 7.42L697.06 7.42Q696.51 7.62 695.87 7.62ZM693.76 0L704.13 0L704.13 0Q705.34 0 705.89-0.54L705.89-0.54L705.89-0.54Q706.43-1.09 706.43-2.30L706.43-2.30L706.43-10.43L716.16-23.62L716.16-23.62Q717.57-25.60 718.08-27.07L718.08-27.07L718.08-27.07Q718.59-28.54 718.59-31.49L718.59-31.49L718.59-43.78L718.59-43.78Q718.59-44.99 718.05-45.54L718.05-45.54L718.05-45.54Q717.50-46.08 716.29-46.08L716.29-46.08L706.75-46.08L706.75-46.08Q705.54-46.08 704.99-45.54L704.99-45.54L704.99-45.54Q704.45-44.99 704.45-43.78L704.45-43.78L704.45-33.28L704.45-33.28Q704.45-32.64 704.38-31.94L704.38-31.94L704.38-31.94Q704.32-31.23 703.87-30.59L703.87-30.59L700.93-25.98L700.93-25.98Q700.61-25.41 700.26-25.15L700.26-25.15L700.26-25.15Q699.90-24.90 699.39-24.90L699.39-24.90L698.75-24.90L698.75-24.90Q698.24-24.90 697.89-25.15L697.89-25.15L697.89-25.15Q697.54-25.41 697.22-25.98L697.22-25.98L694.27-30.59L694.27-30.59Q693.82-31.23 693.76-31.94L693.76-31.94L693.76-31.94Q693.70-32.64 693.70-33.28L693.70-33.28L693.70-43.78L693.70-43.78Q693.70-44.99 693.15-45.54L693.15-45.54L693.15-45.54Q692.61-46.08 691.39-46.08L691.39-46.08L681.54-46.08L681.54-46.08Q680.32-46.08 679.78-45.54L679.78-45.54L679.78-45.54Q679.23-44.99 679.23-43.78L679.23-43.78L679.23-31.49L679.23-31.49Q679.23-28.54 679.71-27.07L679.71-27.07L679.71-27.07Q680.19-25.60 681.66-23.62L681.66-23.62L691.46-10.50L691.46-2.30L691.46-2.30Q691.46-1.09 692-0.54L692-0.54L692-0.54Q692.54 0 693.76 0L693.76 0ZM699.71-16.70L699.71-16.70L699.26-16.70L699.26-5.76L698.62-5.76L698.62-16.70L697.98-16.70L697.98-16.70Q696.58-16.70 695.46-17.34L695.46-17.34L695.46-17.34Q694.34-17.98 693.31-19.39L693.31-19.39L687.10-28.03L687.10-28.03Q686.40-28.99 686.27-30.27L686.27-30.27L686.27-30.27Q686.14-31.55 686.14-32.96L686.14-32.96L686.14-40.32L686.78-40.32L686.78-32.96L686.78-32.96Q686.78-31.62 686.91-30.43L686.91-30.43L686.91-30.43Q687.04-29.25 687.68-28.29L687.68-28.29L693.89-19.65L693.89-19.65Q694.72-18.37 695.81-17.86L695.81-17.86L695.81-17.86Q696.90-17.34 697.98-17.34L697.98-17.34L699.71-17.34L699.71-17.34Q700.93-17.34 701.92-17.89L701.92-17.89L701.92-17.89Q702.91-18.43 703.87-19.65L703.87-19.65L710.27-28.29L710.27-28.29Q710.91-29.12 711.04-30.37L711.04-30.37L711.04-30.37Q711.17-31.62 711.17-32.96L711.17-32.96L711.17-40.32L711.81-40.32L711.81-32.96L711.81-32.96Q711.81-31.55 711.71-30.30L711.71-30.30L711.71-30.30Q711.62-29.06 710.85-28.03L710.85-28.03L704.45-19.39L704.45-19.39Q703.42-17.98 702.30-17.34L702.30-17.34L702.30-17.34Q701.18-16.70 699.71-16.70ZM745.41 7.62L725.18 7.62L725.18 7.62Q723.65 7.62 722.94 6.91L722.94 6.91L722.94 6.91Q722.24 6.21 722.24 4.67L722.24 4.67L722.24-2.82L722.24-2.82Q722.24-3.65 722.46-4.22L722.46-4.22L722.46-4.22Q722.69-4.80 723.14-5.18L723.14-5.18L729.54-10.56L729.54-10.56Q726.14-11.58 724.19-14.05L724.19-14.05L724.19-14.05Q722.24-16.51 722.24-21.12L722.24-21.12L722.24-27.84L722.24-27.84Q722.24-30.72 723.20-32.96L723.20-32.96L723.20-32.96Q724.16-35.20 725.95-36.74L725.95-36.74L734.27-43.71L734.27-43.71Q736-45.12 738.56-45.92L738.56-45.92L738.56-45.92Q741.12-46.72 744.38-46.72L744.38-46.72L762.30-46.72L762.30-46.72Q763.84-46.72 764.54-46.02L764.54-46.02L764.54-46.02Q765.25-45.31 765.25-43.78L765.25-43.78L765.25-36.16L765.25-36.16Q765.25-35.33 765.02-34.75L765.02-34.75L765.02-34.75Q764.80-34.18 764.35-33.79L764.35-33.79L758.59-28.99L758.59-28.99Q762.62-28.10 765.09-25.63L765.09-25.63L765.09-25.63Q767.55-23.17 767.55-17.98L767.55-17.98L767.55-11.26L767.55-11.26Q767.55-8.38 766.59-6.14L766.59-6.14L766.59-6.14Q765.63-3.90 763.78-2.37L763.78-2.37L755.52 4.54L755.52 4.54Q753.73 6.02 751.17 6.82L751.17 6.82L751.17 6.82Q748.61 7.62 745.41 7.62L745.41 7.62ZM733.44 0L753.66 0L753.66 0Q759.81 0 763.36-2.91L763.36-2.91L763.36-2.91Q766.91-5.82 766.91-11.26L766.91-11.26L766.91-17.98L766.91-17.98Q766.91-23.36 764.16-25.66L764.16-25.66L764.16-25.66Q761.41-27.97 756.93-28.61L756.93-28.61L747.39-29.89L747.39-29.89Q746.56-29.95 746.11-30.53L746.11-30.53L746.11-30.53Q745.66-31.10 745.66-31.94L745.66-31.94L745.66-31.94Q745.66-32.77 746.11-33.31L746.11-33.31L746.11-33.31Q746.56-33.86 747.39-33.86L747.39-33.86L762.30-33.86L762.30-33.86Q763.52-33.86 764.06-34.40L764.06-34.40L764.06-34.40Q764.61-34.94 764.61-36.16L764.61-36.16L764.61-43.78L764.61-43.78Q764.61-44.99 764.06-45.54L764.06-45.54L764.06-45.54Q763.52-46.08 762.30-46.08L762.30-46.08L744.38-46.08L744.38-46.08Q738.18-46.08 734.66-43.17L734.66-43.17L734.66-43.17Q731.14-40.26 731.14-34.82L731.14-34.82L731.14-28.10L731.14-28.10Q731.14-22.72 733.86-20.42L733.86-20.42L733.86-20.42Q736.58-18.11 741.06-17.47L741.06-17.47L750.66-16.13L750.66-16.13Q751.49-16.06 751.90-15.55L751.90-15.55L751.90-15.55Q752.32-15.04 752.32-13.95L752.32-13.95L752.32-13.95Q752.32-13.18 751.90-12.64L751.90-12.64L751.90-12.64Q751.49-12.10 750.66-12.10L750.66-12.10L733.44-12.10L733.44-12.10Q732.22-12.10 731.68-11.55L731.68-11.55L731.68-11.55Q731.14-11.01 731.14-9.79L731.14-9.79L731.14-2.30L731.14-2.30Q731.14-1.09 731.68-0.54L731.68-0.54L731.68-0.54Q732.22 0 733.44 0L733.44 0ZM744.64-40.32L758.85-40.32L758.85-39.68L744.64-39.68L744.64-39.68Q741.95-39.68 740.35-38.21L740.35-38.21L740.35-38.21Q738.75-36.74 738.75-34.50L738.75-34.50L738.75-29.25L738.75-29.25Q738.75-27.01 739.65-26.11L739.65-26.11L739.65-26.11Q740.54-25.22 742.02-24.96L742.02-24.96L755.52-22.21L755.52-22.21Q757.44-21.82 758.69-20.54L758.69-20.54L758.69-20.54Q759.94-19.26 759.94-15.94L759.94-15.94L759.94-12.22L759.94-12.22Q759.94-9.41 758.02-7.58L758.02-7.58L758.02-7.58Q756.10-5.76 752.83-5.76L752.83-5.76L736.90-5.76L736.90-6.40L752.83-6.40L752.83-6.40Q755.78-6.40 757.54-8.03L757.54-8.03L757.54-8.03Q759.30-9.66 759.30-12.22L759.30-12.22L759.30-15.94L759.30-15.94Q759.30-18.94 758.24-20.06L758.24-20.06L758.24-20.06Q757.18-21.18 755.39-21.57L755.39-21.57L741.89-24.32L741.89-24.32Q740.22-24.64 739.17-25.63L739.17-25.63L739.17-25.63Q738.11-26.62 738.11-29.25L738.11-29.25L738.11-34.50L738.11-34.50Q738.11-37.06 739.90-38.69L739.90-38.69L739.90-38.69Q741.70-40.32 744.64-40.32L744.64-40.32Z" fill="url(#editing-shiny-gradient)"></path></g></g><g filter="url(#editing-shiny2)"><g transform="translate(-134.7350025177002, 102.6500015258789)"><path d="M18.24-19.39L18.24-19.39L18.24-17.41L43.20-17.41L43.20-19.39L43.20-19.39Q43.20-21.12 42.91-22.59L42.91-22.59L42.91-22.59Q42.62-24.06 42.18-25.34L42.18-25.34L37.76-35.78L37.76-35.78Q37.06-37.44 36.29-38.56L36.29-38.56L36.29-38.56Q35.52-39.68 33.73-39.68L33.73-39.68L27.46-39.68L27.46-39.68Q25.54-39.68 24.77-38.56L24.77-38.56L24.77-38.56Q24-37.44 23.36-35.84L23.36-35.84L19.26-25.34L19.26-25.34Q18.82-24.06 18.53-22.59L18.53-22.59L18.53-22.59Q18.24-21.12 18.24-19.39ZM25.47-22.91L28.48-32.64L28.48-32.64Q28.74-33.22 29.02-33.47L29.02-33.47L29.02-33.47Q29.31-33.73 29.70-33.73L29.70-33.73L31.30-33.73L31.30-33.73Q31.68-33.73 31.97-33.47L31.97-33.47L31.97-33.47Q32.26-33.22 32.51-32.64L32.51-32.64L35.52-22.91L25.47-22.91ZM43.84-5.76L43.20-5.76L43.20-16.77L18.24-16.77L18.24-5.76L17.60-5.76L17.60-19.39L17.60-19.39Q17.60-21.18 17.89-22.69L17.89-22.69L17.89-22.69Q18.18-24.19 18.69-25.60L18.69-25.60L22.78-36.10L22.78-36.10Q23.49-37.89 24.38-39.10L24.38-39.10L24.38-39.10Q25.28-40.32 27.46-40.32L27.46-40.32L33.73-40.32L33.73-40.32Q35.84-40.32 36.70-39.10L36.70-39.10L36.70-39.10Q37.57-37.89 38.34-36.03L38.34-36.03L42.75-25.60L42.75-25.60Q43.26-24.19 43.55-22.69L43.55-22.69L43.55-22.69Q43.84-21.18 43.84-19.39L43.84-19.39L43.84-5.76ZM24.83-2.30L24.83-2.30L24.83-11.26L36.16-11.26L36.16-2.30L36.16-2.30Q36.16-1.09 36.77-0.54L36.77-0.54L36.77-0.54Q37.38 0 38.66 0L38.66 0L48.32 0L48.32 0Q49.54 0 50.08-0.54L50.08-0.54L50.08-0.54Q50.62-1.09 50.62-2.30L50.62-2.30L50.62-19.20L50.62-19.20Q50.62-21.12 50.02-23.62L50.02-23.62L50.02-23.62Q49.41-26.11 48.13-29.44L48.13-29.44L42.56-43.97L42.56-43.97Q42.18-45.06 41.38-45.57L41.38-45.57L41.38-45.57Q40.58-46.08 39.36-46.08L39.36-46.08L22.14-46.08L22.14-46.08Q20.86-46.08 20.06-45.57L20.06-45.57L20.06-45.57Q19.26-45.06 18.88-43.97L18.88-43.97L13.31-29.44L13.31-29.44Q12.03-26.11 11.42-23.62L11.42-23.62L11.42-23.62Q10.82-21.12 10.82-19.20L10.82-19.20L10.82-2.30L10.82-2.30Q10.82-1.09 11.36-0.54L11.36-0.54L11.36-0.54Q11.90 0 13.12 0L13.12 0L22.53 0L22.53 0Q23.74 0 24.29-0.54L24.29-0.54L24.29-0.54Q24.83-1.09 24.83-2.30ZM24.58 0.06L16.26 6.98L16.26 6.98Q16 7.23 15.46 7.42L15.46 7.42L15.46 7.42Q14.91 7.62 14.27 7.62L14.27 7.62L4.86 7.62L4.86 7.62Q3.33 7.62 2.62 6.91L2.62 6.91L2.62 6.91Q1.92 6.21 1.92 4.67L1.92 4.67L1.92-12.22L1.92-12.22Q1.92-14.21 2.53-16.74L2.53-16.74L2.53-16.74Q3.14-19.26 4.48-22.72L4.48-22.72L9.98-37.18L9.98-37.18Q10.18-37.76 10.46-38.18L10.46-38.18L10.46-38.18Q10.75-38.59 11.07-38.91L11.07-38.91L11.14-38.98L19.33-45.82L19.33-45.82Q19.84-46.27 20.54-46.50L20.54-46.50L20.54-46.50Q21.25-46.72 22.14-46.72L22.14-46.72L39.36-46.72L39.36-46.72Q40.83-46.72 41.76-46.11L41.76-46.11L41.76-46.11Q42.69-45.50 43.14-44.22L43.14-44.22L48.70-29.70L48.70-29.70Q50.05-26.24 50.66-23.71L50.66-23.71L50.66-23.71Q51.26-21.18 51.26-19.20L51.26-19.20L51.26-2.30L51.26-2.30Q51.26-1.47 51.04-0.90L51.04-0.90L51.04-0.90Q50.82-0.32 50.37 0.06L50.37 0.06L42.05 6.98L42.05 6.98Q41.79 7.23 41.25 7.42L41.25 7.42L41.25 7.42Q40.70 7.62 40.06 7.62L40.06 7.62L30.40 7.62L30.40 7.62Q28.80 7.62 28.03 6.88L28.03 6.88L28.03 6.88Q27.26 6.14 27.26 4.67L27.26 4.67L27.26-3.65L25.47-3.65L25.47-2.30L25.47-2.30Q25.47-1.47 25.25-0.90L25.25-0.90L25.25-0.90Q25.02-0.32 24.58 0.06L24.58 0.06ZM76.10 8.58L76.10 8.58L76.10 8.58Q69.89 8.58 65.89 7.26L65.89 7.26L65.89 7.26Q61.89 5.95 59.65 3.78L59.65 3.78L59.65 3.78Q57.41 1.60 56.54-1.22L56.54-1.22L56.54-1.22Q55.68-4.03 55.68-7.04L55.68-7.04L55.68-36.80L55.68-36.80Q55.68-37.63 55.90-38.21L55.90-38.21L55.90-38.21Q56.13-38.78 56.58-39.17L56.58-39.17L64.83-46.14L64.83-46.14Q65.15-46.40 65.70-46.56L65.70-46.56L65.70-46.56Q66.24-46.72 66.88-46.72L66.88-46.72L76.93-46.72L76.93-46.72Q78.46-46.72 79.17-46.02L79.17-46.02L79.17-46.02Q79.87-45.31 79.87-43.78L79.87-43.78L79.87-14.59L79.87-14.59Q79.87-14.02 80.06-13.54L80.06-13.54L80.06-13.54Q80.26-13.06 80.90-12.80L80.90-12.80L80.90-36.80L80.90-36.80Q80.90-37.63 81.09-38.21L81.09-38.21L81.09-38.21Q81.28-38.78 81.66-39.10L81.66-39.10L81.73-39.17L90.05-46.14L90.05-46.14Q90.37-46.40 90.88-46.56L90.88-46.56L90.88-46.56Q91.39-46.72 92.10-46.72L92.10-46.72L101.82-46.72L101.82-46.72Q103.36-46.72 104.06-46.02L104.06-46.02L104.06-46.02Q104.77-45.31 104.77-43.78L104.77-43.78L104.77-12.10L104.77-12.10Q104.77-9.15 103.94-6.66L103.94-6.66L103.94-6.66Q103.10-4.16 100.93-2.37L100.93-2.37L92.61 4.54L92.61 4.54Q90.37 6.46 86.40 7.52L86.40 7.52L86.40 7.52Q82.43 8.58 76.10 8.58ZM104.13-12.10L104.13-12.10L104.13-43.78L104.13-43.78Q104.13-44.99 103.58-45.54L103.58-45.54L103.58-45.54Q103.04-46.08 101.82-46.08L101.82-46.08L92.10-46.08L92.10-46.08Q90.88-46.08 90.34-45.54L90.34-45.54L90.34-45.54Q89.79-44.99 89.79-43.78L89.79-43.78L89.79-14.59L89.79-14.59Q89.79-13.31 88.83-12.45L88.83-12.45L88.83-12.45Q87.87-11.58 84.48-11.58L84.48-11.58L84.48-11.58Q81.15-11.58 80.19-12.45L80.19-12.45L80.19-12.45Q79.23-13.31 79.23-14.59L79.23-14.59L79.23-43.78L79.23-43.78Q79.23-44.99 78.69-45.54L78.69-45.54L78.69-45.54Q78.14-46.08 76.93-46.08L76.93-46.08L66.88-46.08L66.88-46.08Q65.66-46.08 65.12-45.54L65.12-45.54L65.12-45.54Q64.58-44.99 64.58-43.78L64.58-43.78L64.58-12.10L64.58-12.10Q64.58-9.15 65.44-6.75L65.44-6.75L65.44-6.75Q66.30-4.35 68.51-2.66L68.51-2.66L68.51-2.66Q70.72-0.96 74.56 0L74.56 0L74.56 0Q78.40 0.96 84.35 0.96L84.35 0.96L84.35 0.96Q90.30 0.96 94.14 0L94.14 0L94.14 0Q97.98-0.96 100.19-2.66L100.19-2.66L100.19-2.66Q102.40-4.35 103.26-6.75L103.26-6.75L103.26-6.75Q104.13-9.15 104.13-12.10ZM71.62-13.63L71.62-40.32L72.26-40.32L72.26-13.63L72.26-13.63Q72.26-10.05 74.78-7.84L74.78-7.84L74.78-7.84Q77.31-5.63 84.42-5.63L84.42-5.63L84.42-5.63Q91.52-5.63 94.08-7.84L94.08-7.84L94.08-7.84Q96.64-10.05 96.64-13.63L96.64-13.63L96.64-40.32L97.28-40.32L97.28-13.63L97.28-13.63Q97.28-9.79 94.59-7.39L94.59-7.39L94.59-7.39Q91.90-4.99 84.42-4.99L84.42-4.99L84.42-4.99Q76.93-4.99 74.27-7.39L74.27-7.39L74.27-7.39Q71.62-9.79 71.62-13.63L71.62-13.63ZM132.16 7.62L111.94 7.62L111.94 7.62Q110.40 7.62 109.70 6.91L109.70 6.91L109.70 6.91Q108.99 6.21 108.99 4.67L108.99 4.67L108.99-2.82L108.99-2.82Q108.99-3.65 109.22-4.22L109.22-4.22L109.22-4.22Q109.44-4.80 109.89-5.18L109.89-5.18L116.29-10.56L116.29-10.56Q112.90-11.58 110.94-14.05L110.94-14.05L110.94-14.05Q108.99-16.51 108.99-21.12L108.99-21.12L108.99-27.84L108.99-27.84Q108.99-30.72 109.95-32.96L109.95-32.96L109.95-32.96Q110.91-35.20 112.70-36.74L112.70-36.74L121.02-43.71L121.02-43.71Q122.75-45.12 125.31-45.92L125.31-45.92L125.31-45.92Q127.87-46.72 131.14-46.72L131.14-46.72L149.06-46.72L149.06-46.72Q150.59-46.72 151.30-46.02L151.30-46.02L151.30-46.02Q152-45.31 152-43.78L152-43.78L152-36.16L152-36.16Q152-35.33 151.78-34.75L151.78-34.75L151.78-34.75Q151.55-34.18 151.10-33.79L151.10-33.79L145.34-28.99L145.34-28.99Q149.38-28.10 151.84-25.63L151.84-25.63L151.84-25.63Q154.30-23.17 154.30-17.98L154.30-17.98L154.30-11.26L154.30-11.26Q154.30-8.38 153.34-6.14L153.34-6.14L153.34-6.14Q152.38-3.90 150.53-2.37L150.53-2.37L142.27 4.54L142.27 4.54Q140.48 6.02 137.92 6.82L137.92 6.82L137.92 6.82Q135.36 7.62 132.16 7.62L132.16 7.62ZM120.19 0L140.42 0L140.42 0Q146.56 0 150.11-2.91L150.11-2.91L150.11-2.91Q153.66-5.82 153.66-11.26L153.66-11.26L153.66-17.98L153.66-17.98Q153.66-23.36 150.91-25.66L150.91-25.66L150.91-25.66Q148.16-27.97 143.68-28.61L143.68-28.61L134.14-29.89L134.14-29.89Q133.31-29.95 132.86-30.53L132.86-30.53L132.86-30.53Q132.42-31.10 132.42-31.94L132.42-31.94L132.42-31.94Q132.42-32.77 132.86-33.31L132.86-33.31L132.86-33.31Q133.31-33.86 134.14-33.86L134.14-33.86L149.06-33.86L149.06-33.86Q150.27-33.86 150.82-34.40L150.82-34.40L150.82-34.40Q151.36-34.94 151.36-36.16L151.36-36.16L151.36-43.78L151.36-43.78Q151.36-44.99 150.82-45.54L150.82-45.54L150.82-45.54Q150.27-46.08 149.06-46.08L149.06-46.08L131.14-46.08L131.14-46.08Q124.93-46.08 121.41-43.17L121.41-43.17L121.41-43.17Q117.89-40.26 117.89-34.82L117.89-34.82L117.89-28.10L117.89-28.10Q117.89-22.72 120.61-20.42L120.61-20.42L120.61-20.42Q123.33-18.11 127.81-17.47L127.81-17.47L137.41-16.13L137.41-16.13Q138.24-16.06 138.66-15.55L138.66-15.55L138.66-15.55Q139.07-15.04 139.07-13.95L139.07-13.95L139.07-13.95Q139.07-13.18 138.66-12.64L138.66-12.64L138.66-12.64Q138.24-12.10 137.41-12.10L137.41-12.10L120.19-12.10L120.19-12.10Q118.98-12.10 118.43-11.55L118.43-11.55L118.43-11.55Q117.89-11.01 117.89-9.79L117.89-9.79L117.89-2.30L117.89-2.30Q117.89-1.09 118.43-0.54L118.43-0.54L118.43-0.54Q118.98 0 120.19 0L120.19 0ZM131.39-40.32L145.60-40.32L145.60-39.68L131.39-39.68L131.39-39.68Q128.70-39.68 127.10-38.21L127.10-38.21L127.10-38.21Q125.50-36.74 125.50-34.50L125.50-34.50L125.50-29.25L125.50-29.25Q125.50-27.01 126.40-26.11L126.40-26.11L126.40-26.11Q127.30-25.22 128.77-24.96L128.77-24.96L142.27-22.21L142.27-22.21Q144.19-21.82 145.44-20.54L145.44-20.54L145.44-20.54Q146.69-19.26 146.69-15.94L146.69-15.94L146.69-12.22L146.69-12.22Q146.69-9.41 144.77-7.58L144.77-7.58L144.77-7.58Q142.85-5.76 139.58-5.76L139.58-5.76L123.65-5.76L123.65-6.40L139.58-6.40L139.58-6.40Q142.53-6.40 144.29-8.03L144.29-8.03L144.29-8.03Q146.05-9.66 146.05-12.22L146.05-12.22L146.05-15.94L146.05-15.94Q146.05-18.94 144.99-20.06L144.99-20.06L144.99-20.06Q143.94-21.18 142.14-21.57L142.14-21.57L128.64-24.32L128.64-24.32Q126.98-24.64 125.92-25.63L125.92-25.63L125.92-25.63Q124.86-26.62 124.86-29.25L124.86-29.25L124.86-34.50L124.86-34.50Q124.86-37.06 126.66-38.69L126.66-38.69L126.66-38.69Q128.45-40.32 131.39-40.32L131.39-40.32ZM180.54 7.62L180.54 7.62L170.18 7.62L170.18 7.62Q168.64 7.62 167.94 6.91L167.94 6.91L167.94 6.91Q167.23 6.21 167.23 4.67L167.23 4.67L167.23-26.11L158.46-26.11L158.46-26.11Q156.93-26.11 156.22-26.82L156.22-26.82L156.22-26.82Q155.52-27.52 155.52-29.06L155.52-29.06L155.52-36.80L155.52-36.80Q155.52-37.63 155.74-38.21L155.74-38.21L155.74-38.21Q155.97-38.78 156.42-39.17L156.42-39.17L164.67-46.14L164.67-46.14Q164.99-46.40 165.54-46.56L165.54-46.56L165.54-46.56Q166.08-46.72 166.72-46.72L166.72-46.72L200.51-46.72L200.51-46.72Q202.05-46.72 202.75-46.02L202.75-46.02L202.75-46.02Q203.46-45.31 203.46-43.78L203.46-43.78L203.46-36.03L203.46-36.03Q203.46-35.20 203.23-34.62L203.23-34.62L203.23-34.62Q203.01-34.05 202.56-33.66L202.56-33.66L194.24-26.75L194.24-26.75Q193.98-26.50 193.44-26.30L193.44-26.30L193.44-26.30Q192.90-26.11 192.26-26.11L192.26-26.11L191.74-26.11L191.74-2.30L191.74-2.30Q191.74-1.47 191.52-0.90L191.52-0.90L191.52-0.90Q191.30-0.32 190.85 0.06L190.85 0.06L182.53 6.98L182.53 6.98Q182.27 7.23 181.73 7.42L181.73 7.42L181.73 7.42Q181.18 7.62 180.54 7.62ZM178.43 0L188.80 0L188.80 0Q190.02 0 190.56-0.54L190.56-0.54L190.56-0.54Q191.10-1.09 191.10-2.30L191.10-2.30L191.10-33.73L200.51-33.73L200.51-33.73Q201.73-33.73 202.27-34.27L202.27-34.27L202.27-34.27Q202.82-34.82 202.82-36.03L202.82-36.03L202.82-43.78L202.82-43.78Q202.82-44.99 202.27-45.54L202.27-45.54L202.27-45.54Q201.73-46.08 200.51-46.08L200.51-46.08L166.72-46.08L166.72-46.08Q165.50-46.08 164.96-45.54L164.96-45.54L164.96-45.54Q164.42-44.99 164.42-43.78L164.42-43.78L164.42-36.03L164.42-36.03Q164.42-34.82 164.96-34.27L164.96-34.27L164.96-34.27Q165.50-33.73 166.72-33.73L166.72-33.73L176.13-33.73L176.13-2.30L176.13-2.30Q176.13-1.09 176.67-0.54L176.67-0.54L176.67-0.54Q177.22 0 178.43 0L178.43 0ZM183.94-5.76L183.30-5.76L183.30-39.68L170.18-39.68L170.18-40.32L197.06-40.32L197.06-39.68L183.94-39.68L183.94-5.76ZM235.71 7.62L235.71 7.62L208.45 7.62L208.45 7.62Q206.91 7.62 206.21 6.91L206.21 6.91L206.21 6.91Q205.50 6.21 205.50 4.67L205.50 4.67L205.50-2.94L205.50-2.94Q205.50-3.78 205.73-4.35L205.73-4.35L205.73-4.35Q205.95-4.93 206.40-5.31L206.40-5.31L214.14-11.84L214.14-26.11L208.45-26.11L208.45-26.11Q206.91-26.11 206.21-26.82L206.21-26.82L206.21-26.82Q205.50-27.52 205.50-29.06L205.50-29.06L205.50-36.80L205.50-36.80Q205.50-37.63 205.73-38.21L205.73-38.21L205.73-38.21Q205.95-38.78 206.40-39.17L206.40-39.17L214.66-46.14L214.66-46.14Q214.98-46.40 215.52-46.56L215.52-46.56L215.52-46.56Q216.06-46.72 216.70-46.72L216.70-46.72L243.97-46.72L243.97-46.72Q245.50-46.72 246.21-46.02L246.21-46.02L246.21-46.02Q246.91-45.31 246.91-43.78L246.91-43.78L246.91-36.03L246.91-36.03Q246.91-35.20 246.69-34.62L246.69-34.62L246.69-34.62Q246.46-34.05 246.02-33.66L246.02-33.66L238.40-27.26L238.40-12.86L243.97-12.86L243.97-12.86Q245.50-12.86 246.21-12.16L246.21-12.16L246.21-12.16Q246.91-11.46 246.91-9.92L246.91-9.92L246.91-2.30L246.91-2.30Q246.91-1.47 246.69-0.90L246.69-0.90L246.69-0.90Q246.46-0.32 246.02 0.06L246.02 0.06L237.70 6.98L237.70 6.98Q237.44 7.23 236.90 7.42L236.90 7.42L236.90 7.42Q236.35 7.62 235.71 7.62ZM216.70 0L216.70 0L243.97 0L243.97 0Q245.18 0 245.73-0.54L245.73-0.54L245.73-0.54Q246.27-1.09 246.27-2.30L246.27-2.30L246.27-9.92L246.27-9.92Q246.27-11.14 245.73-11.68L245.73-11.68L245.73-11.68Q245.18-12.22 243.97-12.22L243.97-12.22L237.76-12.22L237.76-33.73L243.97-33.73L243.97-33.73Q245.18-33.73 245.73-34.27L245.73-34.27L245.73-34.27Q246.27-34.82 246.27-36.03L246.27-36.03L246.27-43.78L246.27-43.78Q246.27-44.99 245.73-45.54L245.73-45.54L245.73-45.54Q245.18-46.08 243.97-46.08L243.97-46.08L216.70-46.08L216.70-46.08Q215.49-46.08 214.94-45.54L214.94-45.54L214.94-45.54Q214.40-44.99 214.40-43.78L214.40-43.78L214.40-36.03L214.40-36.03Q214.40-34.82 214.94-34.27L214.94-34.27L214.94-34.27Q215.49-33.73 216.70-33.73L216.70-33.73L223.04-33.73L223.04-12.22L216.70-12.22L216.70-12.22Q215.49-12.22 214.94-11.68L214.94-11.68L214.94-11.68Q214.40-11.14 214.40-9.92L214.40-9.92L214.40-2.30L214.40-2.30Q214.40-1.09 214.94-0.54L214.94-0.54L214.94-0.54Q215.49 0 216.70 0ZM240.51-6.40L240.51-5.76L220.16-5.76L220.16-6.40L230.08-6.40L230.08-39.68L220.16-39.68L220.16-40.32L240.51-40.32L240.51-39.68L230.72-39.68L230.72-6.40L240.51-6.40ZM268.99-39.81L268.99-39.81L292.54-13.31L292.54-40.32L293.18-40.32L293.18-5.76L292.54-5.76L292.54-12.35L268.35-39.49L268.35-39.49Q268.29-39.55 268.19-39.62L268.19-39.62L268.19-39.62Q268.10-39.68 268.03-39.68L268.03-39.68L268.03-39.68Q267.97-39.68 267.94-39.62L267.94-39.62L267.94-39.62Q267.90-39.55 267.90-39.49L267.90-39.49L267.90-5.76L267.26-5.76L267.26-39.62L267.26-39.62Q267.26-40 267.52-40.19L267.52-40.19L267.52-40.19Q267.78-40.38 268.03-40.38L268.03-40.38L268.03-40.38Q268.29-40.38 268.48-40.26L268.48-40.26L268.48-40.26Q268.67-40.13 268.99-39.81ZM262.85 0L272.45 0L272.45 0Q273.66 0 274.21-0.54L274.21-0.54L274.21-0.54Q274.75-1.09 274.75-2.30L274.75-2.30L274.75-23.42L285.70-10.18L285.70-2.30L285.70-2.30Q285.70-1.09 286.24-0.54L286.24-0.54L286.24-0.54Q286.78 0 288 0L288 0L297.60 0L297.60 0Q298.82 0 299.36-0.54L299.36-0.54L299.36-0.54Q299.90-1.09 299.90-2.30L299.90-2.30L299.90-43.78L299.90-43.78Q299.90-44.99 299.36-45.54L299.36-45.54L299.36-45.54Q298.82-46.08 297.60-46.08L297.60-46.08L288-46.08L288-46.08Q286.78-46.08 286.24-45.54L286.24-45.54L286.24-45.54Q285.70-44.99 285.70-43.78L285.70-43.78L285.70-30.14L273.28-44.35L273.28-44.35Q272.45-45.31 271.58-45.70L271.58-45.70L271.58-45.70Q270.72-46.08 269.50-46.08L269.50-46.08L262.85-46.08L262.85-46.08Q261.63-46.08 261.09-45.54L261.09-45.54L261.09-45.54Q260.54-44.99 260.54-43.78L260.54-43.78L260.54-2.30L260.54-2.30Q260.54-1.09 261.09-0.54L261.09-0.54L261.09-0.54Q261.63 0 262.85 0L262.85 0ZM274.50 0.06L274.50 0.06L266.18 6.98L266.18 6.98Q265.92 7.23 265.38 7.42L265.38 7.42L265.38 7.42Q264.83 7.62 264.19 7.62L264.19 7.62L254.59 7.62L254.59 7.62Q253.06 7.62 252.35 6.91L252.35 6.91L252.35 6.91Q251.65 6.21 251.65 4.67L251.65 4.67L251.65-36.80L251.65-36.80Q251.65-37.63 251.87-38.21L251.87-38.21L251.87-38.21Q252.10-38.78 252.54-39.17L252.54-39.17L260.80-46.14L260.80-46.14Q261.12-46.40 261.66-46.56L261.66-46.56L261.66-46.56Q262.21-46.72 262.85-46.72L262.85-46.72L269.50-46.72L269.50-46.72Q270.91-46.72 271.87-46.27L271.87-46.27L271.87-46.27Q272.83-45.82 273.79-44.80L273.79-44.80L278.21-39.68L285.95-46.14L285.95-46.14Q286.27-46.40 286.82-46.56L286.82-46.56L286.82-46.56Q287.36-46.72 288-46.72L288-46.72L297.60-46.72L297.60-46.72Q299.14-46.72 299.84-46.02L299.84-46.02L299.84-46.02Q300.54-45.31 300.54-43.78L300.54-43.78L300.54-2.30L300.54-2.30Q300.54-1.47 300.32-0.90L300.32-0.90L300.32-0.90Q300.10-0.32 299.65 0.06L299.65 0.06L291.33 6.98L291.33 6.98Q291.07 7.23 290.53 7.42L290.53 7.42L290.53 7.42Q289.98 7.62 289.34 7.62L289.34 7.62L279.74 7.62L279.74 7.62Q278.21 7.62 277.50 6.91L277.50 6.91L277.50 6.91Q276.80 6.21 276.80 4.67L276.80 4.67L276.80-2.94L275.39-4.67L275.39-2.30L275.39-2.30Q275.39-1.47 275.17-0.90L275.17-0.90L275.17-0.90Q274.94-0.32 274.50 0.06ZM362.56 7.62L362.56 7.62L329.98 7.62L329.98 7.62Q328.45 7.62 327.74 6.91L327.74 6.91L327.74 6.91Q327.04 6.21 327.04 4.67L327.04 4.67L327.04-36.80L327.04-36.80Q327.04-37.63 327.26-38.21L327.26-38.21L327.26-38.21Q327.49-38.78 327.94-39.17L327.94-39.17L336.19-46.14L336.19-46.14Q336.51-46.40 337.06-46.56L337.06-46.56L337.06-46.56Q337.60-46.72 338.24-46.72L338.24-46.72L348.16-46.72L348.16-46.72Q349.70-46.72 350.40-46.02L350.40-46.02L350.40-46.02Q351.10-45.31 351.10-43.78L351.10-43.78L351.10-17.73L351.23-17.86L359.49-24.83L359.49-24.83Q359.81-25.09 360.35-25.25L360.35-25.25L360.35-25.25Q360.90-25.41 361.54-25.41L361.54-25.41L370.82-25.41L370.82-25.41Q372.35-25.41 373.06-24.70L373.06-24.70L373.06-24.70Q373.76-24 373.76-22.46L373.76-22.46L373.76-2.30L373.76-2.30Q373.76-1.47 373.54-0.90L373.54-0.90L373.54-0.90Q373.31-0.32 372.86 0.06L372.86 0.06L364.54 6.98L364.54 6.98Q364.29 7.23 363.74 7.42L363.74 7.42L363.74 7.42Q363.20 7.62 362.56 7.62ZM338.24 0L370.82 0L370.82 0Q372.03 0 372.58-0.54L372.58-0.54L372.58-0.54Q373.12-1.09 373.12-2.30L373.12-2.30L373.12-22.46L373.12-22.46Q373.12-23.68 372.58-24.22L372.58-24.22L372.58-24.22Q372.03-24.77 370.82-24.77L370.82-24.77L361.54-24.77L361.54-24.77Q360.32-24.77 359.78-24.22L359.78-24.22L359.78-24.22Q359.23-23.68 359.23-22.46L359.23-22.46L359.23-12.10L350.46-12.10L350.46-43.78L350.46-43.78Q350.46-44.99 349.92-45.54L349.92-45.54L349.92-45.54Q349.38-46.08 348.16-46.08L348.16-46.08L338.24-46.08L338.24-46.08Q337.02-46.08 336.48-45.54L336.48-45.54L336.48-45.54Q335.94-44.99 335.94-43.78L335.94-43.78L335.94-2.30L335.94-2.30Q335.94-1.09 336.48-0.54L336.48-0.54L336.48-0.54Q337.02 0 338.24 0L338.24 0ZM366.46-5.76L342.91-5.76L342.91-40.32L343.55-40.32L343.55-6.40L365.82-6.40L365.82-19.01L366.46-19.01L366.46-5.76ZM393.28-19.39L393.28-19.39L393.28-17.41L418.24-17.41L418.24-19.39L418.24-19.39Q418.24-21.12 417.95-22.59L417.95-22.59L417.95-22.59Q417.66-24.06 417.22-25.34L417.22-25.34L412.80-35.78L412.80-35.78Q412.10-37.44 411.33-38.56L411.33-38.56L411.33-38.56Q410.56-39.68 408.77-39.68L408.77-39.68L402.50-39.68L402.50-39.68Q400.58-39.68 399.81-38.56L399.81-38.56L399.81-38.56Q399.04-37.44 398.40-35.84L398.40-35.84L394.30-25.34L394.30-25.34Q393.86-24.06 393.57-22.59L393.57-22.59L393.57-22.59Q393.28-21.12 393.28-19.39ZM400.51-22.91L403.52-32.64L403.52-32.64Q403.78-33.22 404.06-33.47L404.06-33.47L404.06-33.47Q404.35-33.73 404.74-33.73L404.74-33.73L406.34-33.73L406.34-33.73Q406.72-33.73 407.01-33.47L407.01-33.47L407.01-33.47Q407.30-33.22 407.55-32.64L407.55-32.64L410.56-22.91L400.51-22.91ZM418.88-5.76L418.24-5.76L418.24-16.77L393.28-16.77L393.28-5.76L392.64-5.76L392.64-19.39L392.64-19.39Q392.64-21.18 392.93-22.69L392.93-22.69L392.93-22.69Q393.22-24.19 393.73-25.60L393.73-25.60L397.82-36.10L397.82-36.10Q398.53-37.89 399.42-39.10L399.42-39.10L399.42-39.10Q400.32-40.32 402.50-40.32L402.50-40.32L408.77-40.32L408.77-40.32Q410.88-40.32 411.74-39.10L411.74-39.10L411.74-39.10Q412.61-37.89 413.38-36.03L413.38-36.03L417.79-25.60L417.79-25.60Q418.30-24.19 418.59-22.69L418.59-22.69L418.59-22.69Q418.88-21.18 418.88-19.39L418.88-19.39L418.88-5.76ZM399.87-2.30L399.87-2.30L399.87-11.26L411.20-11.26L411.20-2.30L411.20-2.30Q411.20-1.09 411.81-0.54L411.81-0.54L411.81-0.54Q412.42 0 413.70 0L413.70 0L423.36 0L423.36 0Q424.58 0 425.12-0.54L425.12-0.54L425.12-0.54Q425.66-1.09 425.66-2.30L425.66-2.30L425.66-19.20L425.66-19.20Q425.66-21.12 425.06-23.62L425.06-23.62L425.06-23.62Q424.45-26.11 423.17-29.44L423.17-29.44L417.60-43.97L417.60-43.97Q417.22-45.06 416.42-45.57L416.42-45.57L416.42-45.57Q415.62-46.08 414.40-46.08L414.40-46.08L397.18-46.08L397.18-46.08Q395.90-46.08 395.10-45.57L395.10-45.57L395.10-45.57Q394.30-45.06 393.92-43.97L393.92-43.97L388.35-29.44L388.35-29.44Q387.07-26.11 386.46-23.62L386.46-23.62L386.46-23.62Q385.86-21.12 385.86-19.20L385.86-19.20L385.86-2.30L385.86-2.30Q385.86-1.09 386.40-0.54L386.40-0.54L386.40-0.54Q386.94 0 388.16 0L388.16 0L397.57 0L397.57 0Q398.78 0 399.33-0.54L399.33-0.54L399.33-0.54Q399.87-1.09 399.87-2.30ZM399.62 0.06L391.30 6.98L391.30 6.98Q391.04 7.23 390.50 7.42L390.50 7.42L390.50 7.42Q389.95 7.62 389.31 7.62L389.31 7.62L379.90 7.62L379.90 7.62Q378.37 7.62 377.66 6.91L377.66 6.91L377.66 6.91Q376.96 6.21 376.96 4.67L376.96 4.67L376.96-12.22L376.96-12.22Q376.96-14.21 377.57-16.74L377.57-16.74L377.57-16.74Q378.18-19.26 379.52-22.72L379.52-22.72L385.02-37.18L385.02-37.18Q385.22-37.76 385.50-38.18L385.50-38.18L385.50-38.18Q385.79-38.59 386.11-38.91L386.11-38.91L386.18-38.98L394.37-45.82L394.37-45.82Q394.88-46.27 395.58-46.50L395.58-46.50L395.58-46.50Q396.29-46.72 397.18-46.72L397.18-46.72L414.40-46.72L414.40-46.72Q415.87-46.72 416.80-46.11L416.80-46.11L416.80-46.11Q417.73-45.50 418.18-44.22L418.18-44.22L423.74-29.70L423.74-29.70Q425.09-26.24 425.70-23.71L425.70-23.71L425.70-23.71Q426.30-21.18 426.30-19.20L426.30-19.20L426.30-2.30L426.30-2.30Q426.30-1.47 426.08-0.90L426.08-0.90L426.08-0.90Q425.86-0.32 425.41 0.06L425.41 0.06L417.09 6.98L417.09 6.98Q416.83 7.23 416.29 7.42L416.29 7.42L416.29 7.42Q415.74 7.62 415.10 7.62L415.10 7.62L405.44 7.62L405.44 7.62Q403.84 7.62 403.07 6.88L403.07 6.88L403.07 6.88Q402.30 6.14 402.30 4.67L402.30 4.67L402.30-3.65L400.51-3.65L400.51-2.30L400.51-2.30Q400.51-1.47 400.29-0.90L400.29-0.90L400.29-0.90Q400.06-0.32 399.62 0.06L399.62 0.06ZM461.38-22.08L462.98-22.08L462.98-22.08Q464-22.08 464.61-21.47L464.61-21.47L464.61-21.47Q465.22-20.86 466.11-19.07L466.11-19.07L472-7.30L472-7.30Q472.32-6.66 472.80-6.53L472.80-6.53L472.80-6.53Q473.28-6.40 473.73-6.40L473.73-6.40L474.05-6.40L474.05-6.40Q474.56-6.40 475.01-6.82L475.01-6.82L475.01-6.82Q475.46-7.23 475.52-7.74L475.52-7.74L477.12-15.04L477.12-15.04Q477.38-16.26 477.41-18.18L477.41-18.18L477.41-18.18Q477.44-20.10 477.44-21.50L477.44-21.50L477.44-40.32L478.08-40.32L478.08-21.44L478.08-21.44Q478.08-20.03 478.05-18.11L478.05-18.11L478.05-18.11Q478.02-16.19 477.76-14.98L477.76-14.98L476.16-7.74L476.16-7.74Q475.90-6.72 475.36-6.24L475.36-6.24L475.36-6.24Q474.82-5.76 474.05-5.76L474.05-5.76L473.60-5.76L473.60-5.76Q473.02-5.76 472.42-5.98L472.42-5.98L472.42-5.98Q471.81-6.21 471.49-6.85L471.49-6.85L465.60-18.75L465.60-18.75Q464.77-20.42 464.26-20.93L464.26-20.93L464.26-20.93Q463.74-21.44 462.98-21.44L462.98-21.44L461.38-21.44L461.38-21.44Q460.61-21.44 460.10-20.93L460.10-20.93L460.10-20.93Q459.58-20.42 458.75-18.75L458.75-18.75L452.86-6.85L452.86-6.85Q452.54-6.21 451.94-5.98L451.94-5.98L451.94-5.98Q451.33-5.76 450.75-5.76L450.75-5.76L450.30-5.76L450.30-5.76Q449.54-5.76 448.99-6.24L448.99-6.24L448.99-6.24Q448.45-6.72 448.19-7.74L448.19-7.74L446.59-14.98L446.59-14.98Q446.34-16.19 446.30-18.11L446.30-18.11L446.30-18.11Q446.27-20.03 446.27-21.44L446.27-21.44L446.27-40.32L446.91-40.32L446.91-21.50L446.91-21.50Q446.91-20.10 446.94-18.18L446.94-18.18L446.94-18.18Q446.98-16.26 447.23-15.04L447.23-15.04L448.83-7.74L448.83-7.74Q448.90-7.23 449.34-6.82L449.34-6.82L449.34-6.82Q449.79-6.40 450.30-6.40L450.30-6.40L450.62-6.40L450.62-6.40Q451.07-6.40 451.55-6.53L451.55-6.53L451.55-6.53Q452.03-6.66 452.35-7.30L452.35-7.30L458.24-19.07L458.24-19.07Q459.14-20.86 459.74-21.47L459.74-21.47L459.74-21.47Q460.35-22.08 461.38-22.08L461.38-22.08ZM482.56-46.08L473.02-46.08L473.02-46.08Q471.81-46.08 471.26-45.54L471.26-45.54L471.26-45.54Q470.72-44.99 470.72-43.78L470.72-43.78L470.72-20.22L467.01-28.29L467.01-28.29Q466.50-29.38 465.66-29.82L465.66-29.82L465.66-29.82Q464.83-30.27 463.62-30.27L463.62-30.27L460.93-30.27L460.93-30.27Q459.71-30.27 458.88-29.82L458.88-29.82L458.88-29.82Q458.05-29.38 457.54-28.29L457.54-28.29L453.82-20.22L453.82-43.78L453.82-43.78Q453.82-44.99 453.28-45.54L453.28-45.54L453.28-45.54Q452.74-46.08 451.52-46.08L451.52-46.08L441.66-46.08L441.66-46.08Q440.45-46.08 439.90-45.54L439.90-45.54L439.90-45.54Q439.36-44.99 439.36-43.78L439.36-43.78L439.36-19.07L439.36-19.07Q439.36-17.02 439.52-15.26L439.52-15.26L439.52-15.26Q439.68-13.50 440.51-11.14L440.51-11.14L443.71-2.30L443.71-2.30Q444.03-1.28 444.77-0.64L444.77-0.64L444.77-0.64Q445.50 0 446.53 0L446.53 0L454.98 0L454.98 0Q456 0 456.70-0.48L456.70-0.48L456.70-0.48Q457.41-0.96 457.66-1.92L457.66-1.92L460.67-12.35L460.67-12.35Q460.86-12.99 461.15-13.22L461.15-13.22L461.15-13.22Q461.44-13.44 461.82-13.44L461.82-13.44L462.40-13.44L462.40-13.44Q462.78-13.44 463.07-13.22L463.07-13.22L463.07-13.22Q463.36-12.99 463.55-12.35L463.55-12.35L466.50-1.92L466.50-1.92Q466.75-0.90 467.58-0.45L467.58-0.45L467.58-0.45Q468.42 0 469.44 0L469.44 0L477.95 0L477.95 0Q478.98 0 479.58-0.67L479.58-0.67L479.58-0.67Q480.19-1.34 480.51-2.30L480.51-2.30L483.71-11.01L483.71-11.01Q484.54-13.38 484.70-15.14L484.70-15.14L484.70-15.14Q484.86-16.90 484.86-18.94L484.86-18.94L484.86-43.78L484.86-43.78Q484.86-44.99 484.32-45.54L484.32-45.54L484.32-45.54Q483.78-46.08 482.56-46.08L482.56-46.08ZM456.32 0.70L448.96 6.85L448.96 6.85Q448.51 7.17 447.94 7.39L447.94 7.39L447.94 7.39Q447.36 7.62 446.72 7.62L446.72 7.62L438.27 7.62L438.27 7.62Q437.06 7.62 436.16 6.85L436.16 6.85L436.16 6.85Q435.26 6.08 434.88 4.86L434.88 4.86L431.68-3.97L431.68-3.97Q430.78-6.34 430.62-8.16L430.62-8.16L430.62-8.16Q430.46-9.98 430.46-12.10L430.46-12.10L430.46-36.80L430.46-36.80Q430.46-37.63 430.69-38.21L430.69-38.21L430.69-38.21Q430.91-38.78 431.36-39.17L431.36-39.17L439.62-46.14L439.62-46.14Q439.94-46.40 440.48-46.56L440.48-46.56L440.48-46.56Q441.02-46.72 441.66-46.72L441.66-46.72L451.52-46.72L451.52-46.72Q453.06-46.72 453.76-46.02L453.76-46.02L453.76-46.02Q454.46-45.31 454.46-43.78L454.46-43.78L454.46-27.07L458.05-30.08L458.05-30.08Q458.56-30.53 459.30-30.72L459.30-30.72L459.30-30.72Q460.03-30.91 460.93-30.91L460.93-30.91L461.82-30.91L461.82-36.80L461.82-36.80Q461.82-37.63 462.02-38.21L462.02-38.21L462.02-38.21Q462.21-38.78 462.59-39.10L462.59-39.10L462.66-39.17L470.98-46.14L470.98-46.14Q471.30-46.40 471.81-46.56L471.81-46.56L471.81-46.56Q472.32-46.72 473.02-46.72L473.02-46.72L482.56-46.72L482.56-46.72Q484.10-46.72 484.80-46.02L484.80-46.02L484.80-46.02Q485.50-45.31 485.50-43.78L485.50-43.78L485.50-18.94L485.50-18.94Q485.50-16.83 485.34-15.01L485.34-15.01L485.34-15.01Q485.18-13.18 484.29-10.82L484.29-10.82L481.09-2.11L481.09-2.11Q480.90-1.47 480.58-0.96L480.58-0.96L480.58-0.96Q480.26-0.45 479.81 0L479.81 0L471.55 6.85L471.55 6.85Q471.17 7.23 470.72 7.42L470.72 7.42L470.72 7.42Q470.27 7.62 469.70 7.62L469.70 7.62L461.18 7.62L461.18 7.62Q459.90 7.62 458.94 7.04L458.94 7.04L458.94 7.04Q457.98 6.46 457.60 5.25L457.60 5.25L456.32 0.70ZM507.97-39.81L507.97-39.81L531.52-13.31L531.52-40.32L532.16-40.32L532.16-5.76L531.52-5.76L531.52-12.35L507.33-39.49L507.33-39.49Q507.26-39.55 507.17-39.62L507.17-39.62L507.17-39.62Q507.07-39.68 507.01-39.68L507.01-39.68L507.01-39.68Q506.94-39.68 506.91-39.62L506.91-39.62L506.91-39.62Q506.88-39.55 506.88-39.49L506.88-39.49L506.88-5.76L506.24-5.76L506.24-39.62L506.24-39.62Q506.24-40 506.50-40.19L506.50-40.19L506.50-40.19Q506.75-40.38 507.01-40.38L507.01-40.38L507.01-40.38Q507.26-40.38 507.46-40.26L507.46-40.26L507.46-40.26Q507.65-40.13 507.97-39.81ZM501.82 0L511.42 0L511.42 0Q512.64 0 513.18-0.54L513.18-0.54L513.18-0.54Q513.73-1.09 513.73-2.30L513.73-2.30L513.73-23.42L524.67-10.18L524.67-2.30L524.67-2.30Q524.67-1.09 525.22-0.54L525.22-0.54L525.22-0.54Q525.76 0 526.98 0L526.98 0L536.58 0L536.58 0Q537.79 0 538.34-0.54L538.34-0.54L538.34-0.54Q538.88-1.09 538.88-2.30L538.88-2.30L538.88-43.78L538.88-43.78Q538.88-44.99 538.34-45.54L538.34-45.54L538.34-45.54Q537.79-46.08 536.58-46.08L536.58-46.08L526.98-46.08L526.98-46.08Q525.76-46.08 525.22-45.54L525.22-45.54L525.22-45.54Q524.67-44.99 524.67-43.78L524.67-43.78L524.67-30.14L512.26-44.35L512.26-44.35Q511.42-45.31 510.56-45.70L510.56-45.70L510.56-45.70Q509.70-46.08 508.48-46.08L508.48-46.08L501.82-46.08L501.82-46.08Q500.61-46.08 500.06-45.54L500.06-45.54L500.06-45.54Q499.52-44.99 499.52-43.78L499.52-43.78L499.52-2.30L499.52-2.30Q499.52-1.09 500.06-0.54L500.06-0.54L500.06-0.54Q500.61 0 501.82 0L501.82 0ZM513.47 0.06L513.47 0.06L505.15 6.98L505.15 6.98Q504.90 7.23 504.35 7.42L504.35 7.42L504.35 7.42Q503.81 7.62 503.17 7.62L503.17 7.62L493.57 7.62L493.57 7.62Q492.03 7.62 491.33 6.91L491.33 6.91L491.33 6.91Q490.62 6.21 490.62 4.67L490.62 4.67L490.62-36.80L490.62-36.80Q490.62-37.63 490.85-38.21L490.85-38.21L490.85-38.21Q491.07-38.78 491.52-39.17L491.52-39.17L499.78-46.14L499.78-46.14Q500.10-46.40 500.64-46.56L500.64-46.56L500.64-46.56Q501.18-46.72 501.82-46.72L501.82-46.72L508.48-46.72L508.48-46.72Q509.89-46.72 510.85-46.27L510.85-46.27L510.85-46.27Q511.81-45.82 512.77-44.80L512.77-44.80L517.18-39.68L524.93-46.14L524.93-46.14Q525.25-46.40 525.79-46.56L525.79-46.56L525.79-46.56Q526.34-46.72 526.98-46.72L526.98-46.72L536.58-46.72L536.58-46.72Q538.11-46.72 538.82-46.02L538.82-46.02L538.82-46.02Q539.52-45.31 539.52-43.78L539.52-43.78L539.52-2.30L539.52-2.30Q539.52-1.47 539.30-0.90L539.30-0.90L539.30-0.90Q539.07-0.32 538.62 0.06L538.62 0.06L530.30 6.98L530.30 6.98Q530.05 7.23 529.50 7.42L529.50 7.42L529.50 7.42Q528.96 7.62 528.32 7.62L528.32 7.62L518.72 7.62L518.72 7.62Q517.18 7.62 516.48 6.91L516.48 6.91L516.48 6.91Q515.78 6.21 515.78 4.67L515.78 4.67L515.78-2.94L514.37-4.67L514.37-2.30L514.37-2.30Q514.37-1.47 514.14-0.90L514.14-0.90L514.14-0.90Q513.92-0.32 513.47 0.06ZM601.86 7.62L601.86 7.62L581.70 7.62L581.70 7.62Q573.31 7.62 569.31 3.26L569.31 3.26L569.31 3.26Q565.31-1.09 565.31-8L565.31-8L565.31-26.05L565.31-26.05Q565.31-29.57 566.34-32.13L566.34-32.13L566.34-32.13Q567.36-34.69 569.34-36.42L569.34-36.42L577.60-43.39L577.60-43.39Q579.58-45.06 582.69-45.89L582.69-45.89L582.69-45.89Q585.79-46.72 589.95-46.72L589.95-46.72L605.95-46.72L605.95-46.72Q607.49-46.72 608.19-46.02L608.19-46.02L608.19-46.02Q608.90-45.31 608.90-43.78L608.90-43.78L608.90-36.03L608.90-36.03Q608.90-35.20 608.67-34.62L608.67-34.62L608.67-34.62Q608.45-34.05 608-33.66L608-33.66L599.68-26.75L599.68-26.75Q599.42-26.50 598.88-26.30L598.88-26.30L598.88-26.30Q598.34-26.11 597.70-26.11L597.70-26.11L589.38-26.11L589.38-16.90L589.38-16.90Q589.44-17.02 589.60-17.18L589.60-17.18L589.60-17.18Q589.76-17.34 589.89-17.47L589.89-17.47L598.14-24.45L598.14-24.45Q598.46-24.70 599.01-24.86L599.01-24.86L599.01-24.86Q599.55-25.02 600.19-25.02L600.19-25.02L610.11-25.02L610.11-25.02Q611.65-25.02 612.35-24.32L612.35-24.32L612.35-24.32Q613.06-23.62 613.06-22.08L613.06-22.08L613.06-2.30L613.06-2.30Q613.06-1.47 612.83-0.90L612.83-0.90L612.83-0.90Q612.61-0.32 612.16 0.06L612.16 0.06L603.84 6.98L603.84 6.98Q603.58 7.23 603.04 7.42L603.04 7.42L603.04 7.42Q602.50 7.62 601.86 7.62ZM589.95 0L610.11 0L610.11 0Q611.33 0 611.87-0.54L611.87-0.54L611.87-0.54Q612.42-1.09 612.42-2.30L612.42-2.30L612.42-22.08L612.42-22.08Q612.42-23.30 611.87-23.84L611.87-23.84L611.87-23.84Q611.33-24.38 610.11-24.38L610.11-24.38L600.19-24.38L600.19-24.38Q598.98-24.38 598.43-23.84L598.43-23.84L598.43-23.84Q597.89-23.30 597.89-22.08L597.89-22.08L597.89-12.10L591.68-12.10L591.68-12.10Q590.21-12.10 589.47-12.86L589.47-12.86L589.47-12.86Q588.74-13.63 588.74-15.23L588.74-15.23L588.74-30.53L588.74-30.53Q588.74-32.13 589.70-32.93L589.70-32.93L589.70-32.93Q590.66-33.73 592.64-33.73L592.64-33.73L605.95-33.73L605.95-33.73Q607.17-33.73 607.71-34.27L607.71-34.27L607.71-34.27Q608.26-34.82 608.26-36.03L608.26-36.03L608.26-43.78L608.26-43.78Q608.26-44.99 607.71-45.54L607.71-45.54L607.71-45.54Q607.17-46.08 605.95-46.08L605.95-46.08L589.95-46.08L589.95-46.08Q581.95-46.08 578.08-42.88L578.08-42.88L578.08-42.88Q574.21-39.68 574.21-33.02L574.21-33.02L574.21-13.06L574.21-13.06Q574.21-6.40 578.08-3.20L578.08-3.20L578.08-3.20Q581.95 0 589.95 0L589.95 0ZM605.44-5.76L592.70-5.76L592.70-5.76Q589.18-5.76 586.94-6.21L586.94-6.21L586.94-6.21Q584.70-6.66 583.42-7.65L583.42-7.65L583.42-7.65Q582.14-8.64 581.66-10.21L581.66-10.21L581.66-10.21Q581.18-11.78 581.18-14.02L581.18-14.02L581.18-31.94L581.18-31.94Q581.18-36.48 583.23-38.40L583.23-38.40L583.23-38.40Q585.28-40.32 591.42-40.32L591.42-40.32L602.50-40.32L602.50-39.68L591.42-39.68L591.42-39.68Q585.79-39.68 583.81-37.92L583.81-37.92L583.81-37.92Q581.82-36.16 581.82-31.94L581.82-31.94L581.82-14.02L581.82-14.02Q581.82-9.86 584.03-8.13L584.03-8.13L584.03-8.13Q586.24-6.40 592.70-6.40L592.70-6.40L604.80-6.40L604.80-18.62L605.44-18.62L605.44-5.76ZM637.82 8.58L637.82 8.58L637.82 8.58Q631.62 8.58 627.62 7.26L627.62 7.26L627.62 7.26Q623.62 5.95 621.38 3.78L621.38 3.78L621.38 3.78Q619.14 1.60 618.27-1.22L618.27-1.22L618.27-1.22Q617.41-4.03 617.41-7.04L617.41-7.04L617.41-36.80L617.41-36.80Q617.41-37.63 617.63-38.21L617.63-38.21L617.63-38.21Q617.86-38.78 618.30-39.17L618.30-39.17L626.56-46.14L626.56-46.14Q626.88-46.40 627.42-46.56L627.42-46.56L627.42-46.56Q627.97-46.72 628.61-46.72L628.61-46.72L638.66-46.72L638.66-46.72Q640.19-46.72 640.90-46.02L640.90-46.02L640.90-46.02Q641.60-45.31 641.60-43.78L641.60-43.78L641.60-14.59L641.60-14.59Q641.60-14.02 641.79-13.54L641.79-13.54L641.79-13.54Q641.98-13.06 642.62-12.80L642.62-12.80L642.62-36.80L642.62-36.80Q642.62-37.63 642.82-38.21L642.82-38.21L642.82-38.21Q643.01-38.78 643.39-39.10L643.39-39.10L643.46-39.17L651.78-46.14L651.78-46.14Q652.10-46.40 652.61-46.56L652.61-46.56L652.61-46.56Q653.12-46.72 653.82-46.72L653.82-46.72L663.55-46.72L663.55-46.72Q665.09-46.72 665.79-46.02L665.79-46.02L665.79-46.02Q666.50-45.31 666.50-43.78L666.50-43.78L666.50-12.10L666.50-12.10Q666.50-9.15 665.66-6.66L665.66-6.66L665.66-6.66Q664.83-4.16 662.66-2.37L662.66-2.37L654.34 4.54L654.34 4.54Q652.10 6.46 648.13 7.52L648.13 7.52L648.13 7.52Q644.16 8.58 637.82 8.58ZM665.86-12.10L665.86-12.10L665.86-43.78L665.86-43.78Q665.86-44.99 665.31-45.54L665.31-45.54L665.31-45.54Q664.77-46.08 663.55-46.08L663.55-46.08L653.82-46.08L653.82-46.08Q652.61-46.08 652.06-45.54L652.06-45.54L652.06-45.54Q651.52-44.99 651.52-43.78L651.52-43.78L651.52-14.59L651.52-14.59Q651.52-13.31 650.56-12.45L650.56-12.45L650.56-12.45Q649.60-11.58 646.21-11.58L646.21-11.58L646.21-11.58Q642.88-11.58 641.92-12.45L641.92-12.45L641.92-12.45Q640.96-13.31 640.96-14.59L640.96-14.59L640.96-43.78L640.96-43.78Q640.96-44.99 640.42-45.54L640.42-45.54L640.42-45.54Q639.87-46.08 638.66-46.08L638.66-46.08L628.61-46.08L628.61-46.08Q627.39-46.08 626.85-45.54L626.85-45.54L626.85-45.54Q626.30-44.99 626.30-43.78L626.30-43.78L626.30-12.10L626.30-12.10Q626.30-9.15 627.17-6.75L627.17-6.75L627.17-6.75Q628.03-4.35 630.24-2.66L630.24-2.66L630.24-2.66Q632.45-0.96 636.29 0L636.29 0L636.29 0Q640.13 0.96 646.08 0.96L646.08 0.96L646.08 0.96Q652.03 0.96 655.87 0L655.87 0L655.87 0Q659.71-0.96 661.92-2.66L661.92-2.66L661.92-2.66Q664.13-4.35 664.99-6.75L664.99-6.75L664.99-6.75Q665.86-9.15 665.86-12.10ZM633.34-13.63L633.34-40.32L633.98-40.32L633.98-13.63L633.98-13.63Q633.98-10.05 636.51-7.84L636.51-7.84L636.51-7.84Q639.04-5.63 646.14-5.63L646.14-5.63L646.14-5.63Q653.25-5.63 655.81-7.84L655.81-7.84L655.81-7.84Q658.37-10.05 658.37-13.63L658.37-13.63L658.37-40.32L659.01-40.32L659.01-13.63L659.01-13.63Q659.01-9.79 656.32-7.39L656.32-7.39L656.32-7.39Q653.63-4.99 646.14-4.99L646.14-4.99L646.14-4.99Q638.66-4.99 636-7.39L636-7.39L636-7.39Q633.34-9.79 633.34-13.63L633.34-13.63ZM695.87 7.62L695.87 7.62L685.50 7.62L685.50 7.62Q683.90 7.62 683.23 6.91L683.23 6.91L683.23 6.91Q682.56 6.21 682.56 4.67L682.56 4.67L682.56-3.33L672.90-16.26L672.90-16.26Q671.36-18.30 670.85-19.84L670.85-19.84L670.85-19.84Q670.34-21.38 670.34-24.51L670.34-24.51L670.34-36.80L670.34-36.80Q670.34-37.63 670.56-38.21L670.56-38.21L670.56-38.21Q670.78-38.78 671.23-39.17L671.23-39.17L679.49-46.14L679.49-46.14Q679.81-46.40 680.35-46.56L680.35-46.56L680.35-46.56Q680.90-46.72 681.54-46.72L681.54-46.72L691.39-46.72L691.39-46.72Q692.93-46.72 693.63-46.02L693.63-46.02L693.63-46.02Q694.34-45.31 694.34-43.78L694.34-43.78L694.34-33.28L694.34-33.28Q694.34-32.70 694.40-32.13L694.40-32.13L694.40-32.13Q694.46-31.55 694.78-30.91L694.78-30.91L695.55-29.82L695.55-36.80L695.55-36.80Q695.55-37.63 695.78-38.21L695.78-38.21L695.78-38.21Q696-38.78 696.45-39.17L696.45-39.17L704.70-46.14L704.70-46.14Q705.02-46.40 705.57-46.56L705.57-46.56L705.57-46.56Q706.11-46.72 706.75-46.72L706.75-46.72L716.29-46.72L716.29-46.72Q717.82-46.72 718.53-46.02L718.53-46.02L718.53-46.02Q719.23-45.31 719.23-43.78L719.23-43.78L719.23-31.49L719.23-31.49Q719.23-28.35 718.72-26.82L718.72-26.82L718.72-26.82Q718.21-25.28 716.67-23.23L716.67-23.23L707.07-10.24L707.07-2.30L707.07-2.30Q707.07-1.47 706.85-0.90L706.85-0.90L706.85-0.90Q706.62-0.32 706.18 0.06L706.18 0.06L697.86 6.98L697.86 6.98Q697.60 7.23 697.06 7.42L697.06 7.42L697.06 7.42Q696.51 7.62 695.87 7.62ZM693.76 0L704.13 0L704.13 0Q705.34 0 705.89-0.54L705.89-0.54L705.89-0.54Q706.43-1.09 706.43-2.30L706.43-2.30L706.43-10.43L716.16-23.62L716.16-23.62Q717.57-25.60 718.08-27.07L718.08-27.07L718.08-27.07Q718.59-28.54 718.59-31.49L718.59-31.49L718.59-43.78L718.59-43.78Q718.59-44.99 718.05-45.54L718.05-45.54L718.05-45.54Q717.50-46.08 716.29-46.08L716.29-46.08L706.75-46.08L706.75-46.08Q705.54-46.08 704.99-45.54L704.99-45.54L704.99-45.54Q704.45-44.99 704.45-43.78L704.45-43.78L704.45-33.28L704.45-33.28Q704.45-32.64 704.38-31.94L704.38-31.94L704.38-31.94Q704.32-31.23 703.87-30.59L703.87-30.59L700.93-25.98L700.93-25.98Q700.61-25.41 700.26-25.15L700.26-25.15L700.26-25.15Q699.90-24.90 699.39-24.90L699.39-24.90L698.75-24.90L698.75-24.90Q698.24-24.90 697.89-25.15L697.89-25.15L697.89-25.15Q697.54-25.41 697.22-25.98L697.22-25.98L694.27-30.59L694.27-30.59Q693.82-31.23 693.76-31.94L693.76-31.94L693.76-31.94Q693.70-32.64 693.70-33.28L693.70-33.28L693.70-43.78L693.70-43.78Q693.70-44.99 693.15-45.54L693.15-45.54L693.15-45.54Q692.61-46.08 691.39-46.08L691.39-46.08L681.54-46.08L681.54-46.08Q680.32-46.08 679.78-45.54L679.78-45.54L679.78-45.54Q679.23-44.99 679.23-43.78L679.23-43.78L679.23-31.49L679.23-31.49Q679.23-28.54 679.71-27.07L679.71-27.07L679.71-27.07Q680.19-25.60 681.66-23.62L681.66-23.62L691.46-10.50L691.46-2.30L691.46-2.30Q691.46-1.09 692-0.54L692-0.54L692-0.54Q692.54 0 693.76 0L693.76 0ZM699.71-16.70L699.71-16.70L699.26-16.70L699.26-5.76L698.62-5.76L698.62-16.70L697.98-16.70L697.98-16.70Q696.58-16.70 695.46-17.34L695.46-17.34L695.46-17.34Q694.34-17.98 693.31-19.39L693.31-19.39L687.10-28.03L687.10-28.03Q686.40-28.99 686.27-30.27L686.27-30.27L686.27-30.27Q686.14-31.55 686.14-32.96L686.14-32.96L686.14-40.32L686.78-40.32L686.78-32.96L686.78-32.96Q686.78-31.62 686.91-30.43L686.91-30.43L686.91-30.43Q687.04-29.25 687.68-28.29L687.68-28.29L693.89-19.65L693.89-19.65Q694.72-18.37 695.81-17.86L695.81-17.86L695.81-17.86Q696.90-17.34 697.98-17.34L697.98-17.34L699.71-17.34L699.71-17.34Q700.93-17.34 701.92-17.89L701.92-17.89L701.92-17.89Q702.91-18.43 703.87-19.65L703.87-19.65L710.27-28.29L710.27-28.29Q710.91-29.12 711.04-30.37L711.04-30.37L711.04-30.37Q711.17-31.62 711.17-32.96L711.17-32.96L711.17-40.32L711.81-40.32L711.81-32.96L711.81-32.96Q711.81-31.55 711.71-30.30L711.71-30.30L711.71-30.30Q711.62-29.06 710.85-28.03L710.85-28.03L704.45-19.39L704.45-19.39Q703.42-17.98 702.30-17.34L702.30-17.34L702.30-17.34Q701.18-16.70 699.71-16.70ZM745.41 7.62L725.18 7.62L725.18 7.62Q723.65 7.62 722.94 6.91L722.94 6.91L722.94 6.91Q722.24 6.21 722.24 4.67L722.24 4.67L722.24-2.82L722.24-2.82Q722.24-3.65 722.46-4.22L722.46-4.22L722.46-4.22Q722.69-4.80 723.14-5.18L723.14-5.18L729.54-10.56L729.54-10.56Q726.14-11.58 724.19-14.05L724.19-14.05L724.19-14.05Q722.24-16.51 722.24-21.12L722.24-21.12L722.24-27.84L722.24-27.84Q722.24-30.72 723.20-32.96L723.20-32.96L723.20-32.96Q724.16-35.20 725.95-36.74L725.95-36.74L734.27-43.71L734.27-43.71Q736-45.12 738.56-45.92L738.56-45.92L738.56-45.92Q741.12-46.72 744.38-46.72L744.38-46.72L762.30-46.72L762.30-46.72Q763.84-46.72 764.54-46.02L764.54-46.02L764.54-46.02Q765.25-45.31 765.25-43.78L765.25-43.78L765.25-36.16L765.25-36.16Q765.25-35.33 765.02-34.75L765.02-34.75L765.02-34.75Q764.80-34.18 764.35-33.79L764.35-33.79L758.59-28.99L758.59-28.99Q762.62-28.10 765.09-25.63L765.09-25.63L765.09-25.63Q767.55-23.17 767.55-17.98L767.55-17.98L767.55-11.26L767.55-11.26Q767.55-8.38 766.59-6.14L766.59-6.14L766.59-6.14Q765.63-3.90 763.78-2.37L763.78-2.37L755.52 4.54L755.52 4.54Q753.73 6.02 751.17 6.82L751.17 6.82L751.17 6.82Q748.61 7.62 745.41 7.62L745.41 7.62ZM733.44 0L753.66 0L753.66 0Q759.81 0 763.36-2.91L763.36-2.91L763.36-2.91Q766.91-5.82 766.91-11.26L766.91-11.26L766.91-17.98L766.91-17.98Q766.91-23.36 764.16-25.66L764.16-25.66L764.16-25.66Q761.41-27.97 756.93-28.61L756.93-28.61L747.39-29.89L747.39-29.89Q746.56-29.95 746.11-30.53L746.11-30.53L746.11-30.53Q745.66-31.10 745.66-31.94L745.66-31.94L745.66-31.94Q745.66-32.77 746.11-33.31L746.11-33.31L746.11-33.31Q746.56-33.86 747.39-33.86L747.39-33.86L762.30-33.86L762.30-33.86Q763.52-33.86 764.06-34.40L764.06-34.40L764.06-34.40Q764.61-34.94 764.61-36.16L764.61-36.16L764.61-43.78L764.61-43.78Q764.61-44.99 764.06-45.54L764.06-45.54L764.06-45.54Q763.52-46.08 762.30-46.08L762.30-46.08L744.38-46.08L744.38-46.08Q738.18-46.08 734.66-43.17L734.66-43.17L734.66-43.17Q731.14-40.26 731.14-34.82L731.14-34.82L731.14-28.10L731.14-28.10Q731.14-22.72 733.86-20.42L733.86-20.42L733.86-20.42Q736.58-18.11 741.06-17.47L741.06-17.47L750.66-16.13L750.66-16.13Q751.49-16.06 751.90-15.55L751.90-15.55L751.90-15.55Q752.32-15.04 752.32-13.95L752.32-13.95L752.32-13.95Q752.32-13.18 751.90-12.64L751.90-12.64L751.90-12.64Q751.49-12.10 750.66-12.10L750.66-12.10L733.44-12.10L733.44-12.10Q732.22-12.10 731.68-11.55L731.68-11.55L731.68-11.55Q731.14-11.01 731.14-9.79L731.14-9.79L731.14-2.30L731.14-2.30Q731.14-1.09 731.68-0.54L731.68-0.54L731.68-0.54Q732.22 0 733.44 0L733.44 0ZM744.64-40.32L758.85-40.32L758.85-39.68L744.64-39.68L744.64-39.68Q741.95-39.68 740.35-38.21L740.35-38.21L740.35-38.21Q738.75-36.74 738.75-34.50L738.75-34.50L738.75-29.25L738.75-29.25Q738.75-27.01 739.65-26.11L739.65-26.11L739.65-26.11Q740.54-25.22 742.02-24.96L742.02-24.96L755.52-22.21L755.52-22.21Q757.44-21.82 758.69-20.54L758.69-20.54L758.69-20.54Q759.94-19.26 759.94-15.94L759.94-15.94L759.94-12.22L759.94-12.22Q759.94-9.41 758.02-7.58L758.02-7.58L758.02-7.58Q756.10-5.76 752.83-5.76L752.83-5.76L736.90-5.76L736.90-6.40L752.83-6.40L752.83-6.40Q755.78-6.40 757.54-8.03L757.54-8.03L757.54-8.03Q759.30-9.66 759.30-12.22L759.30-12.22L759.30-15.94L759.30-15.94Q759.30-18.94 758.24-20.06L758.24-20.06L758.24-20.06Q757.18-21.18 755.39-21.57L755.39-21.57L741.89-24.32L741.89-24.32Q740.22-24.64 739.17-25.63L739.17-25.63L739.17-25.63Q738.11-26.62 738.11-29.25L738.11-29.25L738.11-34.50L738.11-34.50Q738.11-37.06 739.90-38.69L739.90-38.69L739.90-38.69Q741.70-40.32 744.64-40.32L744.64-40.32Z" fill="url(#editing-shiny-gradient2)"></path></g></g><style>text {
  font-size: 64px;
  font-family: Arial Black;
  dominant-baseline: central;
  text-anchor: middle;
}</style></svg>