<svg width="583.6350341796875px" height="95.94751586914062px" xmlns="http://www.w3.org/2000/svg" viewBox="-41.81751708984376 27.02624206542969 583.6350341796875 95.94751586914062" style="background: none;" preserveAspectRatio="xMidYMid"><defs><linearGradient id="editing-shiny-gradient" x1="0.04322727117869957" x2="0.9567727288213004" y1="0.2966316784620999" y2="0.7033683215379001" gradientUnits="objectBoundingBox"><stop offset="0.0" stop-color="#77ee86"></stop><stop offset="0.5" stop-color="#7ddc82"></stop><stop offset="1.0" stop-color="#92ee23"></stop></linearGradient><linearGradient id="editing-shiny-gradient2" x1="0" x2="0" y1="0" y2="1"><stop offset="0.2" stop-color="#fff" stop-opacity="0.8"></stop><stop offset="0.8" stop-color="#fff" stop-opacity="0"></stop></linearGradient><filter id="editing-shiny2" x="-100%" y="-100%" width="300%" height="300%"><feMorphology operator="erode" radius="2"></feMorphology></filter><filter id="editing-shiny" x="-100%" y="-100%" width="300%" height="300%"><feFlood flood-color="#fff" result="flood"></feFlood><feConvolveMatrix in="SourceGraphic" result="conv" order="8,8" divisor="1" kernelMatrix="0 0 0 0 0 0 0 0 0 0 0 1 1 0 0 0 0 0 0 1 1 0 0 0 0 0 1 0 0 1 0 0 0 0 1 0 0 1 0 0 0 1 0 0 0 0 1 0 0 1 1 0 0 1 1 0 0 0 0 1 1 0 0 0 "></feConvolveMatrix><feOffset dx="0" dy="4" in="conv" result="offset"></feOffset><feComposite operator="in" in="flood" in2="offset" result="comp"></feComposite><feGaussianBlur in="offset" stdDeviation="3" result="shadow"></feGaussianBlur><feColorMatrix in="shadow" type="matrix" values="0.7 0 0 0 0  0 0.7 0 0 0  0 0 0.7 0 0  0 0 0 0.3 0" result="dark-shadow"></feColorMatrix><feOffset dx="0" dy="4" in="dark-shadow" result="offset-shadow"></feOffset><feOffset dx="0" dy="2" in="conv" result="offset-2"></feOffset><feComposite operator="out" in="offset" in2="offset-2" result="edge-diff"></feComposite><feGaussianBlur in="edge-diff" stdDeviation="1" result="edge-blur"></feGaussianBlur><feColorMatrix in="edge-blur" result="edge-shadow" type="matrix" values="0 0 0 0 0  0 0 0 0 0  0 0 0 0 0  0 0 0 0.5 0"></feColorMatrix><feComposite operator="in" in="edge-shadow" in2="offset" result="edge-shadow-in"></feComposite><feOffset dx="0" dy="1" in="edge-shadow-in" result="edge-shadow-final"></feOffset><feMerge result="out"><feMergeNode in="offset-shadow"></feMergeNode><feMergeNode in="comp"></feMergeNode><feMergeNode in="edge-shadow-final"></feMergeNode><feMergeNode in="SourceGraphic"></feMergeNode></feMerge></filter></defs><g filter="url(#editing-shiny)"><g transform="translate(45.06937316060066, 95.125)"><path d="M8.63-2.13L0.21 0.05L0.21 0.05Q1.61-6.86 2.91-13.47L2.91-13.47L2.91-13.47Q3.38-16.28 3.95-19.32L3.95-19.32L3.95-19.32Q4.52-22.36 5.02-25.35L5.02-25.35L5.02-25.35Q5.51-28.34 5.95-31.12L5.95-31.12L5.95-31.12Q6.40-33.90 6.66-36.19L6.66-36.19L6.66-36.19Q9.62-37.13 13.05-37.57L13.05-37.57L13.05-37.57Q16.48-38.01 19.86-38.01L19.86-38.01L19.86-38.01Q21.89-38.01 23.22-37.54L23.22-37.54L23.22-37.54Q24.54-37.08 25.30-36.22L25.30-36.22L25.30-36.22Q26.05-35.36 26.36-34.22L26.36-34.22L26.36-34.22Q26.68-33.07 26.68-31.67L26.68-31.67L26.68-31.67Q26.68-29.59 25.95-27.59L25.95-27.59L25.95-27.59Q25.22-25.58 24.00-23.79L24.00-23.79L24.00-23.79Q22.78-22.00 21.19-20.51L21.19-20.51L21.19-20.51Q19.60-19.03 17.78-18.10L17.78-18.10L17.78-18.10Q18.72-16.02 19.79-13.55L19.79-13.55L19.79-13.55Q20.85-11.08 21.79-8.84L21.79-8.84L21.79-8.84Q22.83-6.24 23.92-3.64L23.92-3.64L15.86-0.83L15.86-0.83Q14.82-4.42 13.99-7.59L13.99-7.59L13.99-7.59Q13.62-8.89 13.26-10.27L13.26-10.27L13.26-10.27Q12.90-11.65 12.58-12.87L12.58-12.87L12.58-12.87Q12.27-14.09 12.06-15.03L12.06-15.03L12.06-15.03Q11.86-15.96 11.80-16.48L11.80-16.48L11.13-16.28L11.13-16.28Q10.82-14.61 10.37-12.22L10.37-12.22L10.37-12.22Q9.93-9.83 9.57-7.59L9.57-7.59L9.57-7.59Q9.10-4.94 8.63-2.13L8.63-2.13ZM14.09-30.78L12.43-22.52L12.43-22.52Q13.42-22.62 14.85-23.35L14.85-23.35L14.85-23.35Q16.28-24.08 17.58-25.09L17.58-25.09L17.58-25.09Q18.88-26.10 19.81-27.20L19.81-27.20L19.81-27.20Q20.75-28.29 20.75-29.12L20.75-29.12L20.75-29.12Q20.75-29.69 20.38-30.03L20.38-30.03L20.38-30.03Q20.02-30.37 19.37-30.55L19.37-30.55L19.37-30.55Q18.72-30.73 17.94-30.78L17.94-30.78L17.94-30.78Q17.16-30.84 16.33-30.84L16.33-30.84L16.33-30.84Q15.76-30.84 15.16-30.81L15.16-30.81L15.16-30.81Q14.56-30.78 14.09-30.78L14.09-30.78ZM42.22-1.04L42.22-1.04Q40.92-0.83 39.36-0.57L39.36-0.57L39.36-0.57Q37.80-0.31 36.56-0.10L36.56-0.10L36.56-0.10Q36.76-1.82 36.97-3.48L36.97-3.48L36.97-3.48Q37.13-4.94 37.26-6.40L37.26-6.40L37.26-6.40Q37.39-7.85 37.49-8.89L37.49-8.89L32.97-8.89L30.89-1.40L30.89-1.40Q29.74-1.25 28.18-1.07L28.18-1.07L28.18-1.07Q26.62-0.88 25.27-0.73L25.27-0.73L25.27-0.73Q23.61-0.52 22.00-0.31L22.00-0.31L22.00-0.31Q24.08-7.23 26.10-13.94L26.10-13.94L26.10-13.94Q26.94-16.74 27.85-19.81L27.85-19.81L27.85-19.81Q28.76-22.88 29.67-25.92L29.67-25.92L29.67-25.92Q30.58-28.96 31.41-31.77L31.41-31.77L31.41-31.77Q32.24-34.58 32.86-36.92L32.86-36.92L32.86-36.92Q36.40-37.18 40.07-37.54L40.07-37.54L40.07-37.54Q43.73-37.91 47.22-38.53L47.22-38.53L47.22-38.53Q47.06-36.87 46.88-34.40L46.88-34.40L46.88-34.40Q46.70-31.93 46.54-29.02L46.54-29.02L46.54-29.02Q46.38-26.10 46.23-22.93L46.23-22.93L46.23-22.93Q46.07-19.76 45.92-16.69L45.92-16.69L45.92-16.69Q45.66-9.52 45.34-1.46L45.34-1.46L45.34-1.46Q43.78-1.20 42.22-1.04L42.22-1.04ZM37.44-27.14L34.22-14.09L34.22-14.09Q34.42-14.09 34.97-14.12L34.97-14.12L34.97-14.12Q35.52-14.14 36.11-14.17L36.11-14.17L36.11-14.17Q36.71-14.20 37.23-14.22L37.23-14.22L37.23-14.22Q37.75-14.25 37.96-14.30L37.96-14.30L37.96-14.30Q37.96-14.61 38.04-15.37L38.04-15.37L38.04-15.37Q38.12-16.12 38.19-17.08L38.19-17.08L38.19-17.08Q38.27-18.04 38.38-19.19L38.38-19.19L38.38-19.19Q38.48-20.33 38.58-21.42L38.58-21.42L38.58-21.42Q38.79-24.08 39.10-27.14L39.10-27.14L39.42-31.67L38.64-31.62L37.44-27.14ZM72.07-26.57L72.07-26.57Q72.07-23.87 71.29-20.83L71.29-20.83L71.29-20.83Q70.51-17.78 69.11-14.79L69.11-14.79L69.11-14.79Q67.70-11.80 65.65-9.07L65.65-9.07L65.65-9.07Q63.60-6.34 61.00-4.29L61.00-4.29L61.00-4.29Q58.40-2.24 55.30-0.99L55.30-0.99L55.30-0.99Q52.21 0.26 48.72 0.26L48.72 0.26L48.72 0.26Q48.00 0.26 47.27 0.18L47.27 0.18L47.27 0.18Q46.54 0.10 45.81 0L45.81 0L45.81 0Q47.22-7.18 48.57-13.99L48.57-13.99L48.57-13.99Q49.09-16.85 49.66-19.94L49.66-19.94L49.66-19.94Q50.23-23.04 50.75-26.05L50.75-26.05L50.75-26.05Q51.27-29.07 51.77-31.82L51.77-31.82L51.77-31.82Q52.26-34.58 52.57-36.82L52.57-36.82L52.57-36.82Q54.81-37.23 57.10-37.60L57.10-37.60L57.10-37.60Q59.38-37.96 61.78-37.96L61.78-37.96L61.78-37.96Q64.58-37.96 66.53-37.08L66.53-37.08L66.53-37.08Q68.48-36.19 69.71-34.63L69.71-34.63L69.71-34.63Q70.93-33.07 71.50-30.99L71.50-30.99L71.50-30.99Q72.07-28.91 72.07-26.57L72.07-26.57ZM59.80-30.63L59.80-30.63Q59.23-27.56 58.60-24.75L58.60-24.75L58.60-24.75Q57.98-21.94 57.36-19.08L57.36-19.08L57.36-19.08Q56.73-16.22 56.11-13.10L56.11-13.10L56.11-13.10Q55.48-9.98 54.91-6.29L54.91-6.29L54.91-6.29Q56.16-7.12 57.33-8.55L57.33-8.55L57.33-8.55Q58.50-9.98 59.54-11.86L59.54-11.86L59.54-11.86Q60.58-13.73 61.44-15.81L61.44-15.81L61.44-15.81Q62.30-17.89 62.92-19.86L62.92-19.86L62.92-19.86Q63.54-21.84 63.88-23.56L63.88-23.56L63.88-23.56Q64.22-25.27 64.22-26.52L64.22-26.52L64.22-26.52Q64.22-28.44 63.15-29.54L63.15-29.54L63.15-29.54Q62.09-30.63 59.80-30.63L59.80-30.63ZM105.14-26.57L105.14-26.57Q105.14-23.87 104.36-20.83L104.36-20.83L104.36-20.83Q103.58-17.78 102.18-14.79L102.18-14.79L102.18-14.79Q100.78-11.80 98.72-9.07L98.72-9.07L98.72-9.07Q96.67-6.34 94.07-4.29L94.07-4.29L94.07-4.29Q91.47-2.24 88.37-0.99L88.37-0.99L88.37-0.99Q85.28 0.26 81.80 0.26L81.80 0.26L81.80 0.26Q81.07 0.26 80.34 0.18L80.34 0.18L80.34 0.18Q79.61 0.10 78.88 0L78.88 0L78.88 0Q80.29-7.18 81.64-13.99L81.64-13.99L81.64-13.99Q82.16-16.85 82.73-19.94L82.73-19.94L82.73-19.94Q83.30-23.04 83.82-26.05L83.82-26.05L83.82-26.05Q84.34-29.07 84.84-31.82L84.84-31.82L84.84-31.82Q85.33-34.58 85.64-36.82L85.64-36.82L85.64-36.82Q87.88-37.23 90.17-37.60L90.17-37.60L90.17-37.60Q92.46-37.96 94.85-37.96L94.85-37.96L94.85-37.96Q97.66-37.96 99.61-37.08L99.61-37.08L99.61-37.08Q101.56-36.19 102.78-34.63L102.78-34.63L102.78-34.63Q104-33.07 104.57-30.99L104.57-30.99L104.57-30.99Q105.14-28.91 105.14-26.57L105.14-26.57ZM92.87-30.63L92.87-30.63Q92.30-27.56 91.68-24.75L91.68-24.75L91.68-24.75Q91.05-21.94 90.43-19.08L90.43-19.08L90.43-19.08Q89.80-16.22 89.18-13.10L89.18-13.10L89.18-13.10Q88.56-9.98 87.98-6.29L87.98-6.29L87.98-6.29Q89.23-7.12 90.40-8.55L90.40-8.55L90.40-8.55Q91.57-9.98 92.61-11.86L92.61-11.86L92.61-11.86Q93.65-13.73 94.51-15.81L94.51-15.81L94.51-15.81Q95.37-17.89 95.99-19.86L95.99-19.86L95.99-19.86Q96.62-21.84 96.95-23.56L96.95-23.56L96.95-23.56Q97.29-25.27 97.29-26.52L97.29-26.52L97.29-26.52Q97.29-28.44 96.23-29.54L96.23-29.54L96.23-29.54Q95.16-30.63 92.87-30.63L92.87-30.63ZM120.74-1.04L120.74-1.04Q119.44-0.83 117.88-0.57L117.88-0.57L117.88-0.57Q116.32-0.31 115.08-0.10L115.08-0.10L115.08-0.10Q115.28-1.82 115.49-3.48L115.49-3.48L115.49-3.48Q115.65-4.94 115.78-6.40L115.78-6.40L115.78-6.40Q115.91-7.85 116.01-8.89L116.01-8.89L111.49-8.89L109.41-1.40L109.41-1.40Q108.26-1.25 106.70-1.07L106.70-1.07L106.70-1.07Q105.14-0.88 103.79-0.73L103.79-0.73L103.79-0.73Q102.13-0.52 100.52-0.31L100.52-0.31L100.52-0.31Q102.60-7.23 104.62-13.94L104.62-13.94L104.62-13.94Q105.46-16.74 106.37-19.81L106.37-19.81L106.37-19.81Q107.28-22.88 108.19-25.92L108.19-25.92L108.19-25.92Q109.10-28.96 109.93-31.77L109.93-31.77L109.93-31.77Q110.76-34.58 111.38-36.92L111.38-36.92L111.38-36.92Q114.92-37.18 118.59-37.54L118.59-37.54L118.59-37.54Q122.25-37.91 125.74-38.53L125.74-38.53L125.74-38.53Q125.58-36.87 125.40-34.40L125.40-34.40L125.40-34.40Q125.22-31.93 125.06-29.02L125.06-29.02L125.06-29.02Q124.90-26.10 124.75-22.93L124.75-22.93L124.75-22.93Q124.59-19.76 124.44-16.69L124.44-16.69L124.44-16.69Q124.18-9.52 123.86-1.46L123.86-1.46L123.86-1.46Q122.30-1.20 120.74-1.04L120.74-1.04ZM115.96-27.14L112.74-14.09L112.74-14.09Q112.94-14.09 113.49-14.12L113.49-14.12L113.49-14.12Q114.04-14.14 114.63-14.17L114.63-14.17L114.63-14.17Q115.23-14.20 115.75-14.22L115.75-14.22L115.75-14.22Q116.27-14.25 116.48-14.30L116.48-14.30L116.48-14.30Q116.48-14.61 116.56-15.37L116.56-15.37L116.56-15.37Q116.64-16.12 116.71-17.08L116.71-17.08L116.71-17.08Q116.79-18.04 116.90-19.19L116.90-19.19L116.90-19.19Q117-20.33 117.10-21.42L117.10-21.42L117.10-21.42Q117.31-24.08 117.62-27.14L117.62-27.14L117.94-31.67L117.16-31.62L115.96-27.14ZM150.59-26.57L150.59-26.57Q150.59-23.87 149.81-20.83L149.81-20.83L149.81-20.83Q149.03-17.78 147.63-14.79L147.63-14.79L147.63-14.79Q146.22-11.80 144.17-9.07L144.17-9.07L144.17-9.07Q142.12-6.34 139.52-4.29L139.52-4.29L139.52-4.29Q136.92-2.24 133.82-0.99L133.82-0.99L133.82-0.99Q130.73 0.26 127.24 0.26L127.24 0.26L127.24 0.26Q126.52 0.26 125.79 0.18L125.79 0.18L125.79 0.18Q125.06 0.10 124.33 0L124.33 0L124.33 0Q125.74-7.18 127.09-13.99L127.09-13.99L127.09-13.99Q127.61-16.85 128.18-19.94L128.18-19.94L128.18-19.94Q128.75-23.04 129.27-26.05L129.27-26.05L129.27-26.05Q129.79-29.07 130.29-31.82L130.29-31.82L130.29-31.82Q130.78-34.58 131.09-36.82L131.09-36.82L131.09-36.82Q133.33-37.23 135.62-37.60L135.62-37.60L135.62-37.60Q137.90-37.96 140.30-37.96L140.30-37.96L140.30-37.96Q143.10-37.96 145.05-37.08L145.05-37.08L145.05-37.08Q147.00-36.19 148.23-34.63L148.23-34.63L148.23-34.63Q149.45-33.07 150.02-30.99L150.02-30.99L150.02-30.99Q150.59-28.91 150.59-26.57L150.59-26.57ZM138.32-30.63L138.32-30.63Q137.75-27.56 137.12-24.75L137.12-24.75L137.12-24.75Q136.50-21.94 135.88-19.08L135.88-19.08L135.88-19.08Q135.25-16.22 134.63-13.10L134.63-13.10L134.63-13.10Q134.00-9.98 133.43-6.29L133.43-6.29L133.43-6.29Q134.68-7.12 135.85-8.55L135.85-8.55L135.85-8.55Q137.02-9.98 138.06-11.86L138.06-11.86L138.06-11.86Q139.10-13.73 139.96-15.81L139.96-15.81L139.96-15.81Q140.82-17.89 141.44-19.86L141.44-19.86L141.44-19.86Q142.06-21.84 142.40-23.56L142.40-23.56L142.40-23.56Q142.74-25.27 142.74-26.52L142.74-26.52L142.74-26.52Q142.74-28.44 141.67-29.54L141.67-29.54L141.67-29.54Q140.61-30.63 138.32-30.63L138.32-30.63ZM170.09-12.84L170.09-12.84Q170.09-9.93 168.97-7.57L168.97-7.57L168.97-7.57Q167.86-5.20 165.96-3.48L165.96-3.48L165.96-3.48Q164.06-1.77 161.49-0.83L161.49-0.83L161.49-0.83Q158.91 0.10 155.95 0.10L155.95 0.10L155.95 0.10Q153.87 0.10 151.79-1.01L151.79-1.01L151.79-1.01Q149.71-2.13 147.78-4.58L147.78-4.58L151.63-12.12L151.63-12.12Q152.00-11.44 152.72-10.74L152.72-10.74L152.72-10.74Q153.45-10.04 154.36-9.52L154.36-9.52L154.36-9.52Q155.27-9.00 156.18-8.66L156.18-8.66L156.18-8.66Q157.09-8.32 157.82-8.32L157.82-8.32L157.82-8.32Q158.44-8.32 159.12-8.53L159.12-8.53L159.12-8.53Q159.80-8.74 160.37-9.15L160.37-9.15L160.37-9.15Q160.94-9.57 161.28-10.11L161.28-10.11L161.28-10.11Q161.62-10.66 161.62-11.39L161.62-11.39L161.62-11.39Q161.62-12.64 160.81-13.70L160.81-13.70L160.81-13.70Q160.00-14.77 158.81-15.73L158.81-15.73L158.81-15.73Q157.61-16.69 156.21-17.68L156.21-17.68L156.21-17.68Q154.80-18.67 153.63-19.76L153.63-19.76L153.63-19.76Q152.46-20.85 151.63-22.20L151.63-22.20L151.63-22.20Q150.80-23.56 150.80-25.22L150.80-25.22L150.80-25.22Q150.80-27.92 152.41-30.26L152.41-30.26L152.41-30.26Q154.02-32.60 156.44-34.29L156.44-34.29L156.44-34.29Q158.86-35.98 161.72-36.97L161.72-36.97L161.72-36.97Q164.58-37.96 167.13-37.96L167.13-37.96L167.13-37.96Q168.53-37.96 169.78-37.62L169.78-37.62L169.78-37.62Q171.03-37.28 171.94-36.53L171.94-36.53L171.94-36.53Q172.85-35.78 173.39-34.63L173.39-34.63L173.39-34.63Q173.94-33.49 173.94-31.77L173.94-31.77L173.94-31.77Q173.94-31.04 173.81-30.32L173.81-30.32L173.81-30.32Q173.68-29.59 173.58-28.76L173.58-28.76L166.04-26.57L166.04-26.57Q166.14-26.99 166.22-27.40L166.22-27.40L166.22-27.40Q166.30-27.82 166.30-28.24L166.30-28.24L166.30-28.24Q166.30-29.80 165.75-30.50L165.75-30.50L165.75-30.50Q165.20-31.20 164.32-31.20L164.32-31.20L164.32-31.20Q163.90-31.20 163.31-30.89L163.31-30.89L163.31-30.89Q162.71-30.58 162.11-30.08L162.11-30.08L162.11-30.08Q161.51-29.59 161.10-28.91L161.10-28.91L161.10-28.91Q160.68-28.24 160.68-27.46L160.68-27.46L160.68-27.46Q160.68-26.21 161.38-25.38L161.38-25.38L161.38-25.38Q162.08-24.54 163.12-23.82L163.12-23.82L163.12-23.82Q164.16-23.09 165.39-22.33L165.39-22.33L165.39-22.33Q166.61-21.58 167.65-20.38L167.65-20.38L167.65-20.38Q168.69-19.19 169.39-17.39L169.39-17.39L169.39-17.39Q170.09-15.60 170.09-12.84L170.09-12.84ZM193.91-1.66L193.91-1.66Q192.30-1.66 190.50-1.56L190.50-1.56L190.50-1.56Q188.71-1.46 186.89-1.25L186.89-1.25L186.89-1.25Q185.07-1.04 183.33-0.70L183.33-0.70L183.33-0.70Q181.58-0.36 180.18 0.10L180.18 0.10L180.18 0.10Q180.49-2.24 180.91-5.10L180.91-5.10L180.91-5.10Q181.32-7.96 181.87-11.02L181.87-11.02L181.87-11.02Q182.42-14.09 182.96-17.21L182.96-17.21L182.96-17.21Q183.51-20.33 184.08-23.19L184.08-23.19L184.08-23.19Q185.38-30.00 186.84-37.08L186.84-37.08L195.94-38.27L195.94-38.27Q194.53-32.24 193.23-26.52L193.23-26.52L193.23-26.52Q192.66-24.08 192.09-21.45L192.09-21.45L192.09-21.45Q191.52-18.82 191.00-16.33L191.00-16.33L191.00-16.33Q190.48-13.83 190.06-11.49L190.06-11.49L190.06-11.49Q189.64-9.15 189.38-7.33L189.38-7.33L189.38-7.33Q190.68-7.44 192.17-7.46L192.17-7.46L192.17-7.46Q193.65-7.49 194.79-7.49L194.79-7.49L194.79-7.49Q194.84-6.50 194.95-5.54L194.95-5.54L194.95-5.54Q195.05-4.58 195.18-3.80L195.18-3.80L195.18-3.80Q195.31-3.02 195.39-2.42L195.39-2.42L195.39-2.42Q195.47-1.82 195.52-1.61L195.52-1.61L195.52-1.61Q195.10-1.61 194.71-1.64L194.71-1.64L194.71-1.64Q194.32-1.66 193.91-1.66L193.91-1.66ZM214.40-1.04L214.40-1.04Q213.10-0.83 211.54-0.57L211.54-0.57L211.54-0.57Q209.98-0.31 208.73-0.10L208.73-0.10L208.73-0.10Q208.94-1.82 209.14-3.48L209.14-3.48L209.14-3.48Q209.30-4.94 209.43-6.40L209.43-6.40L209.43-6.40Q209.56-7.85 209.66-8.89L209.66-8.89L205.14-8.89L203.06-1.40L203.06-1.40Q201.92-1.25 200.36-1.07L200.36-1.07L200.36-1.07Q198.80-0.88 197.44-0.73L197.44-0.73L197.44-0.73Q195.78-0.52 194.17-0.31L194.17-0.31L194.17-0.31Q196.25-7.23 198.28-13.94L198.28-13.94L198.28-13.94Q199.11-16.74 200.02-19.81L200.02-19.81L200.02-19.81Q200.93-22.88 201.84-25.92L201.84-25.92L201.84-25.92Q202.75-28.96 203.58-31.77L203.58-31.77L203.58-31.77Q204.41-34.58 205.04-36.92L205.04-36.92L205.04-36.92Q208.57-37.18 212.24-37.54L212.24-37.54L212.24-37.54Q215.90-37.91 219.39-38.53L219.39-38.53L219.39-38.53Q219.23-36.87 219.05-34.40L219.05-34.40L219.05-34.40Q218.87-31.93 218.71-29.02L218.71-29.02L218.71-29.02Q218.56-26.10 218.40-22.93L218.40-22.93L218.40-22.93Q218.24-19.76 218.09-16.69L218.09-16.69L218.09-16.69Q217.83-9.52 217.52-1.46L217.52-1.46L217.52-1.46Q215.96-1.20 214.40-1.04L214.40-1.04ZM209.61-27.14L206.39-14.09L206.39-14.09Q206.60-14.09 207.14-14.12L207.14-14.12L207.14-14.12Q207.69-14.14 208.29-14.17L208.29-14.17L208.29-14.17Q208.88-14.20 209.40-14.22L209.40-14.22L209.40-14.22Q209.92-14.25 210.13-14.30L210.13-14.30L210.13-14.30Q210.13-14.61 210.21-15.37L210.21-15.37L210.21-15.37Q210.29-16.12 210.37-17.08L210.37-17.08L210.37-17.08Q210.44-18.04 210.55-19.19L210.55-19.19L210.55-19.19Q210.65-20.33 210.76-21.42L210.76-21.42L210.76-21.42Q210.96-24.08 211.28-27.14L211.28-27.14L211.59-31.67L210.81-31.62L209.61-27.14ZM225.63-1.51L218.04 0.26L218.04 0.26Q219.60-7.23 221.00-14.25L221.00-14.25L221.00-14.25Q221.52-17.26 222.12-20.49L222.12-20.49L222.12-20.49Q222.72-23.71 223.24-26.86L223.24-26.86L223.24-26.86Q223.76-30.00 224.17-32.89L224.17-32.89L224.17-32.89Q224.59-35.78 224.80-38.12L224.80-38.12L224.80-38.12Q225.47-38.06 225.94-38.06L225.94-38.06L225.94-38.06Q226.41-38.06 227.03-38.06L227.03-38.06L227.03-38.06Q227.76-38.06 228.80-38.09L228.80-38.09L228.80-38.09Q229.84-38.12 230.88-38.17L230.88-38.17L230.88-38.17Q231.92-38.22 233.12-38.27L233.12-38.27L233.12-38.27Q233.84-34.63 234.42-31.25L234.42-31.25L234.42-31.25Q234.99-28.29 235.59-25.17L235.59-25.17L235.59-25.17Q236.18-22.05 236.65-19.86L236.65-19.86L236.65-19.86Q236.86-20.90 237.12-22.28L237.12-22.28L237.12-22.28Q237.38-23.66 237.69-25.17L237.69-25.17L237.69-25.17Q238.00-26.68 238.29-28.21L238.29-28.21L238.29-28.21Q238.58-29.74 238.89-31.25L238.89-31.25L238.89-31.25Q239.62-34.63 240.40-38.22L240.40-38.22L246.74-39L246.74-39Q244.97-31.04 243.62-23.92L243.62-23.92L243.62-23.92Q243.00-20.85 242.40-17.71L242.40-17.71L242.40-17.71Q241.80-14.56 241.28-11.67L241.28-11.67L241.28-11.67Q240.76-8.79 240.40-6.32L240.40-6.32L240.40-6.32Q240.03-3.85 239.82-2.18L239.82-2.18L239.82-2.18Q239.67-2.18 238.60-1.95L238.60-1.95L238.60-1.95Q237.54-1.72 236.16-1.40L236.16-1.40L236.16-1.40Q234.78-1.09 233.40-0.78L233.40-0.78L233.40-0.78Q232.02-0.47 231.35-0.21L231.35-0.21L231.35-0.21Q231.04-4.37 230.67-8.11L230.67-8.11L230.67-8.11Q230.52-9.72 230.33-11.41L230.33-11.41L230.33-11.41Q230.15-13.10 229.94-14.66L229.94-14.66L229.94-14.66Q229.74-16.22 229.53-17.58L229.53-17.58L229.53-17.58Q229.32-18.93 229.11-19.92L229.11-19.92L229.11-19.92Q228.96-18.93 228.70-17.63L228.70-17.63L228.70-17.63Q228.44-16.33 228.18-14.87L228.18-14.87L228.18-14.87Q227.92-13.42 227.66-11.83L227.66-11.83L227.66-11.83Q227.40-10.24 227.08-8.79L227.08-8.79L227.08-8.79Q226.41-5.30 225.63-1.51L225.63-1.51ZM267.75-26.57L267.75-26.57Q267.75-23.87 266.97-20.83L266.97-20.83L266.97-20.83Q266.19-17.78 264.78-14.79L264.78-14.79L264.78-14.79Q263.38-11.80 261.33-9.07L261.33-9.07L261.33-9.07Q259.27-6.34 256.67-4.29L256.67-4.29L256.67-4.29Q254.07-2.24 250.98-0.99L250.98-0.99L250.98-0.99Q247.88 0.26 244.40 0.26L244.40 0.26L244.40 0.26Q243.67 0.26 242.94 0.18L242.94 0.18L242.94 0.18Q242.22 0.10 241.49 0L241.49 0L241.49 0Q242.89-7.18 244.24-13.99L244.24-13.99L244.24-13.99Q244.76-16.85 245.34-19.94L245.34-19.94L245.34-19.94Q245.91-23.04 246.43-26.05L246.43-26.05L246.43-26.05Q246.95-29.07 247.44-31.82L247.44-31.82L247.44-31.82Q247.94-34.58 248.25-36.82L248.25-36.82L248.25-36.82Q250.48-37.23 252.77-37.60L252.77-37.60L252.77-37.60Q255.06-37.96 257.45-37.96L257.45-37.96L257.45-37.96Q260.26-37.96 262.21-37.08L262.21-37.08L262.21-37.08Q264.16-36.19 265.38-34.63L265.38-34.63L265.38-34.63Q266.60-33.07 267.18-30.99L267.18-30.99L267.18-30.99Q267.75-28.91 267.75-26.57L267.75-26.57ZM255.48-30.63L255.48-30.63Q254.90-27.56 254.28-24.75L254.28-24.75L254.28-24.75Q253.66-21.94 253.03-19.08L253.03-19.08L253.03-19.08Q252.41-16.22 251.78-13.10L251.78-13.10L251.78-13.10Q251.16-9.98 250.59-6.29L250.59-6.29L250.59-6.29Q251.84-7.12 253.01-8.55L253.01-8.55L253.01-8.55Q254.18-9.98 255.22-11.86L255.22-11.86L255.22-11.86Q256.26-13.73 257.11-15.81L257.11-15.81L257.11-15.81Q257.97-17.89 258.60-19.86L258.60-19.86L258.60-19.86Q259.22-21.84 259.56-23.56L259.56-23.56L259.56-23.56Q259.90-25.27 259.90-26.52L259.90-26.52L259.90-26.52Q259.90-28.44 258.83-29.54L258.83-29.54L258.83-29.54Q257.76-30.63 255.48-30.63L255.48-30.63ZM287.25-12.84L287.25-12.84Q287.25-9.93 286.13-7.57L286.13-7.57L286.13-7.57Q285.01-5.20 283.11-3.48L283.11-3.48L283.11-3.48Q281.22-1.77 278.64-0.83L278.64-0.83L278.64-0.83Q276.07 0.10 273.10 0.10L273.10 0.10L273.10 0.10Q271.02 0.10 268.94-1.01L268.94-1.01L268.94-1.01Q266.86-2.13 264.94-4.58L264.94-4.58L268.79-12.12L268.79-12.12Q269.15-11.44 269.88-10.74L269.88-10.74L269.88-10.74Q270.61-10.04 271.52-9.52L271.52-9.52L271.52-9.52Q272.43-9.00 273.34-8.66L273.34-8.66L273.34-8.66Q274.25-8.32 274.98-8.32L274.98-8.32L274.98-8.32Q275.60-8.32 276.28-8.53L276.28-8.53L276.28-8.53Q276.95-8.74 277.52-9.15L277.52-9.15L277.52-9.15Q278.10-9.57 278.43-10.11L278.43-10.11L278.43-10.11Q278.77-10.66 278.77-11.39L278.77-11.39L278.77-11.39Q278.77-12.64 277.97-13.70L277.97-13.70L277.97-13.70Q277.16-14.77 275.96-15.73L275.96-15.73L275.96-15.73Q274.77-16.69 273.36-17.68L273.36-17.68L273.36-17.68Q271.96-18.67 270.79-19.76L270.79-19.76L270.79-19.76Q269.62-20.85 268.79-22.20L268.79-22.20L268.79-22.20Q267.96-23.56 267.96-25.22L267.96-25.22L267.96-25.22Q267.96-27.92 269.57-30.26L269.57-30.26L269.57-30.26Q271.18-32.60 273.60-34.29L273.60-34.29L273.60-34.29Q276.02-35.98 278.88-36.97L278.88-36.97L278.88-36.97Q281.74-37.96 284.28-37.96L284.28-37.96L284.28-37.96Q285.69-37.96 286.94-37.62L286.94-37.62L286.94-37.62Q288.18-37.28 289.09-36.53L289.09-36.53L289.09-36.53Q290.00-35.78 290.55-34.63L290.55-34.63L290.55-34.63Q291.10-33.49 291.10-31.77L291.10-31.77L291.10-31.77Q291.10-31.04 290.97-30.32L290.97-30.32L290.97-30.32Q290.84-29.59 290.73-28.76L290.73-28.76L283.19-26.57L283.19-26.57Q283.30-26.99 283.37-27.40L283.37-27.40L283.37-27.40Q283.45-27.82 283.45-28.24L283.45-28.24L283.45-28.24Q283.45-29.80 282.91-30.50L282.91-30.50L282.91-30.50Q282.36-31.20 281.48-31.20L281.48-31.20L281.48-31.20Q281.06-31.20 280.46-30.89L280.46-30.89L280.46-30.89Q279.86-30.58 279.27-30.08L279.27-30.08L279.27-30.08Q278.67-29.59 278.25-28.91L278.25-28.91L278.25-28.91Q277.84-28.24 277.84-27.46L277.84-27.46L277.84-27.46Q277.84-26.21 278.54-25.38L278.54-25.38L278.54-25.38Q279.24-24.54 280.28-23.82L280.28-23.82L280.28-23.82Q281.32-23.09 282.54-22.33L282.54-22.33L282.54-22.33Q283.76-21.58 284.80-20.38L284.80-20.38L284.80-20.38Q285.84-19.19 286.55-17.39L286.55-17.39L286.55-17.39Q287.25-15.60 287.25-12.84L287.25-12.84ZM308.78-11.18L308.78-11.18Q307.53-8.32 305.99-6.21L305.99-6.21L305.99-6.21Q304.46-4.11 302.77-2.68L302.77-2.68L302.77-2.68Q301.08-1.25 299.36-0.57L299.36-0.57L299.36-0.57Q297.65 0.10 296.04 0.10L296.04 0.10L296.04 0.10Q294.42 0.10 293.10-0.62L293.10-0.62L293.10-0.62Q291.77-1.35 290.78-2.81L290.78-2.81L290.78-2.81Q289.80-4.26 289.20-6.40L289.20-6.40L289.20-6.40Q288.60-8.53 288.60-11.39L288.60-11.39L288.60-11.39Q288.60-16.28 289.95-21.03L289.95-21.03L289.95-21.03Q291.30-25.79 293.75-29.59L293.75-29.59L293.75-29.59Q296.19-33.38 299.55-35.70L299.55-35.70L299.55-35.70Q302.90-38.01 306.96-38.01L306.96-38.01L306.96-38.01Q308.20-38.01 309.35-37.49L309.35-37.49L309.35-37.49Q310.49-36.97 311.32-36.04L311.32-36.04L311.32-36.04Q312.16-35.10 312.65-33.75L312.65-33.75L312.65-33.75Q313.14-32.40 313.14-30.73L313.14-30.73L313.14-30.73Q313.14-30.42 313.14-30.08L313.14-30.08L313.14-30.08Q313.14-29.74 313.09-29.38L313.09-29.38L306.28-27.56L306.28-27.56Q305.66-28.86 304.82-28.86L304.82-28.86L304.82-28.86Q303.99-28.86 303.08-27.90L303.08-27.90L303.08-27.90Q302.17-26.94 301.29-25.40L301.29-25.40L301.29-25.40Q300.40-23.87 299.57-21.97L299.57-21.97L299.57-21.97Q298.74-20.07 298.12-18.15L298.12-18.15L298.12-18.15Q297.49-16.22 297.10-14.48L297.10-14.48L297.10-14.48Q296.71-12.74 296.71-11.65L296.71-11.65L296.71-11.65Q296.71-9.98 297.15-9.31L297.15-9.31L297.15-9.31Q297.60-8.63 298.32-8.63L298.32-8.63L298.32-8.63Q298.90-8.63 299.62-9.07L299.62-9.07L299.62-9.07Q300.35-9.52 300.98-10.22L300.98-10.22L300.98-10.22Q301.60-10.92 302.12-11.80L302.12-11.80L302.12-11.80Q302.64-12.69 302.85-13.57L302.85-13.57L308.78-11.18ZM327.24-1.04L327.24-1.04Q325.94-0.83 324.38-0.57L324.38-0.57L324.38-0.57Q322.82-0.31 321.57-0.10L321.57-0.10L321.57-0.10Q321.78-1.82 321.98-3.48L321.98-3.48L321.98-3.48Q322.14-4.94 322.27-6.40L322.27-6.40L322.27-6.40Q322.40-7.85 322.50-8.89L322.50-8.89L317.98-8.89L315.90-1.40L315.90-1.40Q314.76-1.25 313.20-1.07L313.20-1.07L313.20-1.07Q311.64-0.88 310.28-0.73L310.28-0.73L310.28-0.73Q308.62-0.52 307.01-0.31L307.01-0.31L307.01-0.31Q309.09-7.23 311.12-13.94L311.12-13.94L311.12-13.94Q311.95-16.74 312.86-19.81L312.86-19.81L312.86-19.81Q313.77-22.88 314.68-25.92L314.68-25.92L314.68-25.92Q315.59-28.96 316.42-31.77L316.42-31.77L316.42-31.77Q317.25-34.58 317.88-36.92L317.88-36.92L317.88-36.92Q321.41-37.18 325.08-37.54L325.08-37.54L325.08-37.54Q328.74-37.91 332.23-38.53L332.23-38.53L332.23-38.53Q332.07-36.87 331.89-34.40L331.89-34.40L331.89-34.40Q331.71-31.93 331.55-29.02L331.55-29.02L331.55-29.02Q331.40-26.10 331.24-22.93L331.24-22.93L331.24-22.93Q331.08-19.76 330.93-16.69L330.93-16.69L330.93-16.69Q330.67-9.52 330.36-1.46L330.36-1.46L330.36-1.46Q328.80-1.20 327.24-1.04L327.24-1.04ZM322.45-27.14L319.23-14.09L319.23-14.09Q319.44-14.09 319.98-14.12L319.98-14.12L319.98-14.12Q320.53-14.14 321.13-14.17L321.13-14.17L321.13-14.17Q321.72-14.20 322.24-14.22L322.24-14.22L322.24-14.22Q322.76-14.25 322.97-14.30L322.97-14.30L322.97-14.30Q322.97-14.61 323.05-15.37L323.05-15.37L323.05-15.37Q323.13-16.12 323.21-17.08L323.21-17.08L323.21-17.08Q323.28-18.04 323.39-19.19L323.39-19.19L323.39-19.19Q323.49-20.33 323.60-21.42L323.60-21.42L323.60-21.42Q323.80-24.08 324.12-27.14L324.12-27.14L324.43-31.67L323.65-31.62L322.45-27.14ZM339.46-1.72L330.46 0.05L330.46 0.05Q332.02-6.97 333.42-13.68L333.42-13.68L333.42-13.68Q334.00-16.48 334.62-19.60L334.62-19.60L334.62-19.60Q335.24-22.72 335.82-25.74L335.82-25.74L335.82-25.74Q336.39-28.76 336.91-31.56L336.91-31.56L336.91-31.56Q337.43-34.37 337.79-36.71L337.79-36.71L337.79-36.71Q339.30-37.18 340.76-37.52L340.76-37.52L340.76-37.52Q342.21-37.86 343.75-38.12L343.75-38.12L343.75-38.12Q345.28-38.38 346.63-38.38L346.63-38.38L346.63-38.38Q348.97-38.38 350.56-37.60L350.56-37.60L350.56-37.60Q352.14-36.82 353.13-35.49L353.13-35.49L353.13-35.49Q354.12-34.16 354.54-32.40L354.54-32.40L354.54-32.40Q354.95-30.63 354.95-28.60L354.95-28.60L354.95-28.60Q354.95-25.69 353.89-22.98L353.89-22.98L353.89-22.98Q352.82-20.28 351.03-18.17L351.03-18.17L351.03-18.17Q349.23-16.07 346.92-14.82L346.92-14.82L346.92-14.82Q344.60-13.57 342.11-13.57L342.11-13.57L341.54-13.57L341.54-13.57Q341.12-11.80 340.76-9.72L340.76-9.72L340.76-9.72Q340.39-7.64 340.13-5.88L340.13-5.88L340.13-5.88Q339.77-3.80 339.46-1.72L339.46-1.72ZM344.97-32.08L344.97-32.08Q344.40-28.65 343.82-25.58L343.82-25.58L343.82-25.58Q343.25-22.52 342.58-19.03L342.58-19.03L342.58-19.03Q343.41-19.24 344.32-19.99L344.32-19.99L344.32-19.99Q345.23-20.75 346.01-21.97L346.01-21.97L346.01-21.97Q346.79-23.19 347.26-24.80L347.26-24.80L347.26-24.80Q347.72-26.42 347.72-28.18L347.72-28.18L347.72-28.18Q347.72-30.11 346.87-31.10L346.87-31.10L346.87-31.10Q346.01-32.08 344.97-32.08L344.97-32.08ZM359.16-1.04L359.16-1.04Q358.70-1.04 357.32-0.91L357.32-0.91L357.32-0.91Q355.94-0.78 354.48-0.60L354.48-0.60L354.48-0.60Q353.03-0.42 351.86-0.26L351.86-0.26L351.86-0.26Q350.69-0.10 350.58-0.05L350.58-0.05L350.58-0.05Q351.10-2.29 351.65-5.02L351.65-5.02L351.65-5.02Q352.20-7.75 352.77-10.74L352.77-10.74L352.77-10.74Q353.34-13.73 353.86-16.80L353.86-16.80L353.86-16.80Q354.38-19.86 354.85-22.72L354.85-22.72L354.85-22.72Q355.94-29.38 357.03-36.40L357.03-36.40L365.14-37.70L365.14-37.70Q363.95-30.73 362.80-24.02L362.80-24.02L362.80-24.02Q362.34-21.16 361.84-18.10L361.84-18.10L361.84-18.10Q361.35-15.03 360.85-12.01L360.85-12.01L360.85-12.01Q360.36-9.00 359.94-6.16L359.94-6.16L359.94-6.16Q359.53-3.33 359.16-1.04L359.16-1.04ZM368.68-1.51L361.09 0.26L361.09 0.26Q362.65-7.23 364.05-14.25L364.05-14.25L364.05-14.25Q364.57-17.26 365.17-20.49L365.17-20.49L365.17-20.49Q365.77-23.71 366.29-26.86L366.29-26.86L366.29-26.86Q366.81-30.00 367.22-32.89L367.22-32.89L367.22-32.89Q367.64-35.78 367.85-38.12L367.85-38.12L367.85-38.12Q368.52-38.06 368.99-38.06L368.99-38.06L368.99-38.06Q369.46-38.06 370.08-38.06L370.08-38.06L370.08-38.06Q370.81-38.06 371.85-38.09L371.85-38.09L371.85-38.09Q372.89-38.12 373.93-38.17L373.93-38.17L373.93-38.17Q374.97-38.22 376.17-38.27L376.17-38.27L376.17-38.27Q376.90-34.63 377.47-31.25L377.47-31.25L377.47-31.25Q378.04-28.29 378.64-25.17L378.64-25.17L378.64-25.17Q379.24-22.05 379.70-19.86L379.70-19.86L379.70-19.86Q379.91-20.90 380.17-22.28L380.17-22.28L380.17-22.28Q380.43-23.66 380.74-25.17L380.74-25.17L380.74-25.17Q381.06-26.68 381.34-28.21L381.34-28.21L381.34-28.21Q381.63-29.74 381.94-31.25L381.94-31.25L381.94-31.25Q382.67-34.63 383.45-38.22L383.45-38.22L389.79-39L389.79-39Q388.02-31.04 386.67-23.92L386.67-23.92L386.67-23.92Q386.05-20.85 385.45-17.71L385.45-17.71L385.45-17.71Q384.85-14.56 384.33-11.67L384.33-11.67L384.33-11.67Q383.81-8.79 383.45-6.32L383.45-6.32L383.45-6.32Q383.08-3.85 382.88-2.18L382.88-2.18L382.88-2.18Q382.72-2.18 381.65-1.95L381.65-1.95L381.65-1.95Q380.59-1.72 379.21-1.40L379.21-1.40L379.21-1.40Q377.83-1.09 376.45-0.78L376.45-0.78L376.45-0.78Q375.08-0.47 374.40-0.21L374.40-0.21L374.40-0.21Q374.09-4.37 373.72-8.11L373.72-8.11L373.72-8.11Q373.57-9.72 373.39-11.41L373.39-11.41L373.39-11.41Q373.20-13.10 373.00-14.66L373.00-14.66L373.00-14.66Q372.79-16.22 372.58-17.58L372.58-17.58L372.58-17.58Q372.37-18.93 372.16-19.92L372.16-19.92L372.16-19.92Q372.01-18.93 371.75-17.63L371.75-17.63L371.75-17.63Q371.49-16.33 371.23-14.87L371.23-14.87L371.23-14.87Q370.97-13.42 370.71-11.83L370.71-11.83L370.71-11.83Q370.45-10.24 370.14-8.79L370.14-8.79L370.14-8.79Q369.46-5.30 368.68-1.51L368.68-1.51ZM412.62-19.81L412.62-19.81Q412.26-14.51 410.54-10.58L410.54-10.58L410.54-10.58Q408.82-6.66 406.41-4.00L406.41-4.00L406.41-4.00Q403.99-1.35 401.21-0.05L401.21-0.05L401.21-0.05Q398.42 1.25 395.93 1.25L395.93 1.25L395.93 1.25Q394.00 1.25 392.26 0.42L392.26 0.42L392.26 0.42Q390.52-0.42 389.25-2.11L389.25-2.11L389.25-2.11Q387.97-3.80 387.24-6.34L387.24-6.34L387.24-6.34Q386.52-8.89 386.52-12.32L386.52-12.32L386.52-12.32Q386.52-19.03 388.44-24.02L388.44-24.02L388.44-24.02Q390.36-29.02 393.30-32.34L393.30-32.34L393.30-32.34Q396.24-35.67 399.59-37.28L399.59-37.28L399.59-37.28Q402.95-38.90 405.86-38.90L405.86-38.90L405.86-38.90Q407.94-38.90 409.47-38.17L409.47-38.17L409.47-38.17Q411.01-37.44 412.00-36.22L412.00-36.22L412.00-36.22Q412.98-35.00 413.43-33.36L413.43-33.36L413.43-33.36Q413.87-31.72 413.87-29.90L413.87-29.90L406.74-28.55L406.74-28.55Q406.28-30.63 405.50-31.51L405.50-31.51L405.50-31.51Q404.72-32.40 403.73-32.40L403.73-32.40L403.73-32.40Q402.43-32.40 400.87-30.55L400.87-30.55L400.87-30.55Q399.31-28.70 397.96-25.79L397.96-25.79L397.96-25.79Q396.60-22.88 395.67-19.40L395.67-19.40L395.67-19.40Q394.73-15.91 394.63-12.53L394.63-12.53L394.63-12.53Q394.63-9.31 395.59-7.93L395.59-7.93L395.59-7.93Q396.55-6.55 398.06-6.55L398.06-6.55L398.06-6.55Q399.10-6.55 400.22-7.07L400.22-7.07L400.22-7.07Q401.34-7.59 402.22-8.55L402.22-8.55L402.22-8.55Q403.10-9.52 403.70-10.79L403.70-10.79L403.70-10.79Q404.30-12.06 404.35-13.57L404.35-13.57L398.79-12.74L399.78-17.89L399.78-17.89Q402.22-18.20 404.56-18.51L404.56-18.51L404.56-18.51Q406.54-18.77 408.75-19.14L408.75-19.14L408.75-19.14Q410.96-19.50 412.62-19.81L412.62-19.81Z" fill="url(#editing-shiny-gradient)"></path></g></g><g filter="url(#editing-shiny2)"><g transform="translate(44.89749816060066, 95.125)"><path d="M8.63-2.13L0.21 0.05L0.21 0.05Q1.61-6.86 2.91-13.47L2.91-13.47L2.91-13.47Q3.38-16.28 3.95-19.32L3.95-19.32L3.95-19.32Q4.52-22.36 5.02-25.35L5.02-25.35L5.02-25.35Q5.51-28.34 5.95-31.12L5.95-31.12L5.95-31.12Q6.40-33.90 6.66-36.19L6.66-36.19L6.66-36.19Q9.62-37.13 13.05-37.57L13.05-37.57L13.05-37.57Q16.48-38.01 19.86-38.01L19.86-38.01L19.86-38.01Q21.89-38.01 23.22-37.54L23.22-37.54L23.22-37.54Q24.54-37.08 25.30-36.22L25.30-36.22L25.30-36.22Q26.05-35.36 26.36-34.22L26.36-34.22L26.36-34.22Q26.68-33.07 26.68-31.67L26.68-31.67L26.68-31.67Q26.68-29.59 25.95-27.59L25.95-27.59L25.95-27.59Q25.22-25.58 24.00-23.79L24.00-23.79L24.00-23.79Q22.78-22.00 21.19-20.51L21.19-20.51L21.19-20.51Q19.60-19.03 17.78-18.10L17.78-18.10L17.78-18.10Q18.72-16.02 19.79-13.55L19.79-13.55L19.79-13.55Q20.85-11.08 21.79-8.84L21.79-8.84L21.79-8.84Q22.83-6.24 23.92-3.64L23.92-3.64L15.86-0.83L15.86-0.83Q14.82-4.42 13.99-7.59L13.99-7.59L13.99-7.59Q13.62-8.89 13.26-10.27L13.26-10.27L13.26-10.27Q12.90-11.65 12.58-12.87L12.58-12.87L12.58-12.87Q12.27-14.09 12.06-15.03L12.06-15.03L12.06-15.03Q11.86-15.96 11.80-16.48L11.80-16.48L11.13-16.28L11.13-16.28Q10.82-14.61 10.37-12.22L10.37-12.22L10.37-12.22Q9.93-9.83 9.57-7.59L9.57-7.59L9.57-7.59Q9.10-4.94 8.63-2.13L8.63-2.13ZM14.09-30.78L12.43-22.52L12.43-22.52Q13.42-22.62 14.85-23.35L14.85-23.35L14.85-23.35Q16.28-24.08 17.58-25.09L17.58-25.09L17.58-25.09Q18.88-26.10 19.81-27.20L19.81-27.20L19.81-27.20Q20.75-28.29 20.75-29.12L20.75-29.12L20.75-29.12Q20.75-29.69 20.38-30.03L20.38-30.03L20.38-30.03Q20.02-30.37 19.37-30.55L19.37-30.55L19.37-30.55Q18.72-30.73 17.94-30.78L17.94-30.78L17.94-30.78Q17.16-30.84 16.33-30.84L16.33-30.84L16.33-30.84Q15.76-30.84 15.16-30.81L15.16-30.81L15.16-30.81Q14.56-30.78 14.09-30.78L14.09-30.78ZM42.22-1.04L42.22-1.04Q40.92-0.83 39.36-0.57L39.36-0.57L39.36-0.57Q37.80-0.31 36.56-0.10L36.56-0.10L36.56-0.10Q36.76-1.82 36.97-3.48L36.97-3.48L36.97-3.48Q37.13-4.94 37.26-6.40L37.26-6.40L37.26-6.40Q37.39-7.85 37.49-8.89L37.49-8.89L32.97-8.89L30.89-1.40L30.89-1.40Q29.74-1.25 28.18-1.07L28.18-1.07L28.18-1.07Q26.62-0.88 25.27-0.73L25.27-0.73L25.27-0.73Q23.61-0.52 22.00-0.31L22.00-0.31L22.00-0.31Q24.08-7.23 26.10-13.94L26.10-13.94L26.10-13.94Q26.94-16.74 27.85-19.81L27.85-19.81L27.85-19.81Q28.76-22.88 29.67-25.92L29.67-25.92L29.67-25.92Q30.58-28.96 31.41-31.77L31.41-31.77L31.41-31.77Q32.24-34.58 32.86-36.92L32.86-36.92L32.86-36.92Q36.40-37.18 40.07-37.54L40.07-37.54L40.07-37.54Q43.73-37.91 47.22-38.53L47.22-38.53L47.22-38.53Q47.06-36.87 46.88-34.40L46.88-34.40L46.88-34.40Q46.70-31.93 46.54-29.02L46.54-29.02L46.54-29.02Q46.38-26.10 46.23-22.93L46.23-22.93L46.23-22.93Q46.07-19.76 45.92-16.69L45.92-16.69L45.92-16.69Q45.66-9.52 45.34-1.46L45.34-1.46L45.34-1.46Q43.78-1.20 42.22-1.04L42.22-1.04ZM37.44-27.14L34.22-14.09L34.22-14.09Q34.42-14.09 34.97-14.12L34.97-14.12L34.97-14.12Q35.52-14.14 36.11-14.17L36.11-14.17L36.11-14.17Q36.71-14.20 37.23-14.22L37.23-14.22L37.23-14.22Q37.75-14.25 37.96-14.30L37.96-14.30L37.96-14.30Q37.96-14.61 38.04-15.37L38.04-15.37L38.04-15.37Q38.12-16.12 38.19-17.08L38.19-17.08L38.19-17.08Q38.27-18.04 38.38-19.19L38.38-19.19L38.38-19.19Q38.48-20.33 38.58-21.42L38.58-21.42L38.58-21.42Q38.79-24.08 39.10-27.14L39.10-27.14L39.42-31.67L38.64-31.62L37.44-27.14ZM72.07-26.57L72.07-26.57Q72.07-23.87 71.29-20.83L71.29-20.83L71.29-20.83Q70.51-17.78 69.11-14.79L69.11-14.79L69.11-14.79Q67.70-11.80 65.65-9.07L65.65-9.07L65.65-9.07Q63.60-6.34 61.00-4.29L61.00-4.29L61.00-4.29Q58.40-2.24 55.30-0.99L55.30-0.99L55.30-0.99Q52.21 0.26 48.72 0.26L48.72 0.26L48.72 0.26Q48.00 0.26 47.27 0.18L47.27 0.18L47.27 0.18Q46.54 0.10 45.81 0L45.81 0L45.81 0Q47.22-7.18 48.57-13.99L48.57-13.99L48.57-13.99Q49.09-16.85 49.66-19.94L49.66-19.94L49.66-19.94Q50.23-23.04 50.75-26.05L50.75-26.05L50.75-26.05Q51.27-29.07 51.77-31.82L51.77-31.82L51.77-31.82Q52.26-34.58 52.57-36.82L52.57-36.82L52.57-36.82Q54.81-37.23 57.10-37.60L57.10-37.60L57.10-37.60Q59.38-37.96 61.78-37.96L61.78-37.96L61.78-37.96Q64.58-37.96 66.53-37.08L66.53-37.08L66.53-37.08Q68.48-36.19 69.71-34.63L69.71-34.63L69.71-34.63Q70.93-33.07 71.50-30.99L71.50-30.99L71.50-30.99Q72.07-28.91 72.07-26.57L72.07-26.57ZM59.80-30.63L59.80-30.63Q59.23-27.56 58.60-24.75L58.60-24.75L58.60-24.75Q57.98-21.94 57.36-19.08L57.36-19.08L57.36-19.08Q56.73-16.22 56.11-13.10L56.11-13.10L56.11-13.10Q55.48-9.98 54.91-6.29L54.91-6.29L54.91-6.29Q56.16-7.12 57.33-8.55L57.33-8.55L57.33-8.55Q58.50-9.98 59.54-11.86L59.54-11.86L59.54-11.86Q60.58-13.73 61.44-15.81L61.44-15.81L61.44-15.81Q62.30-17.89 62.92-19.86L62.92-19.86L62.92-19.86Q63.54-21.84 63.88-23.56L63.88-23.56L63.88-23.56Q64.22-25.27 64.22-26.52L64.22-26.52L64.22-26.52Q64.22-28.44 63.15-29.54L63.15-29.54L63.15-29.54Q62.09-30.63 59.80-30.63L59.80-30.63ZM105.14-26.57L105.14-26.57Q105.14-23.87 104.36-20.83L104.36-20.83L104.36-20.83Q103.58-17.78 102.18-14.79L102.18-14.79L102.18-14.79Q100.78-11.80 98.72-9.07L98.72-9.07L98.72-9.07Q96.67-6.34 94.07-4.29L94.07-4.29L94.07-4.29Q91.47-2.24 88.37-0.99L88.37-0.99L88.37-0.99Q85.28 0.26 81.80 0.26L81.80 0.26L81.80 0.26Q81.07 0.26 80.34 0.18L80.34 0.18L80.34 0.18Q79.61 0.10 78.88 0L78.88 0L78.88 0Q80.29-7.18 81.64-13.99L81.64-13.99L81.64-13.99Q82.16-16.85 82.73-19.94L82.73-19.94L82.73-19.94Q83.30-23.04 83.82-26.05L83.82-26.05L83.82-26.05Q84.34-29.07 84.84-31.82L84.84-31.82L84.84-31.82Q85.33-34.58 85.64-36.82L85.64-36.82L85.64-36.82Q87.88-37.23 90.17-37.60L90.17-37.60L90.17-37.60Q92.46-37.96 94.85-37.96L94.85-37.96L94.85-37.96Q97.66-37.96 99.61-37.08L99.61-37.08L99.61-37.08Q101.56-36.19 102.78-34.63L102.78-34.63L102.78-34.63Q104-33.07 104.57-30.99L104.57-30.99L104.57-30.99Q105.14-28.91 105.14-26.57L105.14-26.57ZM92.87-30.63L92.87-30.63Q92.30-27.56 91.68-24.75L91.68-24.75L91.68-24.75Q91.05-21.94 90.43-19.08L90.43-19.08L90.43-19.08Q89.80-16.22 89.18-13.10L89.18-13.10L89.18-13.10Q88.56-9.98 87.98-6.29L87.98-6.29L87.98-6.29Q89.23-7.12 90.40-8.55L90.40-8.55L90.40-8.55Q91.57-9.98 92.61-11.86L92.61-11.86L92.61-11.86Q93.65-13.73 94.51-15.81L94.51-15.81L94.51-15.81Q95.37-17.89 95.99-19.86L95.99-19.86L95.99-19.86Q96.62-21.84 96.95-23.56L96.95-23.56L96.95-23.56Q97.29-25.27 97.29-26.52L97.29-26.52L97.29-26.52Q97.29-28.44 96.23-29.54L96.23-29.54L96.23-29.54Q95.16-30.63 92.87-30.63L92.87-30.63ZM120.74-1.04L120.74-1.04Q119.44-0.83 117.88-0.57L117.88-0.57L117.88-0.57Q116.32-0.31 115.08-0.10L115.08-0.10L115.08-0.10Q115.28-1.82 115.49-3.48L115.49-3.48L115.49-3.48Q115.65-4.94 115.78-6.40L115.78-6.40L115.78-6.40Q115.91-7.85 116.01-8.89L116.01-8.89L111.49-8.89L109.41-1.40L109.41-1.40Q108.26-1.25 106.70-1.07L106.70-1.07L106.70-1.07Q105.14-0.88 103.79-0.73L103.79-0.73L103.79-0.73Q102.13-0.52 100.52-0.31L100.52-0.31L100.52-0.31Q102.60-7.23 104.62-13.94L104.62-13.94L104.62-13.94Q105.46-16.74 106.37-19.81L106.37-19.81L106.37-19.81Q107.28-22.88 108.19-25.92L108.19-25.92L108.19-25.92Q109.10-28.96 109.93-31.77L109.93-31.77L109.93-31.77Q110.76-34.58 111.38-36.92L111.38-36.92L111.38-36.92Q114.92-37.18 118.59-37.54L118.59-37.54L118.59-37.54Q122.25-37.91 125.74-38.53L125.74-38.53L125.74-38.53Q125.58-36.87 125.40-34.40L125.40-34.40L125.40-34.40Q125.22-31.93 125.06-29.02L125.06-29.02L125.06-29.02Q124.90-26.10 124.75-22.93L124.75-22.93L124.75-22.93Q124.59-19.76 124.44-16.69L124.44-16.69L124.44-16.69Q124.18-9.52 123.86-1.46L123.86-1.46L123.86-1.46Q122.30-1.20 120.74-1.04L120.74-1.04ZM115.96-27.14L112.74-14.09L112.74-14.09Q112.94-14.09 113.49-14.12L113.49-14.12L113.49-14.12Q114.04-14.14 114.63-14.17L114.63-14.17L114.63-14.17Q115.23-14.20 115.75-14.22L115.75-14.22L115.75-14.22Q116.27-14.25 116.48-14.30L116.48-14.30L116.48-14.30Q116.48-14.61 116.56-15.37L116.56-15.37L116.56-15.37Q116.64-16.12 116.71-17.08L116.71-17.08L116.71-17.08Q116.79-18.04 116.90-19.19L116.90-19.19L116.90-19.19Q117-20.33 117.10-21.42L117.10-21.42L117.10-21.42Q117.31-24.08 117.62-27.14L117.62-27.14L117.94-31.67L117.16-31.62L115.96-27.14ZM150.59-26.57L150.59-26.57Q150.59-23.87 149.81-20.83L149.81-20.83L149.81-20.83Q149.03-17.78 147.63-14.79L147.63-14.79L147.63-14.79Q146.22-11.80 144.17-9.07L144.17-9.07L144.17-9.07Q142.12-6.34 139.52-4.29L139.52-4.29L139.52-4.29Q136.92-2.24 133.82-0.99L133.82-0.99L133.82-0.99Q130.73 0.26 127.24 0.26L127.24 0.26L127.24 0.26Q126.52 0.26 125.79 0.18L125.79 0.18L125.79 0.18Q125.06 0.10 124.33 0L124.33 0L124.33 0Q125.74-7.18 127.09-13.99L127.09-13.99L127.09-13.99Q127.61-16.85 128.18-19.94L128.18-19.94L128.18-19.94Q128.75-23.04 129.27-26.05L129.27-26.05L129.27-26.05Q129.79-29.07 130.29-31.82L130.29-31.82L130.29-31.82Q130.78-34.58 131.09-36.82L131.09-36.82L131.09-36.82Q133.33-37.23 135.62-37.60L135.62-37.60L135.62-37.60Q137.90-37.96 140.30-37.96L140.30-37.96L140.30-37.96Q143.10-37.96 145.05-37.08L145.05-37.08L145.05-37.08Q147.00-36.19 148.23-34.63L148.23-34.63L148.23-34.63Q149.45-33.07 150.02-30.99L150.02-30.99L150.02-30.99Q150.59-28.91 150.59-26.57L150.59-26.57ZM138.32-30.63L138.32-30.63Q137.75-27.56 137.12-24.75L137.12-24.75L137.12-24.75Q136.50-21.94 135.88-19.08L135.88-19.08L135.88-19.08Q135.25-16.22 134.63-13.10L134.63-13.10L134.63-13.10Q134.00-9.98 133.43-6.29L133.43-6.29L133.43-6.29Q134.68-7.12 135.85-8.55L135.85-8.55L135.85-8.55Q137.02-9.98 138.06-11.86L138.06-11.86L138.06-11.86Q139.10-13.73 139.96-15.81L139.96-15.81L139.96-15.81Q140.82-17.89 141.44-19.86L141.44-19.86L141.44-19.86Q142.06-21.84 142.40-23.56L142.40-23.56L142.40-23.56Q142.74-25.27 142.74-26.52L142.74-26.52L142.74-26.52Q142.74-28.44 141.67-29.54L141.67-29.54L141.67-29.54Q140.61-30.63 138.32-30.63L138.32-30.63ZM170.09-12.84L170.09-12.84Q170.09-9.93 168.97-7.57L168.97-7.57L168.97-7.57Q167.86-5.20 165.96-3.48L165.96-3.48L165.96-3.48Q164.06-1.77 161.49-0.83L161.49-0.83L161.49-0.83Q158.91 0.10 155.95 0.10L155.95 0.10L155.95 0.10Q153.87 0.10 151.79-1.01L151.79-1.01L151.79-1.01Q149.71-2.13 147.78-4.58L147.78-4.58L151.63-12.12L151.63-12.12Q152.00-11.44 152.72-10.74L152.72-10.74L152.72-10.74Q153.45-10.04 154.36-9.52L154.36-9.52L154.36-9.52Q155.27-9.00 156.18-8.66L156.18-8.66L156.18-8.66Q157.09-8.32 157.82-8.32L157.82-8.32L157.82-8.32Q158.44-8.32 159.12-8.53L159.12-8.53L159.12-8.53Q159.80-8.74 160.37-9.15L160.37-9.15L160.37-9.15Q160.94-9.57 161.28-10.11L161.28-10.11L161.28-10.11Q161.62-10.66 161.62-11.39L161.62-11.39L161.62-11.39Q161.62-12.64 160.81-13.70L160.81-13.70L160.81-13.70Q160.00-14.77 158.81-15.73L158.81-15.73L158.81-15.73Q157.61-16.69 156.21-17.68L156.21-17.68L156.21-17.68Q154.80-18.67 153.63-19.76L153.63-19.76L153.63-19.76Q152.46-20.85 151.63-22.20L151.63-22.20L151.63-22.20Q150.80-23.56 150.80-25.22L150.80-25.22L150.80-25.22Q150.80-27.92 152.41-30.26L152.41-30.26L152.41-30.26Q154.02-32.60 156.44-34.29L156.44-34.29L156.44-34.29Q158.86-35.98 161.72-36.97L161.72-36.97L161.72-36.97Q164.58-37.96 167.13-37.96L167.13-37.96L167.13-37.96Q168.53-37.96 169.78-37.62L169.78-37.62L169.78-37.62Q171.03-37.28 171.94-36.53L171.94-36.53L171.94-36.53Q172.85-35.78 173.39-34.63L173.39-34.63L173.39-34.63Q173.94-33.49 173.94-31.77L173.94-31.77L173.94-31.77Q173.94-31.04 173.81-30.32L173.81-30.32L173.81-30.32Q173.68-29.59 173.58-28.76L173.58-28.76L166.04-26.57L166.04-26.57Q166.14-26.99 166.22-27.40L166.22-27.40L166.22-27.40Q166.30-27.82 166.30-28.24L166.30-28.24L166.30-28.24Q166.30-29.80 165.75-30.50L165.75-30.50L165.75-30.50Q165.20-31.20 164.32-31.20L164.32-31.20L164.32-31.20Q163.90-31.20 163.31-30.89L163.31-30.89L163.31-30.89Q162.71-30.58 162.11-30.08L162.11-30.08L162.11-30.08Q161.51-29.59 161.10-28.91L161.10-28.91L161.10-28.91Q160.68-28.24 160.68-27.46L160.68-27.46L160.68-27.46Q160.68-26.21 161.38-25.38L161.38-25.38L161.38-25.38Q162.08-24.54 163.12-23.82L163.12-23.82L163.12-23.82Q164.16-23.09 165.39-22.33L165.39-22.33L165.39-22.33Q166.61-21.58 167.65-20.38L167.65-20.38L167.65-20.38Q168.69-19.19 169.39-17.39L169.39-17.39L169.39-17.39Q170.09-15.60 170.09-12.84L170.09-12.84ZM193.91-1.66L193.91-1.66Q192.30-1.66 190.50-1.56L190.50-1.56L190.50-1.56Q188.71-1.46 186.89-1.25L186.89-1.25L186.89-1.25Q185.07-1.04 183.33-0.70L183.33-0.70L183.33-0.70Q181.58-0.36 180.18 0.10L180.18 0.10L180.18 0.10Q180.49-2.24 180.91-5.10L180.91-5.10L180.91-5.10Q181.32-7.96 181.87-11.02L181.87-11.02L181.87-11.02Q182.42-14.09 182.96-17.21L182.96-17.21L182.96-17.21Q183.51-20.33 184.08-23.19L184.08-23.19L184.08-23.19Q185.38-30.00 186.84-37.08L186.84-37.08L195.94-38.27L195.94-38.27Q194.53-32.24 193.23-26.52L193.23-26.52L193.23-26.52Q192.66-24.08 192.09-21.45L192.09-21.45L192.09-21.45Q191.52-18.82 191.00-16.33L191.00-16.33L191.00-16.33Q190.48-13.83 190.06-11.49L190.06-11.49L190.06-11.49Q189.64-9.15 189.38-7.33L189.38-7.33L189.38-7.33Q190.68-7.44 192.17-7.46L192.17-7.46L192.17-7.46Q193.65-7.49 194.79-7.49L194.79-7.49L194.79-7.49Q194.84-6.50 194.95-5.54L194.95-5.54L194.95-5.54Q195.05-4.58 195.18-3.80L195.18-3.80L195.18-3.80Q195.31-3.02 195.39-2.42L195.39-2.42L195.39-2.42Q195.47-1.82 195.52-1.61L195.52-1.61L195.52-1.61Q195.10-1.61 194.71-1.64L194.71-1.64L194.71-1.64Q194.32-1.66 193.91-1.66L193.91-1.66ZM214.40-1.04L214.40-1.04Q213.10-0.83 211.54-0.57L211.54-0.57L211.54-0.57Q209.98-0.31 208.73-0.10L208.73-0.10L208.73-0.10Q208.94-1.82 209.14-3.48L209.14-3.48L209.14-3.48Q209.30-4.94 209.43-6.40L209.43-6.40L209.43-6.40Q209.56-7.85 209.66-8.89L209.66-8.89L205.14-8.89L203.06-1.40L203.06-1.40Q201.92-1.25 200.36-1.07L200.36-1.07L200.36-1.07Q198.80-0.88 197.44-0.73L197.44-0.73L197.44-0.73Q195.78-0.52 194.17-0.31L194.17-0.31L194.17-0.31Q196.25-7.23 198.28-13.94L198.28-13.94L198.28-13.94Q199.11-16.74 200.02-19.81L200.02-19.81L200.02-19.81Q200.93-22.88 201.84-25.92L201.84-25.92L201.84-25.92Q202.75-28.96 203.58-31.77L203.58-31.77L203.58-31.77Q204.41-34.58 205.04-36.92L205.04-36.92L205.04-36.92Q208.57-37.18 212.24-37.54L212.24-37.54L212.24-37.54Q215.90-37.91 219.39-38.53L219.39-38.53L219.39-38.53Q219.23-36.87 219.05-34.40L219.05-34.40L219.05-34.40Q218.87-31.93 218.71-29.02L218.71-29.02L218.71-29.02Q218.56-26.10 218.40-22.93L218.40-22.93L218.40-22.93Q218.24-19.76 218.09-16.69L218.09-16.69L218.09-16.69Q217.83-9.52 217.52-1.46L217.52-1.46L217.52-1.46Q215.96-1.20 214.40-1.04L214.40-1.04ZM209.61-27.14L206.39-14.09L206.39-14.09Q206.60-14.09 207.14-14.12L207.14-14.12L207.14-14.12Q207.69-14.14 208.29-14.17L208.29-14.17L208.29-14.17Q208.88-14.20 209.40-14.22L209.40-14.22L209.40-14.22Q209.92-14.25 210.13-14.30L210.13-14.30L210.13-14.30Q210.13-14.61 210.21-15.37L210.21-15.37L210.21-15.37Q210.29-16.12 210.37-17.08L210.37-17.08L210.37-17.08Q210.44-18.04 210.55-19.19L210.55-19.19L210.55-19.19Q210.65-20.33 210.76-21.42L210.76-21.42L210.76-21.42Q210.96-24.08 211.28-27.14L211.28-27.14L211.59-31.67L210.81-31.62L209.61-27.14ZM225.63-1.51L218.04 0.26L218.04 0.26Q219.60-7.23 221.00-14.25L221.00-14.25L221.00-14.25Q221.52-17.26 222.12-20.49L222.12-20.49L222.12-20.49Q222.72-23.71 223.24-26.86L223.24-26.86L223.24-26.86Q223.76-30.00 224.17-32.89L224.17-32.89L224.17-32.89Q224.59-35.78 224.80-38.12L224.80-38.12L224.80-38.12Q225.47-38.06 225.94-38.06L225.94-38.06L225.94-38.06Q226.41-38.06 227.03-38.06L227.03-38.06L227.03-38.06Q227.76-38.06 228.80-38.09L228.80-38.09L228.80-38.09Q229.84-38.12 230.88-38.17L230.88-38.17L230.88-38.17Q231.92-38.22 233.12-38.27L233.12-38.27L233.12-38.27Q233.84-34.63 234.42-31.25L234.42-31.25L234.42-31.25Q234.99-28.29 235.59-25.17L235.59-25.17L235.59-25.17Q236.18-22.05 236.65-19.86L236.65-19.86L236.65-19.86Q236.86-20.90 237.12-22.28L237.12-22.28L237.12-22.28Q237.38-23.66 237.69-25.17L237.69-25.17L237.69-25.17Q238.00-26.68 238.29-28.21L238.29-28.21L238.29-28.21Q238.58-29.74 238.89-31.25L238.89-31.25L238.89-31.25Q239.62-34.63 240.40-38.22L240.40-38.22L246.74-39L246.74-39Q244.97-31.04 243.62-23.92L243.62-23.92L243.62-23.92Q243.00-20.85 242.40-17.71L242.40-17.71L242.40-17.71Q241.80-14.56 241.28-11.67L241.28-11.67L241.28-11.67Q240.76-8.79 240.40-6.32L240.40-6.32L240.40-6.32Q240.03-3.85 239.82-2.18L239.82-2.18L239.82-2.18Q239.67-2.18 238.60-1.95L238.60-1.95L238.60-1.95Q237.54-1.72 236.16-1.40L236.16-1.40L236.16-1.40Q234.78-1.09 233.40-0.78L233.40-0.78L233.40-0.78Q232.02-0.47 231.35-0.21L231.35-0.21L231.35-0.21Q231.04-4.37 230.67-8.11L230.67-8.11L230.67-8.11Q230.52-9.72 230.33-11.41L230.33-11.41L230.33-11.41Q230.15-13.10 229.94-14.66L229.94-14.66L229.94-14.66Q229.74-16.22 229.53-17.58L229.53-17.58L229.53-17.58Q229.32-18.93 229.11-19.92L229.11-19.92L229.11-19.92Q228.96-18.93 228.70-17.63L228.70-17.63L228.70-17.63Q228.44-16.33 228.18-14.87L228.18-14.87L228.18-14.87Q227.92-13.42 227.66-11.83L227.66-11.83L227.66-11.83Q227.40-10.24 227.08-8.79L227.08-8.79L227.08-8.79Q226.41-5.30 225.63-1.51L225.63-1.51ZM267.75-26.57L267.75-26.57Q267.75-23.87 266.97-20.83L266.97-20.83L266.97-20.83Q266.19-17.78 264.78-14.79L264.78-14.79L264.78-14.79Q263.38-11.80 261.33-9.07L261.33-9.07L261.33-9.07Q259.27-6.34 256.67-4.29L256.67-4.29L256.67-4.29Q254.07-2.24 250.98-0.99L250.98-0.99L250.98-0.99Q247.88 0.26 244.40 0.26L244.40 0.26L244.40 0.26Q243.67 0.26 242.94 0.18L242.94 0.18L242.94 0.18Q242.22 0.10 241.49 0L241.49 0L241.49 0Q242.89-7.18 244.24-13.99L244.24-13.99L244.24-13.99Q244.76-16.85 245.34-19.94L245.34-19.94L245.34-19.94Q245.91-23.04 246.43-26.05L246.43-26.05L246.43-26.05Q246.95-29.07 247.44-31.82L247.44-31.82L247.44-31.82Q247.94-34.58 248.25-36.82L248.25-36.82L248.25-36.82Q250.48-37.23 252.77-37.60L252.77-37.60L252.77-37.60Q255.06-37.96 257.45-37.96L257.45-37.96L257.45-37.96Q260.26-37.96 262.21-37.08L262.21-37.08L262.21-37.08Q264.16-36.19 265.38-34.63L265.38-34.63L265.38-34.63Q266.60-33.07 267.18-30.99L267.18-30.99L267.18-30.99Q267.75-28.91 267.75-26.57L267.75-26.57ZM255.48-30.63L255.48-30.63Q254.90-27.56 254.28-24.75L254.28-24.75L254.28-24.75Q253.66-21.94 253.03-19.08L253.03-19.08L253.03-19.08Q252.41-16.22 251.78-13.10L251.78-13.10L251.78-13.10Q251.16-9.98 250.59-6.29L250.59-6.29L250.59-6.29Q251.84-7.12 253.01-8.55L253.01-8.55L253.01-8.55Q254.18-9.98 255.22-11.86L255.22-11.86L255.22-11.86Q256.26-13.73 257.11-15.81L257.11-15.81L257.11-15.81Q257.97-17.89 258.60-19.86L258.60-19.86L258.60-19.86Q259.22-21.84 259.56-23.56L259.56-23.56L259.56-23.56Q259.90-25.27 259.90-26.52L259.90-26.52L259.90-26.52Q259.90-28.44 258.83-29.54L258.83-29.54L258.83-29.54Q257.76-30.63 255.48-30.63L255.48-30.63ZM287.25-12.84L287.25-12.84Q287.25-9.93 286.13-7.57L286.13-7.57L286.13-7.57Q285.01-5.20 283.11-3.48L283.11-3.48L283.11-3.48Q281.22-1.77 278.64-0.83L278.64-0.83L278.64-0.83Q276.07 0.10 273.10 0.10L273.10 0.10L273.10 0.10Q271.02 0.10 268.94-1.01L268.94-1.01L268.94-1.01Q266.86-2.13 264.94-4.58L264.94-4.58L268.79-12.12L268.79-12.12Q269.15-11.44 269.88-10.74L269.88-10.74L269.88-10.74Q270.61-10.04 271.52-9.52L271.52-9.52L271.52-9.52Q272.43-9.00 273.34-8.66L273.34-8.66L273.34-8.66Q274.25-8.32 274.98-8.32L274.98-8.32L274.98-8.32Q275.60-8.32 276.28-8.53L276.28-8.53L276.28-8.53Q276.95-8.74 277.52-9.15L277.52-9.15L277.52-9.15Q278.10-9.57 278.43-10.11L278.43-10.11L278.43-10.11Q278.77-10.66 278.77-11.39L278.77-11.39L278.77-11.39Q278.77-12.64 277.97-13.70L277.97-13.70L277.97-13.70Q277.16-14.77 275.96-15.73L275.96-15.73L275.96-15.73Q274.77-16.69 273.36-17.68L273.36-17.68L273.36-17.68Q271.96-18.67 270.79-19.76L270.79-19.76L270.79-19.76Q269.62-20.85 268.79-22.20L268.79-22.20L268.79-22.20Q267.96-23.56 267.96-25.22L267.96-25.22L267.96-25.22Q267.96-27.92 269.57-30.26L269.57-30.26L269.57-30.26Q271.18-32.60 273.60-34.29L273.60-34.29L273.60-34.29Q276.02-35.98 278.88-36.97L278.88-36.97L278.88-36.97Q281.74-37.96 284.28-37.96L284.28-37.96L284.28-37.96Q285.69-37.96 286.94-37.62L286.94-37.62L286.94-37.62Q288.18-37.28 289.09-36.53L289.09-36.53L289.09-36.53Q290.00-35.78 290.55-34.63L290.55-34.63L290.55-34.63Q291.10-33.49 291.10-31.77L291.10-31.77L291.10-31.77Q291.10-31.04 290.97-30.32L290.97-30.32L290.97-30.32Q290.84-29.59 290.73-28.76L290.73-28.76L283.19-26.57L283.19-26.57Q283.30-26.99 283.37-27.40L283.37-27.40L283.37-27.40Q283.45-27.82 283.45-28.24L283.45-28.24L283.45-28.24Q283.45-29.80 282.91-30.50L282.91-30.50L282.91-30.50Q282.36-31.20 281.48-31.20L281.48-31.20L281.48-31.20Q281.06-31.20 280.46-30.89L280.46-30.89L280.46-30.89Q279.86-30.58 279.27-30.08L279.27-30.08L279.27-30.08Q278.67-29.59 278.25-28.91L278.25-28.91L278.25-28.91Q277.84-28.24 277.84-27.46L277.84-27.46L277.84-27.46Q277.84-26.21 278.54-25.38L278.54-25.38L278.54-25.38Q279.24-24.54 280.28-23.82L280.28-23.82L280.28-23.82Q281.32-23.09 282.54-22.33L282.54-22.33L282.54-22.33Q283.76-21.58 284.80-20.38L284.80-20.38L284.80-20.38Q285.84-19.19 286.55-17.39L286.55-17.39L286.55-17.39Q287.25-15.60 287.25-12.84L287.25-12.84ZM308.78-11.18L308.78-11.18Q307.53-8.32 305.99-6.21L305.99-6.21L305.99-6.21Q304.46-4.11 302.77-2.68L302.77-2.68L302.77-2.68Q301.08-1.25 299.36-0.57L299.36-0.57L299.36-0.57Q297.65 0.10 296.04 0.10L296.04 0.10L296.04 0.10Q294.42 0.10 293.10-0.62L293.10-0.62L293.10-0.62Q291.77-1.35 290.78-2.81L290.78-2.81L290.78-2.81Q289.80-4.26 289.20-6.40L289.20-6.40L289.20-6.40Q288.60-8.53 288.60-11.39L288.60-11.39L288.60-11.39Q288.60-16.28 289.95-21.03L289.95-21.03L289.95-21.03Q291.30-25.79 293.75-29.59L293.75-29.59L293.75-29.59Q296.19-33.38 299.55-35.70L299.55-35.70L299.55-35.70Q302.90-38.01 306.96-38.01L306.96-38.01L306.96-38.01Q308.20-38.01 309.35-37.49L309.35-37.49L309.35-37.49Q310.49-36.97 311.32-36.04L311.32-36.04L311.32-36.04Q312.16-35.10 312.65-33.75L312.65-33.75L312.65-33.75Q313.14-32.40 313.14-30.73L313.14-30.73L313.14-30.73Q313.14-30.42 313.14-30.08L313.14-30.08L313.14-30.08Q313.14-29.74 313.09-29.38L313.09-29.38L306.28-27.56L306.28-27.56Q305.66-28.86 304.82-28.86L304.82-28.86L304.82-28.86Q303.99-28.86 303.08-27.90L303.08-27.90L303.08-27.90Q302.17-26.94 301.29-25.40L301.29-25.40L301.29-25.40Q300.40-23.87 299.57-21.97L299.57-21.97L299.57-21.97Q298.74-20.07 298.12-18.15L298.12-18.15L298.12-18.15Q297.49-16.22 297.10-14.48L297.10-14.48L297.10-14.48Q296.71-12.74 296.71-11.65L296.71-11.65L296.71-11.65Q296.71-9.98 297.15-9.31L297.15-9.31L297.15-9.31Q297.60-8.63 298.32-8.63L298.32-8.63L298.32-8.63Q298.90-8.63 299.62-9.07L299.62-9.07L299.62-9.07Q300.35-9.52 300.98-10.22L300.98-10.22L300.98-10.22Q301.60-10.92 302.12-11.80L302.12-11.80L302.12-11.80Q302.64-12.69 302.85-13.57L302.85-13.57L308.78-11.18ZM327.24-1.04L327.24-1.04Q325.94-0.83 324.38-0.57L324.38-0.57L324.38-0.57Q322.82-0.31 321.57-0.10L321.57-0.10L321.57-0.10Q321.78-1.82 321.98-3.48L321.98-3.48L321.98-3.48Q322.14-4.94 322.27-6.40L322.27-6.40L322.27-6.40Q322.40-7.85 322.50-8.89L322.50-8.89L317.98-8.89L315.90-1.40L315.90-1.40Q314.76-1.25 313.20-1.07L313.20-1.07L313.20-1.07Q311.64-0.88 310.28-0.73L310.28-0.73L310.28-0.73Q308.62-0.52 307.01-0.31L307.01-0.31L307.01-0.31Q309.09-7.23 311.12-13.94L311.12-13.94L311.12-13.94Q311.95-16.74 312.86-19.81L312.86-19.81L312.86-19.81Q313.77-22.88 314.68-25.92L314.68-25.92L314.68-25.92Q315.59-28.96 316.42-31.77L316.42-31.77L316.42-31.77Q317.25-34.58 317.88-36.92L317.88-36.92L317.88-36.92Q321.41-37.18 325.08-37.54L325.08-37.54L325.08-37.54Q328.74-37.91 332.23-38.53L332.23-38.53L332.23-38.53Q332.07-36.87 331.89-34.40L331.89-34.40L331.89-34.40Q331.71-31.93 331.55-29.02L331.55-29.02L331.55-29.02Q331.40-26.10 331.24-22.93L331.24-22.93L331.24-22.93Q331.08-19.76 330.93-16.69L330.93-16.69L330.93-16.69Q330.67-9.52 330.36-1.46L330.36-1.46L330.36-1.46Q328.80-1.20 327.24-1.04L327.24-1.04ZM322.45-27.14L319.23-14.09L319.23-14.09Q319.44-14.09 319.98-14.12L319.98-14.12L319.98-14.12Q320.53-14.14 321.13-14.17L321.13-14.17L321.13-14.17Q321.72-14.20 322.24-14.22L322.24-14.22L322.24-14.22Q322.76-14.25 322.97-14.30L322.97-14.30L322.97-14.30Q322.97-14.61 323.05-15.37L323.05-15.37L323.05-15.37Q323.13-16.12 323.21-17.08L323.21-17.08L323.21-17.08Q323.28-18.04 323.39-19.19L323.39-19.19L323.39-19.19Q323.49-20.33 323.60-21.42L323.60-21.42L323.60-21.42Q323.80-24.08 324.12-27.14L324.12-27.14L324.43-31.67L323.65-31.62L322.45-27.14ZM339.46-1.72L330.46 0.05L330.46 0.05Q332.02-6.97 333.42-13.68L333.42-13.68L333.42-13.68Q334.00-16.48 334.62-19.60L334.62-19.60L334.62-19.60Q335.24-22.72 335.82-25.74L335.82-25.74L335.82-25.74Q336.39-28.76 336.91-31.56L336.91-31.56L336.91-31.56Q337.43-34.37 337.79-36.71L337.79-36.71L337.79-36.71Q339.30-37.18 340.76-37.52L340.76-37.52L340.76-37.52Q342.21-37.86 343.75-38.12L343.75-38.12L343.75-38.12Q345.28-38.38 346.63-38.38L346.63-38.38L346.63-38.38Q348.97-38.38 350.56-37.60L350.56-37.60L350.56-37.60Q352.14-36.82 353.13-35.49L353.13-35.49L353.13-35.49Q354.12-34.16 354.54-32.40L354.54-32.40L354.54-32.40Q354.95-30.63 354.95-28.60L354.95-28.60L354.95-28.60Q354.95-25.69 353.89-22.98L353.89-22.98L353.89-22.98Q352.82-20.28 351.03-18.17L351.03-18.17L351.03-18.17Q349.23-16.07 346.92-14.82L346.92-14.82L346.92-14.82Q344.60-13.57 342.11-13.57L342.11-13.57L341.54-13.57L341.54-13.57Q341.12-11.80 340.76-9.72L340.76-9.72L340.76-9.72Q340.39-7.64 340.13-5.88L340.13-5.88L340.13-5.88Q339.77-3.80 339.46-1.72L339.46-1.72ZM344.97-32.08L344.97-32.08Q344.40-28.65 343.82-25.58L343.82-25.58L343.82-25.58Q343.25-22.52 342.58-19.03L342.58-19.03L342.58-19.03Q343.41-19.24 344.32-19.99L344.32-19.99L344.32-19.99Q345.23-20.75 346.01-21.97L346.01-21.97L346.01-21.97Q346.79-23.19 347.26-24.80L347.26-24.80L347.26-24.80Q347.72-26.42 347.72-28.18L347.72-28.18L347.72-28.18Q347.72-30.11 346.87-31.10L346.87-31.10L346.87-31.10Q346.01-32.08 344.97-32.08L344.97-32.08ZM359.16-1.04L359.16-1.04Q358.70-1.04 357.32-0.91L357.32-0.91L357.32-0.91Q355.94-0.78 354.48-0.60L354.48-0.60L354.48-0.60Q353.03-0.42 351.86-0.26L351.86-0.26L351.86-0.26Q350.69-0.10 350.58-0.05L350.58-0.05L350.58-0.05Q351.10-2.29 351.65-5.02L351.65-5.02L351.65-5.02Q352.20-7.75 352.77-10.74L352.77-10.74L352.77-10.74Q353.34-13.73 353.86-16.80L353.86-16.80L353.86-16.80Q354.38-19.86 354.85-22.72L354.85-22.72L354.85-22.72Q355.94-29.38 357.03-36.40L357.03-36.40L365.14-37.70L365.14-37.70Q363.95-30.73 362.80-24.02L362.80-24.02L362.80-24.02Q362.34-21.16 361.84-18.10L361.84-18.10L361.84-18.10Q361.35-15.03 360.85-12.01L360.85-12.01L360.85-12.01Q360.36-9.00 359.94-6.16L359.94-6.16L359.94-6.16Q359.53-3.33 359.16-1.04L359.16-1.04ZM368.68-1.51L361.09 0.26L361.09 0.26Q362.65-7.23 364.05-14.25L364.05-14.25L364.05-14.25Q364.57-17.26 365.17-20.49L365.17-20.49L365.17-20.49Q365.77-23.71 366.29-26.86L366.29-26.86L366.29-26.86Q366.81-30.00 367.22-32.89L367.22-32.89L367.22-32.89Q367.64-35.78 367.85-38.12L367.85-38.12L367.85-38.12Q368.52-38.06 368.99-38.06L368.99-38.06L368.99-38.06Q369.46-38.06 370.08-38.06L370.08-38.06L370.08-38.06Q370.81-38.06 371.85-38.09L371.85-38.09L371.85-38.09Q372.89-38.12 373.93-38.17L373.93-38.17L373.93-38.17Q374.97-38.22 376.17-38.27L376.17-38.27L376.17-38.27Q376.90-34.63 377.47-31.25L377.47-31.25L377.47-31.25Q378.04-28.29 378.64-25.17L378.64-25.17L378.64-25.17Q379.24-22.05 379.70-19.86L379.70-19.86L379.70-19.86Q379.91-20.90 380.17-22.28L380.17-22.28L380.17-22.28Q380.43-23.66 380.74-25.17L380.74-25.17L380.74-25.17Q381.06-26.68 381.34-28.21L381.34-28.21L381.34-28.21Q381.63-29.74 381.94-31.25L381.94-31.25L381.94-31.25Q382.67-34.63 383.45-38.22L383.45-38.22L389.79-39L389.79-39Q388.02-31.04 386.67-23.92L386.67-23.92L386.67-23.92Q386.05-20.85 385.45-17.71L385.45-17.71L385.45-17.71Q384.85-14.56 384.33-11.67L384.33-11.67L384.33-11.67Q383.81-8.79 383.45-6.32L383.45-6.32L383.45-6.32Q383.08-3.85 382.88-2.18L382.88-2.18L382.88-2.18Q382.72-2.18 381.65-1.95L381.65-1.95L381.65-1.95Q380.59-1.72 379.21-1.40L379.21-1.40L379.21-1.40Q377.83-1.09 376.45-0.78L376.45-0.78L376.45-0.78Q375.08-0.47 374.40-0.21L374.40-0.21L374.40-0.21Q374.09-4.37 373.72-8.11L373.72-8.11L373.72-8.11Q373.57-9.72 373.39-11.41L373.39-11.41L373.39-11.41Q373.20-13.10 373.00-14.66L373.00-14.66L373.00-14.66Q372.79-16.22 372.58-17.58L372.58-17.58L372.58-17.58Q372.37-18.93 372.16-19.92L372.16-19.92L372.16-19.92Q372.01-18.93 371.75-17.63L371.75-17.63L371.75-17.63Q371.49-16.33 371.23-14.87L371.23-14.87L371.23-14.87Q370.97-13.42 370.71-11.83L370.71-11.83L370.71-11.83Q370.45-10.24 370.14-8.79L370.14-8.79L370.14-8.79Q369.46-5.30 368.68-1.51L368.68-1.51ZM412.62-19.81L412.62-19.81Q412.26-14.51 410.54-10.58L410.54-10.58L410.54-10.58Q408.82-6.66 406.41-4.00L406.41-4.00L406.41-4.00Q403.99-1.35 401.21-0.05L401.21-0.05L401.21-0.05Q398.42 1.25 395.93 1.25L395.93 1.25L395.93 1.25Q394.00 1.25 392.26 0.42L392.26 0.42L392.26 0.42Q390.52-0.42 389.25-2.11L389.25-2.11L389.25-2.11Q387.97-3.80 387.24-6.34L387.24-6.34L387.24-6.34Q386.52-8.89 386.52-12.32L386.52-12.32L386.52-12.32Q386.52-19.03 388.44-24.02L388.44-24.02L388.44-24.02Q390.36-29.02 393.30-32.34L393.30-32.34L393.30-32.34Q396.24-35.67 399.59-37.28L399.59-37.28L399.59-37.28Q402.95-38.90 405.86-38.90L405.86-38.90L405.86-38.90Q407.94-38.90 409.47-38.17L409.47-38.17L409.47-38.17Q411.01-37.44 412.00-36.22L412.00-36.22L412.00-36.22Q412.98-35.00 413.43-33.36L413.43-33.36L413.43-33.36Q413.87-31.72 413.87-29.90L413.87-29.90L406.74-28.55L406.74-28.55Q406.28-30.63 405.50-31.51L405.50-31.51L405.50-31.51Q404.72-32.40 403.73-32.40L403.73-32.40L403.73-32.40Q402.43-32.40 400.87-30.55L400.87-30.55L400.87-30.55Q399.31-28.70 397.96-25.79L397.96-25.79L397.96-25.79Q396.60-22.88 395.67-19.40L395.67-19.40L395.67-19.40Q394.73-15.91 394.63-12.53L394.63-12.53L394.63-12.53Q394.63-9.31 395.59-7.93L395.59-7.93L395.59-7.93Q396.55-6.55 398.06-6.55L398.06-6.55L398.06-6.55Q399.10-6.55 400.22-7.07L400.22-7.07L400.22-7.07Q401.34-7.59 402.22-8.55L402.22-8.55L402.22-8.55Q403.10-9.52 403.70-10.79L403.70-10.79L403.70-10.79Q404.30-12.06 404.35-13.57L404.35-13.57L398.79-12.74L399.78-17.89L399.78-17.89Q402.22-18.20 404.56-18.51L404.56-18.51L404.56-18.51Q406.54-18.77 408.75-19.14L408.75-19.14L408.75-19.14Q410.96-19.50 412.62-19.81L412.62-19.81Z" fill="url(#editing-shiny-gradient2)"></path></g></g><style>text {
  font-size: 64px;
  font-family: Arial Black;
  dominant-baseline: central;
  text-anchor: middle;
}</style></svg>