<?xml version="1.0" encoding="iso-8859-1"?>
<!-- Generator: Adobe Illustrator 19.0.0, SVG Export Plug-In . SVG Version: 6.00 Build 0)  -->
<svg version="1.1" id="Layer_1" xmlns="http://www.w3.org/2000/svg" xmlns:xlink="http://www.w3.org/1999/xlink" x="0px" y="0px"
	 viewBox="0 0 512 512" style="enable-background:new 0 0 512 512;" xml:space="preserve">
<rect x="7.918" y="424.907" style="fill:#A26234;" width="496.165" height="63.34"/>
<g>
	<path style="fill:#23A24D;" d="M435.464,23.753H287.67c-5.806,0-10.557,4.751-10.557,10.557v36.948v226.969
		c0,5.806,4.751,10.557,10.557,10.557h147.794c5.806,0,10.557-4.751,10.557-10.557V34.309
		C446.021,28.503,441.27,23.753,435.464,23.753z"/>
	<path style="fill:#23A24D;" d="M224.33,23.753H76.536c-5.806,0-10.557,4.751-10.557,10.557v36.948v226.969
		c0,5.806,4.751,10.557,10.557,10.557H224.33c5.806,0,10.557-4.751,10.557-10.557V34.309
		C234.887,28.503,230.136,23.753,224.33,23.753z"/>
</g>
<g>
	<path style="fill:#008A48;" d="M77.823,23.753h-1.287c-5.806,0-10.557,4.751-10.557,10.557v36.948v226.969
		c0,5.806,4.751,10.557,10.557,10.557H224.33c5.806,0,10.557-4.751,10.557-10.557v-52.115
		C148.882,205.939,87.231,122.544,77.823,23.753z"/>
	<path style="fill:#008A48;" d="M288.958,23.753h-1.288c-5.806,0-10.557,4.751-10.557,10.557v36.948v226.969
		c0,5.806,4.751,10.557,10.557,10.557h147.794c5.806,0,10.557-4.751,10.557-10.557v-52.115
		C360.016,205.939,298.365,122.544,288.958,23.753z"/>
</g>
<path d="M76.536,316.701h65.979v81.814h15.835v-81.814h65.979c10.186,0,18.474-8.288,18.474-18.474V34.309
	c0-10.186-8.288-18.474-18.474-18.474H76.536c-10.186,0-18.474,8.288-18.474,18.474v263.918
	C58.062,308.413,66.35,316.701,76.536,316.701z M73.897,34.309c0-1.43,1.209-2.639,2.639-2.639H224.33
	c1.43,0,2.639,1.209,2.639,2.639v263.918c0,1.43-1.209,2.639-2.639,2.639h-65.979v-78.534l34.63-34.63l-11.197-11.197
	l-23.433,23.433v-77.893l29.352-29.352l-11.197-11.197l-25.007,25.007l-27.367-25.229l-10.734,11.643l29.119,26.843v37.951
	l-23.432-23.432l-11.197,11.197l34.629,34.63v72.614l-18.153-18.153l-11.197,11.197l29.351,29.352v25.751H76.536
	c-1.43,0-2.639-1.209-2.639-2.639V34.309z"/>
<rect x="97.649" y="190.021" width="21.113" height="15.835"/>
<rect x="86.565" y="263.39" style="fill:#FFFFFF;" width="21.113" height="15.835"/>
<rect x="171.546" y="242.804" width="21.113" height="15.835"/>
<rect x="192.66" y="263.918" width="21.113" height="15.835"/>
<g>
	<rect x="181.575" y="136.709" style="fill:#FFFFFF;" width="21.113" height="15.835"/>
	<rect x="192.132" y="52.256" style="fill:#FFFFFF;" width="21.113" height="15.835"/>
	<rect x="86.565" y="62.812" style="fill:#FFFFFF;" width="21.113" height="15.835"/>
</g>
<rect x="139.876" y="52.784" width="21.113" height="15.835"/>
<path d="M287.67,316.701h65.979v81.814h15.835v-81.814h65.979c10.186,0,18.474-8.288,18.474-18.474V34.309
	c0-10.186-8.288-18.474-18.474-18.474H287.67c-10.186,0-18.474,8.288-18.474,18.474v263.918
	C269.196,308.413,277.484,316.701,287.67,316.701z M285.031,34.309c0-1.43,1.209-2.639,2.639-2.639h147.794
	c1.43,0,2.639,1.209,2.639,2.639v263.918c0,1.43-1.209,2.639-2.639,2.639h-65.979v-78.534l34.63-34.63l-11.197-11.197
	l-23.433,23.433v-77.893l29.352-29.352l-11.197-11.197l-25.007,25.007l-27.367-25.229l-10.734,11.643l29.119,26.843v37.951
	l-23.432-23.432l-11.197,11.197l34.629,34.63v72.614l-18.153-18.153l-11.197,11.197l29.351,29.352v25.751H287.67
	c-1.43,0-2.639-1.209-2.639-2.639V34.309z"/>
<rect x="308.256" y="189.493" style="fill:#FFFFFF;" width="21.113" height="15.835"/>
<rect x="298.227" y="263.918" width="21.113" height="15.835"/>
<rect x="382.68" y="242.804" width="21.113" height="15.835"/>
<rect x="403.794" y="263.918" width="21.113" height="15.835"/>
<g>
	<rect x="392.709" y="136.709" style="fill:#FFFFFF;" width="21.113" height="15.835"/>
	<rect x="403.266" y="52.256" style="fill:#FFFFFF;" width="21.113" height="15.835"/>
	<rect x="297.699" y="62.812" style="fill:#FFFFFF;" width="21.113" height="15.835"/>
</g>
<rect x="351.01" y="52.784" width="21.113" height="15.835"/>
<polygon points="229.606,416.99 229.606,432.825 496.165,432.825 496.165,480.33 15.835,480.33 15.835,464.495 308.784,464.495 
	308.784,448.66 15.835,448.66 15.835,432.825 208.493,432.825 208.493,416.99 0,416.99 0,496.165 512,496.165 512,416.99 "/>
<rect x="329.369" y="448.132" style="fill:#FFFFFF;" width="21.113" height="15.835"/>
<g>
</g>
<g>
</g>
<g>
</g>
<g>
</g>
<g>
</g>
<g>
</g>
<g>
</g>
<g>
</g>
<g>
</g>
<g>
</g>
<g>
</g>
<g>
</g>
<g>
</g>
<g>
</g>
<g>
</g>
</svg>
