<?xml version="1.0" encoding="iso-8859-1"?>
<!-- Generator: Adobe Illustrator 19.0.0, SVG Export Plug-In . SVG Version: 6.00 Build 0)  -->
<svg version="1.1" id="Layer_1" xmlns="http://www.w3.org/2000/svg" xmlns:xlink="http://www.w3.org/1999/xlink" x="0px" y="0px"
	 viewBox="0 0 512 512" style="enable-background:new 0 0 512 512;" xml:space="preserve">
<path style="fill:#4BAA62;" d="M287.089,339.871c12.389,10.396,28.366,16.654,45.803,16.654c39.381,0,71.305-31.924,71.305-71.305
	c0-5.455-0.633-10.761-1.793-15.865c20.389-12.549,33.987-35.064,33.987-60.761c0-25.683-13.583-48.185-33.951-60.739
	c0.622-3.787,0.959-7.668,0.959-11.63c0-39.381-31.924-71.305-71.305-71.305c-2.286,0-4.544,0.118-6.775,0.329
	C317.8,33.927,289.627,10.643,256,10.643c-33.689,0-61.901,23.37-69.359,54.777c-2.735-0.318-5.512-0.5-8.332-0.5
	c-39.381,0-71.305,31.924-71.305,71.305c0,4.285,0.399,8.473,1.124,12.549c-19.567,12.714-32.519,34.748-32.519,59.821
	c0,25.697,13.599,48.213,33.987,60.761c-1.16,5.104-1.793,10.409-1.793,15.865c0,39.381,31.924,71.305,71.305,71.305
	c16.748,0,32.148-5.775,44.317-15.44L287.089,339.871z"/>
<g>
	<polygon style="fill:#A18E84;" points="236.026,188.473 281.611,263.503 281.611,433.784 228.399,433.784 228.399,263.503 
		197.003,212.241 	"/>
	<polygon style="fill:#A18E84;" points="304.67,180.491 258.908,226.254 281.611,263.503 327.374,217.74 	"/>
</g>
<path style="fill:#939393;" d="M474.172,459.852c-119.729,0-119.729-32.992-218.172-32.992s-98.444,32.992-218.172,32.992v41.506
	h436.344V459.852z"/>
<g>
	<path style="fill:#231F20;" d="M164.702,267.002l3.539-15.567c1.304-5.732-2.287-11.434-8.018-12.737
		c-5.73-1.305-11.434,2.286-12.737,8.018l-3.539,15.567c-1.304,5.732,2.287,11.434,8.018,12.737
		c0.794,0.181,1.588,0.267,2.369,0.267C159.193,275.287,163.58,271.939,164.702,267.002z"/>
	<path style="fill:#231F20;" d="M181.066,303.214c-0.644,0.066-1.304,0.099-1.961,0.099c-0.001,0-0.002,0-0.004,0
		c-2.749,0-5.387-0.602-7.842-1.793c-5.289-2.562-11.656-0.353-14.218,4.936c-2.564,5.29-0.353,11.656,4.936,14.218
		c5.372,2.603,11.133,3.924,17.122,3.924c0.003,0,0.006,0,0.01,0c1.37,0,2.75-0.069,4.106-0.206
		c5.848-0.594,10.107-5.814,9.514-11.662C192.135,306.882,186.912,302.625,181.066,303.214z"/>
	<path style="fill:#231F20;" d="M273.576,77.67c1.172,4.88,5.532,8.16,10.339,8.16c0.823,0,1.659-0.096,2.494-0.296
		c5.715-1.372,9.237-7.118,7.864-12.834c-1.72-7.165-5.388-13.674-10.607-18.82c-4.185-4.128-10.924-4.08-15.051,0.105
		s-4.08,10.924,0.105,15.051C271.106,71.389,272.784,74.374,273.576,77.67z"/>
	<path style="fill:#231F20;" d="M223.666,93.765c0.827,0.197,1.654,0.289,2.467,0.289c4.818,0,9.185-3.294,10.346-8.186l1.937-8.156
		c0.37-1.563,0.941-3.063,1.695-4.457c2.796-5.17,0.871-11.629-4.3-14.425c-5.168-2.794-11.628-0.871-14.424,4.3
		c-1.642,3.037-2.881,6.29-3.682,9.668l-1.936,8.155C214.411,86.671,217.947,92.408,223.666,93.765z"/>
	<path style="fill:#231F20;" d="M330.291,303.136c-4.152-0.573-7.185-2.506-8.999-4.028c-4.504-3.779-11.216-3.191-14.993,1.311
		c-3.778,4.502-3.192,11.215,1.311,14.993c3.957,3.32,10.6,7.544,19.775,8.809c0.493,0.067,0.982,0.101,1.467,0.101
		c5.233,0,9.794-3.861,10.53-9.19C340.184,309.31,336.114,303.938,330.291,303.136z"/>
	<path style="fill:#231F20;" d="M371.269,276.432c-1.305-5.732-7.009-9.323-12.738-8.016c-5.731,1.305-9.32,7.008-8.016,12.739
		c0.118,0.521,0.216,1.049,0.289,1.571c0.754,5.313,5.309,9.15,10.523,9.15c0.497,0,1-0.034,1.508-0.106
		c5.819-0.825,9.868-6.212,9.043-12.031C371.724,278.637,371.518,277.525,371.269,276.432z"/>
	<path style="fill:#231F20;" d="M474.172,449.209c-61.211,0-90.059-8.766-117.958-17.245c-19.061-5.792-37.37-11.352-63.961-14.051
		v-61.537c12.302,7.019,26.319,10.793,40.639,10.793c45.186,0,81.948-36.761,81.948-81.948c0-3.644-0.248-7.304-0.741-10.945
		c20.751-15.437,32.934-39.487,32.934-65.682c0-26.321-12.309-50.485-33.252-65.914c0.172-2.16,0.26-4.318,0.26-6.456
		c0-44.833-36.192-81.373-80.893-81.941C321.625,21.922,291.052,0,256,0c-35.078,0-65.627,21.911-77.147,54.279
		c-0.181-0.001-0.363-0.002-0.544-0.002c-45.186,0-81.948,36.761-81.948,81.948c0,2.514,0.121,5.056,0.362,7.605
		c-20.004,15.485-31.757,39.222-31.757,64.764c0,26.194,12.184,50.245,32.934,65.682c-0.493,3.641-0.741,7.301-0.741,10.945
		c0,45.186,36.761,81.948,81.948,81.948c13.722,0,26.852-3.316,38.648-9.66v60.617c-25.518,2.769-43.39,8.194-61.97,13.84
		c-27.899,8.479-56.748,17.245-117.958,17.245c-5.878,0-10.643,4.766-10.643,10.643v41.506c0,5.877,4.765,10.643,10.643,10.643
		h436.344c5.878,0,10.643-4.766,10.643-10.643v-41.506C484.815,453.974,480.05,449.209,474.172,449.209z M306.584,193.627
		c3.245,6.812,7.046,12.983,11.385,18.465l-34.301,34.301l-11.282-18.569L306.584,193.627z M216.805,332.752
		c-10.814,8.59-23.849,13.131-37.697,13.131c-33.45,0-60.662-27.213-60.662-60.662c0-4.499,0.514-9.042,1.529-13.504
		c1.01-4.442-0.92-9.034-4.799-11.423c-18.111-11.147-28.924-30.474-28.924-51.699c0-20.609,10.346-39.636,27.675-50.895
		c3.584-2.329,5.428-6.577,4.68-10.785c-0.636-3.585-0.959-7.182-0.959-10.689c0-33.45,27.213-60.662,60.663-60.662
		c2.292,0,4.616,0.14,7.103,0.429c5.363,0.627,10.337-2.862,11.584-8.112c6.514-27.434,30.777-46.594,59.003-46.594
		c28.156,0,52.405,19.1,58.97,46.448c1.237,5.153,6.072,8.602,11.35,8.112c1.981-0.188,3.923-0.283,5.774-0.283
		c33.449,0,60.662,27.213,60.662,60.662c0,3.264-0.276,6.597-0.819,9.907c-0.699,4.26,1.243,8.519,4.918,10.784
		c18.092,11.151,28.892,30.47,28.892,51.679c0,21.225-10.813,40.552-28.923,51.698c-3.88,2.388-5.809,6.982-4.799,11.423
		c1.014,4.461,1.528,9.005,1.528,13.504c0,33.449-27.213,60.662-60.662,60.662c-14.239,0-28.076-5.031-38.962-14.165
		c-0.53-0.445-1.093-0.824-1.676-1.147v-62.659l40.951-40.951c9.409,7.023,20.325,11.907,32.59,14.496
		c0.741,0.156,1.48,0.232,2.209,0.232c4.923,0,9.344-3.436,10.402-8.447c1.214-5.75-2.464-11.397-8.215-12.611
		c-22.486-4.748-38.476-19.394-47.525-43.532c-7.151-19.073-7.177-37.141-7.176-37.5c0.045-5.87-4.673-10.668-10.546-10.722
		c-0.033,0-0.066,0-0.099,0c-5.832,0-10.587,4.701-10.64,10.546c-0.006,0.715-0.066,14.754,4.478,32.277
		c-0.542,0.369-1.059,0.788-1.54,1.269l-36.134,36.134l-15.119-24.883c5.428-10.677,8.767-23.662,9.968-38.896
		c0.462-5.86-3.914-10.983-9.774-11.445c-5.866-0.478-10.984,3.915-11.445,9.774c-1.818,23.089-9.233,38.971-22.041,47.206
		c-22.156,14.245-54.698,2.711-55.205,2.528c-5.509-2.022-11.617,0.792-13.653,6.299c-2.039,5.513,0.778,11.634,6.292,13.672
		c1.04,0.384,16.254,5.88,35.005,5.88c1.224,0,2.467-0.031,3.719-0.081l28.999,47.35v65.578
		C217.43,332.286,217.112,332.507,216.805,332.752z M237.475,257.944l-26.279-42.908c4.36-1.538,8.664-3.56,12.794-6.202
		c2.913-1.862,5.609-3.978,8.132-6.29l17.175,28.27c0.158,0.332,0.328,0.66,0.521,0.979l21.149,34.697v149.993
		c-4.741-0.171-9.71-0.266-14.969-0.266c-5.994,0-11.63,0.118-16.959,0.339V263.503C239.041,261.54,238.498,259.617,237.475,257.944
		z M463.53,490.715H48.47v-20.308c57.18-0.96,85.785-9.654,113.505-18.077c25.092-7.624,48.792-14.827,94.025-14.827
		s68.933,7.203,94.025,14.827c27.719,8.424,56.325,17.117,113.505,18.077V490.715z"/>
</g>
<g>
</g>
<g>
</g>
<g>
</g>
<g>
</g>
<g>
</g>
<g>
</g>
<g>
</g>
<g>
</g>
<g>
</g>
<g>
</g>
<g>
</g>
<g>
</g>
<g>
</g>
<g>
</g>
<g>
</g>
</svg>
